<mxfile host="app.diagrams.net" agent="Mozilla/5.0 (Windows NT 10.0; Win64; x64) AppleWebKit/537.36 (KHTML, like Gecko) Chrome/128.0.0.0 Safari/537.36" version="24.7.10" pages="2">
  <diagram name="Page-1" id="SWsz9NWutryXnhtPqH7k">
    <mxGraphModel dx="2396" dy="2206" grid="1" gridSize="10" guides="1" tooltips="1" connect="1" arrows="1" fold="1" page="1" pageScale="1" pageWidth="1100" pageHeight="850" math="0" shadow="0">
      <root>
        <mxCell id="0" />
        <mxCell id="1" parent="0" />
        <mxCell id="J2YDZOPqugOFEzBfIfHy-1" value="" style="rounded=0;whiteSpace=wrap;html=1;fillColor=#cce6cf;fillStyle=solid;strokeColor=none;strokeWidth=3;connectable=0;allowArrows=0;" vertex="1" parent="1">
          <mxGeometry x="470" y="-490" width="810.5" height="810" as="geometry" />
        </mxCell>
        <mxCell id="s-IoeQ7TAPcg38dRmmtI-431" value="" style="rounded=0;whiteSpace=wrap;html=1;fillColor=#cce6cf;fillStyle=solid;strokeColor=none;strokeWidth=3;connectable=0;allowArrows=0;" vertex="1" parent="1">
          <mxGeometry x="920" y="-630" width="90" height="140" as="geometry" />
        </mxCell>
        <mxCell id="h-0-y1XXke3g4Fu3jNhB-32" value="" style="rounded=0;whiteSpace=wrap;html=1;strokeColor=none;connectable=0;allowArrows=0;fillColor=#955436;" vertex="1" parent="1">
          <mxGeometry x="920" y="-520" width="90" height="30" as="geometry" />
        </mxCell>
        <mxCell id="s-IoeQ7TAPcg38dRmmtI-425" value="" style="rounded=0;whiteSpace=wrap;html=1;fillColor=#cce6cf;fillStyle=solid;strokeColor=none;strokeWidth=3;connectable=0;allowArrows=0;" vertex="1" parent="1">
          <mxGeometry x="650" y="-630" width="90" height="140" as="geometry" />
        </mxCell>
        <mxCell id="s-IoeQ7TAPcg38dRmmtI-426" value="" style="rounded=0;whiteSpace=wrap;html=1;fillColor=#cce6cf;fillStyle=solid;strokeColor=none;strokeWidth=3;connectable=0;allowArrows=0;" vertex="1" parent="1">
          <mxGeometry x="1010" y="-630" width="90" height="140" as="geometry" />
        </mxCell>
        <mxCell id="s-IoeQ7TAPcg38dRmmtI-430" value="VENTOR&lt;br&gt;AVENUE" style="text;html=1;align=center;verticalAlign=top;whiteSpace=wrap;rounded=0;allowArrows=0;connectable=0;fontSize=11;textShadow=1;rotation=-181;" vertex="1" parent="1">
          <mxGeometry x="1010" y="-600" width="90" height="70" as="geometry" />
        </mxCell>
        <mxCell id="s-IoeQ7TAPcg38dRmmtI-420" value="" style="rounded=0;whiteSpace=wrap;html=1;fillColor=#cce6cf;fillStyle=solid;strokeColor=none;strokeWidth=3;connectable=0;allowArrows=0;" vertex="1" parent="1">
          <mxGeometry x="1190" y="-630" width="90" height="140" as="geometry" />
        </mxCell>
        <mxCell id="s-IoeQ7TAPcg38dRmmtI-424" value="MARVIN&lt;br&gt;GARDENS" style="text;html=1;align=center;verticalAlign=top;whiteSpace=wrap;rounded=0;allowArrows=0;connectable=0;fontSize=11;textShadow=1;rotation=-180;" vertex="1" parent="1">
          <mxGeometry x="1190" y="-600" width="90" height="70" as="geometry" />
        </mxCell>
        <mxCell id="s-IoeQ7TAPcg38dRmmtI-487" value="" style="rounded=0;whiteSpace=wrap;html=1;fillColor=#cce6cf;fillStyle=solid;strokeColor=none;strokeWidth=3;connectable=0;allowArrows=0;" vertex="1" parent="1">
          <mxGeometry x="1280" y="-220" width="140" height="90" as="geometry" />
        </mxCell>
        <mxCell id="s-IoeQ7TAPcg38dRmmtI-488" value="" style="rounded=0;whiteSpace=wrap;html=1;fillColor=#cce6cf;fillStyle=solid;strokeColor=none;strokeWidth=3;connectable=0;allowArrows=0;" vertex="1" parent="1">
          <mxGeometry x="1280" y="-400" width="140" height="90" as="geometry" />
        </mxCell>
        <mxCell id="s-IoeQ7TAPcg38dRmmtI-489" value="" style="rounded=0;whiteSpace=wrap;html=1;fillColor=#cce6cf;fillStyle=solid;strokeColor=none;strokeWidth=3;connectable=0;allowArrows=0;" vertex="1" parent="1">
          <mxGeometry x="1280" y="-310" width="140" height="90" as="geometry" />
        </mxCell>
        <mxCell id="s-IoeQ7TAPcg38dRmmtI-494" value="" style="rounded=0;whiteSpace=wrap;html=1;fillColor=#cce6cf;fillStyle=solid;strokeColor=none;strokeWidth=3;connectable=0;allowArrows=0;" vertex="1" parent="1">
          <mxGeometry x="1280" y="-40" width="140" height="90" as="geometry" />
        </mxCell>
        <mxCell id="s-IoeQ7TAPcg38dRmmtI-495" value="" style="rounded=0;whiteSpace=wrap;html=1;fillColor=#cce6cf;fillStyle=solid;strokeColor=none;strokeWidth=3;connectable=0;allowArrows=0;" vertex="1" parent="1">
          <mxGeometry x="1280" y="50" width="140" height="90" as="geometry" />
        </mxCell>
        <mxCell id="s-IoeQ7TAPcg38dRmmtI-496" value="" style="rounded=0;whiteSpace=wrap;html=1;fillColor=#cce6cf;fillStyle=solid;strokeColor=none;strokeWidth=3;connectable=0;allowArrows=0;" vertex="1" parent="1">
          <mxGeometry x="1280" y="140" width="140" height="90" as="geometry" />
        </mxCell>
        <mxCell id="s-IoeQ7TAPcg38dRmmtI-497" value="" style="rounded=0;whiteSpace=wrap;html=1;fillColor=#cce6cf;fillStyle=solid;strokeColor=none;strokeWidth=3;connectable=0;allowArrows=0;" vertex="1" parent="1">
          <mxGeometry x="1280" y="230" width="140" height="90" as="geometry" />
        </mxCell>
        <mxCell id="s-IoeQ7TAPcg38dRmmtI-501" value="" style="rounded=0;whiteSpace=wrap;html=1;fillColor=#cce6cf;fillStyle=solid;strokeColor=none;strokeWidth=3;connectable=0;allowArrows=0;" vertex="1" parent="1">
          <mxGeometry x="1280" y="-130" width="140" height="90" as="geometry" />
        </mxCell>
        <mxCell id="s-IoeQ7TAPcg38dRmmtI-490" value="" style="rounded=0;whiteSpace=wrap;html=1;fillColor=#cce6cf;fillStyle=solid;strokeColor=none;strokeWidth=3;connectable=0;allowArrows=0;" vertex="1" parent="1">
          <mxGeometry x="1280" y="-490" width="140" height="90" as="geometry" />
        </mxCell>
        <mxCell id="s-IoeQ7TAPcg38dRmmtI-479" value="" style="rounded=0;whiteSpace=wrap;html=1;fillColor=#cce6cf;fillStyle=solid;strokeColor=none;strokeWidth=3;connectable=0;allowArrows=0;" vertex="1" parent="1">
          <mxGeometry x="1280" y="-630" width="140" height="140" as="geometry" />
        </mxCell>
        <mxCell id="s-IoeQ7TAPcg38dRmmtI-480" value="" style="rounded=0;whiteSpace=wrap;html=1;fillColor=#cce6cf;fillStyle=solid;strokeColor=none;strokeWidth=3;connectable=0;allowArrows=0;" vertex="1" parent="1">
          <mxGeometry x="330" y="-630" width="140" height="140" as="geometry" />
        </mxCell>
        <mxCell id="s-IoeQ7TAPcg38dRmmtI-486" value="" style="rounded=0;whiteSpace=wrap;html=1;strokeColor=none;rotation=-45;" vertex="1" parent="1">
          <mxGeometry x="370" y="-575" width="58.22" height="20.15" as="geometry" />
        </mxCell>
        <mxCell id="s-IoeQ7TAPcg38dRmmtI-315" value="" style="rounded=0;whiteSpace=wrap;html=1;fillColor=#cce6cf;fillStyle=solid;strokeColor=none;strokeWidth=3;connectable=0;allowArrows=0;" vertex="1" parent="1">
          <mxGeometry x="330" y="-220" width="140" height="90" as="geometry" />
        </mxCell>
        <mxCell id="s-IoeQ7TAPcg38dRmmtI-313" value="" style="rounded=0;whiteSpace=wrap;html=1;fillColor=#cce6cf;fillStyle=solid;strokeColor=none;strokeWidth=3;connectable=0;allowArrows=0;" vertex="1" parent="1">
          <mxGeometry x="330" y="-400" width="140" height="90" as="geometry" />
        </mxCell>
        <mxCell id="s-IoeQ7TAPcg38dRmmtI-314" value="" style="rounded=0;whiteSpace=wrap;html=1;fillColor=#cce6cf;fillStyle=solid;strokeColor=none;strokeWidth=3;connectable=0;allowArrows=0;" vertex="1" parent="1">
          <mxGeometry x="330" y="-310" width="140" height="90" as="geometry" />
        </mxCell>
        <mxCell id="s-IoeQ7TAPcg38dRmmtI-317" value="" style="rounded=0;whiteSpace=wrap;html=1;fillColor=#cce6cf;fillStyle=solid;strokeColor=none;strokeWidth=3;connectable=0;allowArrows=0;" vertex="1" parent="1">
          <mxGeometry x="330" y="-490" width="140" height="90" as="geometry" />
        </mxCell>
        <mxCell id="s-IoeQ7TAPcg38dRmmtI-342" value="" style="rounded=0;whiteSpace=wrap;html=1;strokeColor=none;connectable=0;allowArrows=0;fillColor=#f7941c;" vertex="1" parent="1">
          <mxGeometry x="440" y="-220" width="30" height="90" as="geometry" />
        </mxCell>
        <mxCell id="s-IoeQ7TAPcg38dRmmtI-343" value="" style="rounded=0;whiteSpace=wrap;html=1;strokeColor=none;connectable=0;allowArrows=0;fillColor=#f7941c;" vertex="1" parent="1">
          <mxGeometry x="440" y="-400" width="30" height="90" as="geometry" />
        </mxCell>
        <mxCell id="s-IoeQ7TAPcg38dRmmtI-344" value="" style="rounded=0;whiteSpace=wrap;html=1;strokeColor=none;connectable=0;allowArrows=0;fillColor=#f7941c;" vertex="1" parent="1">
          <mxGeometry x="440" y="-490" width="30" height="90" as="geometry" />
        </mxCell>
        <mxCell id="s-IoeQ7TAPcg38dRmmtI-311" value="" style="rounded=0;whiteSpace=wrap;html=1;fillColor=#cce6cf;fillStyle=solid;strokeColor=none;strokeWidth=3;connectable=0;allowArrows=0;" vertex="1" parent="1">
          <mxGeometry x="330" y="-40" width="140" height="90" as="geometry" />
        </mxCell>
        <mxCell id="s-IoeQ7TAPcg38dRmmtI-312" value="" style="rounded=0;whiteSpace=wrap;html=1;fillColor=#cce6cf;fillStyle=solid;strokeColor=none;strokeWidth=3;connectable=0;allowArrows=0;" vertex="1" parent="1">
          <mxGeometry x="330" y="50" width="140" height="90" as="geometry" />
        </mxCell>
        <mxCell id="s-IoeQ7TAPcg38dRmmtI-310" value="" style="rounded=0;whiteSpace=wrap;html=1;fillColor=#cce6cf;fillStyle=solid;strokeColor=none;strokeWidth=3;connectable=0;allowArrows=0;" vertex="1" parent="1">
          <mxGeometry x="330" y="140" width="140" height="90" as="geometry" />
        </mxCell>
        <mxCell id="s-IoeQ7TAPcg38dRmmtI-308" value="" style="rounded=0;whiteSpace=wrap;html=1;fillColor=#cce6cf;fillStyle=solid;strokeColor=none;strokeWidth=3;connectable=0;allowArrows=0;" vertex="1" parent="1">
          <mxGeometry x="330" y="230" width="140" height="90" as="geometry" />
        </mxCell>
        <mxCell id="s-IoeQ7TAPcg38dRmmtI-336" value="" style="rounded=0;whiteSpace=wrap;html=1;strokeColor=none;connectable=0;allowArrows=0;fillColor=#d93b96;" vertex="1" parent="1">
          <mxGeometry x="440" y="230" width="30" height="90" as="geometry" />
        </mxCell>
        <mxCell id="s-IoeQ7TAPcg38dRmmtI-337" value="" style="rounded=0;whiteSpace=wrap;html=1;strokeColor=none;connectable=0;allowArrows=0;fillColor=#d93b96;" vertex="1" parent="1">
          <mxGeometry x="440" y="50" width="30" height="90" as="geometry" />
        </mxCell>
        <mxCell id="s-IoeQ7TAPcg38dRmmtI-338" value="" style="rounded=0;whiteSpace=wrap;html=1;strokeColor=none;connectable=0;allowArrows=0;fillColor=#d93b96;" vertex="1" parent="1">
          <mxGeometry x="440" y="-40" width="30" height="90" as="geometry" />
        </mxCell>
        <mxCell id="s-IoeQ7TAPcg38dRmmtI-316" value="" style="rounded=0;whiteSpace=wrap;html=1;fillColor=#cce6cf;fillStyle=solid;strokeColor=none;strokeWidth=3;connectable=0;allowArrows=0;" vertex="1" parent="1">
          <mxGeometry x="330" y="-130" width="140" height="90" as="geometry" />
        </mxCell>
        <mxCell id="s-IoeQ7TAPcg38dRmmtI-182" value="" style="rounded=0;whiteSpace=wrap;html=1;fillColor=#cce6cf;fillStyle=solid;strokeColor=none;strokeWidth=3;connectable=0;allowArrows=0;" vertex="1" parent="1">
          <mxGeometry x="1280.5" y="320" width="139.5" height="140" as="geometry" />
        </mxCell>
        <mxCell id="s-IoeQ7TAPcg38dRmmtI-180" value="&lt;p style=&quot;line-height: 80%;&quot;&gt;&lt;font style=&quot;font-size: 10px;&quot;&gt;COLLECT&lt;br style=&quot;&quot;&gt;&lt;strike style=&quot;&quot;&gt;&lt;font style=&quot;font-size: 10px;&quot; face=&quot;Comic Sans MS&quot;&gt;M&lt;/font&gt;&lt;/strike&gt;&amp;nbsp;200 SALARY&lt;br style=&quot;&quot;&gt;AS YOU PASS&lt;/font&gt;&lt;/p&gt;" style="text;html=1;align=center;verticalAlign=middle;whiteSpace=wrap;rounded=0;fontSize=16;allowArrows=0;connectable=0;rotation=-45;textShadow=1;" vertex="1" parent="1">
          <mxGeometry x="1280" y="343" width="77.14" height="34.285714285714285" as="geometry" />
        </mxCell>
        <mxCell id="s-IoeQ7TAPcg38dRmmtI-146" value="" style="rounded=0;whiteSpace=wrap;html=1;fillColor=#cce6cf;fillStyle=solid;strokeColor=none;strokeWidth=3;connectable=0;allowArrows=0;" vertex="1" parent="1">
          <mxGeometry x="330" y="320" width="139.5" height="140" as="geometry" />
        </mxCell>
        <mxCell id="s-IoeQ7TAPcg38dRmmtI-57" value="" style="rounded=0;whiteSpace=wrap;html=1;fillColor=#cce6cf;fillStyle=solid;strokeColor=none;strokeWidth=3;connectable=0;allowArrows=0;" vertex="1" parent="1">
          <mxGeometry x="560" y="320" width="90" height="140" as="geometry" />
        </mxCell>
        <mxCell id="s-IoeQ7TAPcg38dRmmtI-63" value="" style="rounded=0;whiteSpace=wrap;html=1;fillColor=#cce6cf;fillStyle=solid;strokeColor=none;strokeWidth=3;connectable=0;allowArrows=0;" vertex="1" parent="1">
          <mxGeometry x="470" y="320" width="90" height="140" as="geometry" />
        </mxCell>
        <mxCell id="s-IoeQ7TAPcg38dRmmtI-124" value="" style="rounded=0;whiteSpace=wrap;html=1;strokeColor=none;connectable=0;allowArrows=0;fillColor=#aadffc;" vertex="1" parent="1">
          <mxGeometry x="560" y="320" width="90" height="30" as="geometry" />
        </mxCell>
        <mxCell id="s-IoeQ7TAPcg38dRmmtI-125" value="" style="rounded=0;whiteSpace=wrap;html=1;strokeColor=none;connectable=0;allowArrows=0;fillColor=#aadffc;" vertex="1" parent="1">
          <mxGeometry x="470" y="320" width="90" height="30" as="geometry" />
        </mxCell>
        <mxCell id="s-IoeQ7TAPcg38dRmmtI-13" value="" style="rounded=0;whiteSpace=wrap;html=1;fillColor=#cce6cf;fillStyle=solid;strokeColor=none;strokeWidth=3;connectable=0;allowArrows=0;" vertex="1" parent="1">
          <mxGeometry x="1100" y="320" width="90" height="140" as="geometry" />
        </mxCell>
        <mxCell id="s-IoeQ7TAPcg38dRmmtI-21" value="COMMUNITY&lt;br&gt;CHEST" style="text;html=1;align=center;verticalAlign=top;whiteSpace=wrap;rounded=0;allowArrows=0;connectable=0;fontSize=11;textShadow=1;" vertex="1" parent="1">
          <mxGeometry x="1100" y="320" width="90" height="50" as="geometry" />
        </mxCell>
        <mxCell id="s-IoeQ7TAPcg38dRmmtI-23" value="" style="rounded=0;whiteSpace=wrap;html=1;fillColor=#cce6cf;fillStyle=solid;strokeColor=none;strokeWidth=3;connectable=0;allowArrows=0;" vertex="1" parent="1">
          <mxGeometry x="1190" y="320" width="90" height="140" as="geometry" />
        </mxCell>
        <mxCell id="s-IoeQ7TAPcg38dRmmtI-24" value="" style="rounded=0;whiteSpace=wrap;html=1;strokeColor=none;connectable=0;allowArrows=0;fillColor=#955436;" vertex="1" parent="1">
          <mxGeometry x="1190" y="320" width="90" height="30" as="geometry" />
        </mxCell>
        <mxCell id="s-IoeQ7TAPcg38dRmmtI-28" value="" style="endArrow=none;html=1;rounded=0;strokeWidth=2;entryX=0;entryY=0;entryDx=0;entryDy=0;bendable=0;" edge="1" parent="1">
          <mxGeometry width="50" height="50" relative="1" as="geometry">
            <mxPoint x="1280" y="350" as="sourcePoint" />
            <mxPoint x="1190" y="350" as="targetPoint" />
          </mxGeometry>
        </mxCell>
        <mxCell id="s-IoeQ7TAPcg38dRmmtI-29" value="&lt;strike style=&quot;font-size: 11px;&quot;&gt;&lt;font face=&quot;Comic Sans MS&quot; style=&quot;font-size: 11px;&quot;&gt;M&lt;/font&gt;&lt;/strike&gt;&lt;font face=&quot;Comic Sans MS&quot; style=&quot;font-size: 11px;&quot;&gt;&amp;nbsp;60&lt;/font&gt;" style="text;html=1;align=center;verticalAlign=middle;whiteSpace=wrap;rounded=0;connectable=0;allowArrows=0;fontSize=11;textShadow=1;" vertex="1" parent="1">
          <mxGeometry x="1190" y="430" width="90" height="30" as="geometry" />
        </mxCell>
        <mxCell id="s-IoeQ7TAPcg38dRmmtI-30" value="MEDITER-&lt;br style=&quot;font-size: 11px;&quot;&gt;RANEAN&lt;br style=&quot;font-size: 11px;&quot;&gt;AVENUE" style="text;html=1;align=center;verticalAlign=top;whiteSpace=wrap;rounded=0;allowArrows=0;connectable=0;fontSize=11;textShadow=1;" vertex="1" parent="1">
          <mxGeometry x="1190" y="360" width="90" height="70" as="geometry" />
        </mxCell>
        <mxCell id="s-IoeQ7TAPcg38dRmmtI-32" value="" style="rounded=0;whiteSpace=wrap;html=1;fillColor=#cce6cf;fillStyle=solid;strokeColor=none;strokeWidth=3;connectable=0;allowArrows=0;" vertex="1" parent="1">
          <mxGeometry x="650" y="320" width="90" height="140" as="geometry" />
        </mxCell>
        <mxCell id="s-IoeQ7TAPcg38dRmmtI-39" value="" style="rounded=0;whiteSpace=wrap;html=1;fillColor=#cce6cf;fillStyle=solid;strokeColor=none;strokeWidth=3;connectable=0;allowArrows=0;" vertex="1" parent="1">
          <mxGeometry x="1010" y="320" width="90" height="140" as="geometry" />
        </mxCell>
        <mxCell id="s-IoeQ7TAPcg38dRmmtI-40" value="" style="rounded=0;whiteSpace=wrap;html=1;strokeColor=none;connectable=0;allowArrows=0;fillColor=#955436;" vertex="1" parent="1">
          <mxGeometry x="1010" y="320" width="90" height="30" as="geometry" />
        </mxCell>
        <mxCell id="s-IoeQ7TAPcg38dRmmtI-42" value="" style="endArrow=none;html=1;rounded=0;strokeWidth=2;entryX=0;entryY=0;entryDx=0;entryDy=0;bendable=0;" edge="1" parent="1">
          <mxGeometry width="50" height="50" relative="1" as="geometry">
            <mxPoint x="1100" y="350" as="sourcePoint" />
            <mxPoint x="1010" y="350" as="targetPoint" />
          </mxGeometry>
        </mxCell>
        <mxCell id="s-IoeQ7TAPcg38dRmmtI-43" value="&lt;strike style=&quot;font-size: 11px;&quot;&gt;&lt;font face=&quot;Comic Sans MS&quot; style=&quot;font-size: 11px;&quot;&gt;M&lt;/font&gt;&lt;/strike&gt;&lt;font face=&quot;Comic Sans MS&quot; style=&quot;font-size: 11px;&quot;&gt;&amp;nbsp;60&lt;/font&gt;" style="text;html=1;align=center;verticalAlign=middle;whiteSpace=wrap;rounded=0;connectable=0;allowArrows=0;fontSize=11;textShadow=1;" vertex="1" parent="1">
          <mxGeometry x="1010" y="430" width="90" height="30" as="geometry" />
        </mxCell>
        <mxCell id="s-IoeQ7TAPcg38dRmmtI-44" value="BALTIC&lt;br&gt;AVENUE" style="text;html=1;align=center;verticalAlign=top;whiteSpace=wrap;rounded=0;allowArrows=0;connectable=0;fontSize=11;textShadow=1;" vertex="1" parent="1">
          <mxGeometry x="1010" y="360" width="90" height="70" as="geometry" />
        </mxCell>
        <mxCell id="s-IoeQ7TAPcg38dRmmtI-45" value="" style="rounded=0;whiteSpace=wrap;html=1;fillColor=#cce6cf;fillStyle=solid;strokeColor=none;strokeWidth=3;connectable=0;allowArrows=0;" vertex="1" parent="1">
          <mxGeometry x="920" y="320" width="90" height="140" as="geometry" />
        </mxCell>
        <mxCell id="s-IoeQ7TAPcg38dRmmtI-49" value="&lt;font face=&quot;Helvetica&quot;&gt;PAY&lt;/font&gt;&lt;font face=&quot;Verdana&quot;&gt;&amp;nbsp;&lt;/font&gt;&lt;strike style=&quot;font-size: 11px;&quot;&gt;&lt;font face=&quot;Comic Sans MS&quot; style=&quot;font-size: 11px;&quot;&gt;M&lt;/font&gt;&lt;/strike&gt;&lt;font face=&quot;Comic Sans MS&quot; style=&quot;font-size: 11px;&quot;&gt;&amp;nbsp;200&lt;/font&gt;" style="text;html=1;align=center;verticalAlign=middle;whiteSpace=wrap;rounded=0;connectable=0;allowArrows=0;fontSize=11;textShadow=1;" vertex="1" parent="1">
          <mxGeometry x="920" y="430" width="90" height="30" as="geometry" />
        </mxCell>
        <mxCell id="s-IoeQ7TAPcg38dRmmtI-50" value="&lt;font style=&quot;font-size: 13px;&quot;&gt;INCOME&lt;br&gt;TAX&lt;/font&gt;" style="text;html=1;align=center;verticalAlign=top;whiteSpace=wrap;rounded=0;allowArrows=0;connectable=0;fontSize=11;textShadow=1;" vertex="1" parent="1">
          <mxGeometry x="920" y="320" width="90" height="50" as="geometry" />
        </mxCell>
        <mxCell id="s-IoeQ7TAPcg38dRmmtI-51" value="" style="rounded=0;whiteSpace=wrap;html=1;fillColor=#cce6cf;fillStyle=solid;strokeColor=none;strokeWidth=3;connectable=0;allowArrows=0;" vertex="1" parent="1">
          <mxGeometry x="830" y="320" width="90" height="140" as="geometry" />
        </mxCell>
        <mxCell id="s-IoeQ7TAPcg38dRmmtI-55" value="&lt;strike style=&quot;font-size: 11px;&quot;&gt;&lt;font face=&quot;Comic Sans MS&quot; style=&quot;font-size: 11px;&quot;&gt;M&lt;/font&gt;&lt;/strike&gt;&lt;font face=&quot;Comic Sans MS&quot; style=&quot;font-size: 11px;&quot;&gt;&amp;nbsp;200&lt;/font&gt;" style="text;html=1;align=center;verticalAlign=middle;whiteSpace=wrap;rounded=0;connectable=0;allowArrows=0;fontSize=11;textShadow=1;" vertex="1" parent="1">
          <mxGeometry x="830" y="430" width="90" height="30" as="geometry" />
        </mxCell>
        <mxCell id="s-IoeQ7TAPcg38dRmmtI-56" value="READING&lt;br&gt;RAILROAD" style="text;html=1;align=center;verticalAlign=top;whiteSpace=wrap;rounded=0;allowArrows=0;connectable=0;fontSize=11;textShadow=1;" vertex="1" parent="1">
          <mxGeometry x="830" y="320" width="90" height="50" as="geometry" />
        </mxCell>
        <mxCell id="s-IoeQ7TAPcg38dRmmtI-60" value="" style="endArrow=none;html=1;rounded=0;strokeWidth=2;entryX=0;entryY=0;entryDx=0;entryDy=0;bendable=0;" edge="1" parent="1">
          <mxGeometry width="50" height="50" relative="1" as="geometry">
            <mxPoint x="650" y="350" as="sourcePoint" />
            <mxPoint x="560" y="350" as="targetPoint" />
          </mxGeometry>
        </mxCell>
        <mxCell id="s-IoeQ7TAPcg38dRmmtI-61" value="&lt;strike style=&quot;font-size: 11px;&quot;&gt;&lt;font face=&quot;Comic Sans MS&quot; style=&quot;font-size: 11px;&quot;&gt;M&lt;/font&gt;&lt;/strike&gt;&lt;font face=&quot;Comic Sans MS&quot; style=&quot;font-size: 11px;&quot;&gt;&amp;nbsp;100&lt;/font&gt;" style="text;html=1;align=center;verticalAlign=middle;whiteSpace=wrap;rounded=0;connectable=0;allowArrows=0;fontSize=11;textShadow=1;" vertex="1" parent="1">
          <mxGeometry x="560" y="430" width="90" height="30" as="geometry" />
        </mxCell>
        <mxCell id="s-IoeQ7TAPcg38dRmmtI-62" value="VERMONT&lt;br&gt;AVENUE" style="text;html=1;align=center;verticalAlign=top;whiteSpace=wrap;rounded=0;allowArrows=0;connectable=0;fontSize=11;textShadow=1;" vertex="1" parent="1">
          <mxGeometry x="560" y="360" width="90" height="70" as="geometry" />
        </mxCell>
        <mxCell id="s-IoeQ7TAPcg38dRmmtI-66" value="" style="endArrow=none;html=1;rounded=0;strokeWidth=2;entryX=0;entryY=0;entryDx=0;entryDy=0;bendable=0;" edge="1" parent="1">
          <mxGeometry width="50" height="50" relative="1" as="geometry">
            <mxPoint x="560" y="350" as="sourcePoint" />
            <mxPoint x="470" y="350" as="targetPoint" />
          </mxGeometry>
        </mxCell>
        <mxCell id="s-IoeQ7TAPcg38dRmmtI-67" value="&lt;strike style=&quot;font-size: 11px;&quot;&gt;&lt;font face=&quot;Comic Sans MS&quot; style=&quot;font-size: 11px;&quot;&gt;M&lt;/font&gt;&lt;/strike&gt;&lt;font face=&quot;Comic Sans MS&quot; style=&quot;font-size: 11px;&quot;&gt;&amp;nbsp;120&lt;/font&gt;" style="text;html=1;align=center;verticalAlign=middle;whiteSpace=wrap;rounded=0;connectable=0;allowArrows=0;fontSize=11;textShadow=1;" vertex="1" parent="1">
          <mxGeometry x="470" y="430" width="90" height="30" as="geometry" />
        </mxCell>
        <mxCell id="s-IoeQ7TAPcg38dRmmtI-68" value="CONNECTICUT&lt;br&gt;AVENUE" style="text;html=1;align=center;verticalAlign=top;whiteSpace=wrap;rounded=0;allowArrows=0;connectable=0;fontSize=11;textShadow=1;" vertex="1" parent="1">
          <mxGeometry x="470" y="360" width="90" height="70" as="geometry" />
        </mxCell>
        <mxCell id="s-IoeQ7TAPcg38dRmmtI-69" value="" style="rounded=0;whiteSpace=wrap;html=1;fillColor=#cce6cf;fillStyle=solid;strokeColor=none;strokeWidth=3;connectable=0;allowArrows=0;" vertex="1" parent="1">
          <mxGeometry x="740" y="320" width="90" height="140" as="geometry" />
        </mxCell>
        <mxCell id="s-IoeQ7TAPcg38dRmmtI-70" value="" style="rounded=0;whiteSpace=wrap;html=1;strokeColor=none;connectable=0;allowArrows=0;fillColor=#aadffc;" vertex="1" parent="1">
          <mxGeometry x="740" y="320" width="90" height="30" as="geometry" />
        </mxCell>
        <mxCell id="s-IoeQ7TAPcg38dRmmtI-72" value="" style="endArrow=none;html=1;rounded=0;strokeWidth=2;entryX=0;entryY=0;entryDx=0;entryDy=0;bendable=0;" edge="1" parent="1">
          <mxGeometry width="50" height="50" relative="1" as="geometry">
            <mxPoint x="829.5" y="350" as="sourcePoint" />
            <mxPoint x="739.5" y="350" as="targetPoint" />
          </mxGeometry>
        </mxCell>
        <mxCell id="s-IoeQ7TAPcg38dRmmtI-73" value="&lt;strike style=&quot;font-size: 11px;&quot;&gt;&lt;font face=&quot;Comic Sans MS&quot; style=&quot;font-size: 11px;&quot;&gt;M&lt;/font&gt;&lt;/strike&gt;&lt;font face=&quot;Comic Sans MS&quot; style=&quot;font-size: 11px;&quot;&gt;&amp;nbsp;100&lt;/font&gt;" style="text;html=1;align=center;verticalAlign=middle;whiteSpace=wrap;rounded=0;connectable=0;allowArrows=0;fontSize=11;textShadow=1;" vertex="1" parent="1">
          <mxGeometry x="740" y="430" width="90" height="30" as="geometry" />
        </mxCell>
        <mxCell id="s-IoeQ7TAPcg38dRmmtI-74" value="MEDITER-&lt;br style=&quot;font-size: 11px;&quot;&gt;RANEAN&lt;br style=&quot;font-size: 11px;&quot;&gt;AVENUE" style="text;html=1;align=center;verticalAlign=top;whiteSpace=wrap;rounded=0;allowArrows=0;connectable=0;fontSize=11;textShadow=1;" vertex="1" parent="1">
          <mxGeometry x="740" y="360" width="90" height="70" as="geometry" />
        </mxCell>
        <mxCell id="s-IoeQ7TAPcg38dRmmtI-16" value="" style="endArrow=none;html=1;rounded=0;strokeWidth=2;entryX=1;entryY=0;entryDx=0;entryDy=0;exitX=1;exitY=1;exitDx=0;exitDy=0;bendable=0;" edge="1" parent="1">
          <mxGeometry width="50" height="50" relative="1" as="geometry">
            <mxPoint x="1100" y="460" as="sourcePoint" />
            <mxPoint x="1100" y="320" as="targetPoint" />
          </mxGeometry>
        </mxCell>
        <mxCell id="s-IoeQ7TAPcg38dRmmtI-35" value="" style="endArrow=none;html=1;rounded=0;strokeWidth=2;entryX=1;entryY=0;entryDx=0;entryDy=0;exitX=1;exitY=1;exitDx=0;exitDy=0;bendable=0;" edge="1" parent="1">
          <mxGeometry width="50" height="50" relative="1" as="geometry">
            <mxPoint x="650" y="460" as="sourcePoint" />
            <mxPoint x="650" y="320" as="targetPoint" />
          </mxGeometry>
        </mxCell>
        <mxCell id="s-IoeQ7TAPcg38dRmmtI-41" value="" style="endArrow=none;html=1;rounded=0;strokeWidth=2;entryX=1;entryY=0;entryDx=0;entryDy=0;exitX=1;exitY=1;exitDx=0;exitDy=0;bendable=0;" edge="1" parent="1">
          <mxGeometry width="50" height="50" relative="1" as="geometry">
            <mxPoint x="1010" y="460" as="sourcePoint" />
            <mxPoint x="1010" y="320" as="targetPoint" />
          </mxGeometry>
        </mxCell>
        <mxCell id="s-IoeQ7TAPcg38dRmmtI-47" value="" style="endArrow=none;html=1;rounded=0;strokeWidth=2;entryX=1;entryY=0;entryDx=0;entryDy=0;exitX=1;exitY=1;exitDx=0;exitDy=0;bendable=0;" edge="1" parent="1">
          <mxGeometry width="50" height="50" relative="1" as="geometry">
            <mxPoint x="920" y="460" as="sourcePoint" />
            <mxPoint x="920" y="320" as="targetPoint" />
          </mxGeometry>
        </mxCell>
        <mxCell id="s-IoeQ7TAPcg38dRmmtI-53" value="" style="endArrow=none;html=1;rounded=0;strokeWidth=2;entryX=1;entryY=0;entryDx=0;entryDy=0;exitX=1;exitY=1;exitDx=0;exitDy=0;bendable=0;" edge="1" parent="1">
          <mxGeometry width="50" height="50" relative="1" as="geometry">
            <mxPoint x="830" y="460" as="sourcePoint" />
            <mxPoint x="830" y="320" as="targetPoint" />
          </mxGeometry>
        </mxCell>
        <mxCell id="s-IoeQ7TAPcg38dRmmtI-59" value="" style="endArrow=none;html=1;rounded=0;strokeWidth=2;entryX=1;entryY=0;entryDx=0;entryDy=0;exitX=1;exitY=1;exitDx=0;exitDy=0;bendable=0;" edge="1" parent="1">
          <mxGeometry width="50" height="50" relative="1" as="geometry">
            <mxPoint x="560" y="460" as="sourcePoint" />
            <mxPoint x="560" y="320" as="targetPoint" />
          </mxGeometry>
        </mxCell>
        <mxCell id="s-IoeQ7TAPcg38dRmmtI-71" value="" style="endArrow=none;html=1;rounded=0;strokeWidth=2;entryX=1;entryY=0;entryDx=0;entryDy=0;exitX=1;exitY=1;exitDx=0;exitDy=0;bendable=0;" edge="1" parent="1">
          <mxGeometry width="50" height="50" relative="1" as="geometry">
            <mxPoint x="740" y="460" as="sourcePoint" />
            <mxPoint x="740" y="320" as="targetPoint" />
          </mxGeometry>
        </mxCell>
        <mxCell id="s-IoeQ7TAPcg38dRmmtI-27" value="" style="endArrow=none;html=1;rounded=0;strokeWidth=2;bendable=0;" edge="1" parent="1">
          <mxGeometry width="50" height="50" relative="1" as="geometry">
            <mxPoint x="1420" y="460" as="sourcePoint" />
            <mxPoint x="330" y="460" as="targetPoint" />
          </mxGeometry>
        </mxCell>
        <mxCell id="s-IoeQ7TAPcg38dRmmtI-126" value="CHANCE" style="text;html=1;align=center;verticalAlign=top;whiteSpace=wrap;rounded=0;allowArrows=0;connectable=0;fontSize=11;textShadow=1;" vertex="1" parent="1">
          <mxGeometry x="650" y="330" width="90" height="20" as="geometry" />
        </mxCell>
        <mxCell id="s-IoeQ7TAPcg38dRmmtI-129" value="&lt;font face=&quot;Times New Roman&quot; color=&quot;#d93b96&quot; style=&quot;font-size: 90px;&quot;&gt;&lt;b style=&quot;&quot;&gt;?&lt;/b&gt;&lt;/font&gt;" style="text;html=1;align=center;verticalAlign=middle;resizable=0;points=[];autosize=1;strokeColor=none;fillColor=none;textShadow=1;" vertex="1" parent="1">
          <mxGeometry x="660" y="335" width="70" height="120" as="geometry" />
        </mxCell>
        <mxCell id="s-IoeQ7TAPcg38dRmmtI-147" value="" style="endArrow=none;html=1;rounded=0;strokeWidth=2;bendable=0;" edge="1" parent="1">
          <mxGeometry width="50" height="50" relative="1" as="geometry">
            <mxPoint x="330" y="460" as="sourcePoint" />
            <mxPoint x="330" y="-630" as="targetPoint" />
          </mxGeometry>
        </mxCell>
        <mxCell id="s-IoeQ7TAPcg38dRmmtI-149" value="" style="rounded=0;whiteSpace=wrap;html=1;fillColor=#f8931d;fillStyle=solid;strokeColor=none;strokeWidth=3;connectable=0;allowArrows=0;" vertex="1" parent="1">
          <mxGeometry x="370" y="320" width="100" height="100" as="geometry" />
        </mxCell>
        <mxCell id="s-IoeQ7TAPcg38dRmmtI-165" value="" style="endArrow=none;html=1;rounded=0;strokeWidth=2;bendable=0;" edge="1" parent="1">
          <mxGeometry width="50" height="50" relative="1" as="geometry">
            <mxPoint x="370" y="320" as="sourcePoint" />
            <mxPoint x="370" y="420" as="targetPoint" />
          </mxGeometry>
        </mxCell>
        <mxCell id="s-IoeQ7TAPcg38dRmmtI-166" value="&lt;font style=&quot;font-size: 13px;&quot;&gt;JUST&lt;/font&gt;" style="text;html=1;align=center;verticalAlign=middle;whiteSpace=wrap;rounded=0;rotation=90;connectable=0;allowArrows=0;textShadow=1;" vertex="1" parent="1">
          <mxGeometry x="300" y="350" width="100" height="40" as="geometry" />
        </mxCell>
        <mxCell id="s-IoeQ7TAPcg38dRmmtI-167" value="&lt;font style=&quot;font-size: 13px;&quot;&gt;VISITING&lt;/font&gt;" style="text;html=1;align=center;verticalAlign=middle;whiteSpace=wrap;rounded=0;rotation=0;allowArrows=0;connectable=0;textShadow=1;" vertex="1" parent="1">
          <mxGeometry x="370" y="420" width="100" height="40" as="geometry" />
        </mxCell>
        <mxCell id="s-IoeQ7TAPcg38dRmmtI-183" value="" style="endArrow=none;html=1;rounded=0;strokeWidth=2;exitX=1;exitY=1;exitDx=0;exitDy=0;bendable=0;" edge="1" parent="1">
          <mxGeometry width="50" height="50" relative="1" as="geometry">
            <mxPoint x="1420" y="460.89" as="sourcePoint" />
            <mxPoint x="1420" y="-630" as="targetPoint" />
          </mxGeometry>
        </mxCell>
        <mxCell id="s-IoeQ7TAPcg38dRmmtI-202" value="" style="shape=mxgraph.arrows.slender_wide_tailed_arrow;html=1;verticalLabelPosition=bottom;verticalAlign=top;strokeWidth=2;strokeColor=#000000;fillColor=#f01923;connectable=0;allowArrows=0;shadow=1;" vertex="1" parent="1">
          <mxGeometry x="1300" y="436.04" width="100" height="17.92" as="geometry" />
        </mxCell>
        <mxCell id="s-IoeQ7TAPcg38dRmmtI-169" value="" style="rounded=0;whiteSpace=wrap;html=1;strokeColor=none;fillColor=#000000;connectable=0;allowArrows=0;rotation=-45;shadow=1;" vertex="1" parent="1">
          <mxGeometry x="1324" y="392" width="8.571111111111112" height="51.42857142857142" as="geometry" />
        </mxCell>
        <mxCell id="s-IoeQ7TAPcg38dRmmtI-170" value="" style="rounded=0;whiteSpace=wrap;html=1;strokeColor=none;fillColor=#000000;rotation=45;connectable=0;allowArrows=0;shadow=1;" vertex="1" parent="1">
          <mxGeometry x="1348.45" y="407.19" width="8.57" height="33" as="geometry" />
        </mxCell>
        <mxCell id="s-IoeQ7TAPcg38dRmmtI-171" value="" style="rounded=0;whiteSpace=wrap;html=1;strokeColor=none;fillColor=#000000;rotation=-225;connectable=0;allowArrows=0;shadow=1;" vertex="1" parent="1">
          <mxGeometry x="1349" y="392" width="8.571111111111112" height="30" as="geometry" />
        </mxCell>
        <mxCell id="s-IoeQ7TAPcg38dRmmtI-172" value="" style="rounded=0;whiteSpace=wrap;html=1;strokeColor=none;fillColor=#000000;rotation=-135;connectable=0;allowArrows=0;shadow=1;" vertex="1" parent="1">
          <mxGeometry x="1336.71" y="394.29" width="8.57" height="19.43" as="geometry" />
        </mxCell>
        <mxCell id="s-IoeQ7TAPcg38dRmmtI-174" value="" style="rounded=0;whiteSpace=wrap;html=1;strokeColor=none;fillColor=#000000;rotation=45;connectable=0;allowArrows=0;shadow=1;" vertex="1" parent="1">
          <mxGeometry x="1318" y="376" width="8.571111111111112" height="34.285714285714285" as="geometry" />
        </mxCell>
        <mxCell id="s-IoeQ7TAPcg38dRmmtI-175" value="" style="rounded=0;whiteSpace=wrap;html=1;strokeColor=none;fillColor=#000000;connectable=0;allowArrows=0;rotation=-45;shadow=1;" vertex="1" parent="1">
          <mxGeometry x="1353.77" y="362.09" width="8.57" height="50.77" as="geometry" />
        </mxCell>
        <mxCell id="s-IoeQ7TAPcg38dRmmtI-176" value="" style="rounded=0;whiteSpace=wrap;html=1;strokeColor=none;fillColor=#000000;connectable=0;allowArrows=0;rotation=-45;shadow=1;" vertex="1" parent="1">
          <mxGeometry x="1371.83" y="344.07" width="8.57" height="50.94" as="geometry" />
        </mxCell>
        <mxCell id="s-IoeQ7TAPcg38dRmmtI-177" value="" style="rounded=0;whiteSpace=wrap;html=1;strokeColor=none;fillColor=#000000;rotation=45;connectable=0;allowArrows=0;shadow=1;" vertex="1" parent="1">
          <mxGeometry x="1377.65" y="376.85" width="8.57" height="33.29" as="geometry" />
        </mxCell>
        <mxCell id="s-IoeQ7TAPcg38dRmmtI-178" value="" style="rounded=0;whiteSpace=wrap;html=1;strokeColor=none;fillColor=#000000;rotation=45;connectable=0;allowArrows=0;shadow=1;" vertex="1" parent="1">
          <mxGeometry x="1347.65" y="346.85" width="8.57" height="33.29" as="geometry" />
        </mxCell>
        <mxCell id="s-IoeQ7TAPcg38dRmmtI-309" value="" style="endArrow=none;html=1;rounded=0;strokeWidth=2;entryX=1;entryY=0;entryDx=0;entryDy=0;exitX=1;exitY=1;exitDx=0;exitDy=0;bendable=0;" edge="1" parent="1">
          <mxGeometry width="50" height="50" relative="1" as="geometry">
            <mxPoint x="1190" y="460" as="sourcePoint" />
            <mxPoint x="1190" y="320" as="targetPoint" />
          </mxGeometry>
        </mxCell>
        <mxCell id="s-IoeQ7TAPcg38dRmmtI-318" value="" style="endArrow=none;html=1;rounded=0;strokeWidth=2;entryX=0;entryY=0;entryDx=0;entryDy=0;bendable=0;" edge="1" parent="1">
          <mxGeometry width="50" height="50" relative="1" as="geometry">
            <mxPoint x="470" y="230" as="sourcePoint" />
            <mxPoint x="330" y="230" as="targetPoint" />
          </mxGeometry>
        </mxCell>
        <mxCell id="s-IoeQ7TAPcg38dRmmtI-319" value="" style="endArrow=none;html=1;rounded=0;strokeWidth=2;entryX=0;entryY=0;entryDx=0;entryDy=0;bendable=0;" edge="1" parent="1">
          <mxGeometry width="50" height="50" relative="1" as="geometry">
            <mxPoint x="470" y="140" as="sourcePoint" />
            <mxPoint x="330" y="140" as="targetPoint" />
          </mxGeometry>
        </mxCell>
        <mxCell id="s-IoeQ7TAPcg38dRmmtI-320" value="" style="endArrow=none;html=1;rounded=0;strokeWidth=2;entryX=0;entryY=0;entryDx=0;entryDy=0;bendable=0;" edge="1" parent="1">
          <mxGeometry width="50" height="50" relative="1" as="geometry">
            <mxPoint x="470" y="50" as="sourcePoint" />
            <mxPoint x="330" y="50" as="targetPoint" />
          </mxGeometry>
        </mxCell>
        <mxCell id="s-IoeQ7TAPcg38dRmmtI-321" value="" style="endArrow=none;html=1;rounded=0;strokeWidth=2;entryX=0;entryY=0;entryDx=0;entryDy=0;bendable=0;" edge="1" parent="1">
          <mxGeometry width="50" height="50" relative="1" as="geometry">
            <mxPoint x="470" y="-40" as="sourcePoint" />
            <mxPoint x="330" y="-40" as="targetPoint" />
          </mxGeometry>
        </mxCell>
        <mxCell id="s-IoeQ7TAPcg38dRmmtI-322" value="" style="endArrow=none;html=1;rounded=0;strokeWidth=2;entryX=0;entryY=0;entryDx=0;entryDy=0;bendable=0;" edge="1" parent="1">
          <mxGeometry width="50" height="50" relative="1" as="geometry">
            <mxPoint x="470" y="-130" as="sourcePoint" />
            <mxPoint x="330" y="-130" as="targetPoint" />
          </mxGeometry>
        </mxCell>
        <mxCell id="s-IoeQ7TAPcg38dRmmtI-323" value="" style="endArrow=none;html=1;rounded=0;strokeWidth=2;entryX=0;entryY=0;entryDx=0;entryDy=0;bendable=0;" edge="1" parent="1">
          <mxGeometry width="50" height="50" relative="1" as="geometry">
            <mxPoint x="470" y="-220" as="sourcePoint" />
            <mxPoint x="330" y="-220" as="targetPoint" />
          </mxGeometry>
        </mxCell>
        <mxCell id="s-IoeQ7TAPcg38dRmmtI-324" value="" style="endArrow=none;html=1;rounded=0;strokeWidth=2;entryX=0;entryY=0;entryDx=0;entryDy=0;bendable=0;" edge="1" parent="1">
          <mxGeometry width="50" height="50" relative="1" as="geometry">
            <mxPoint x="470" y="-310" as="sourcePoint" />
            <mxPoint x="330" y="-310" as="targetPoint" />
          </mxGeometry>
        </mxCell>
        <mxCell id="s-IoeQ7TAPcg38dRmmtI-325" value="" style="endArrow=none;html=1;rounded=0;strokeWidth=2;entryX=0;entryY=0;entryDx=0;entryDy=0;bendable=0;" edge="1" parent="1">
          <mxGeometry width="50" height="50" relative="1" as="geometry">
            <mxPoint x="470" y="-400" as="sourcePoint" />
            <mxPoint x="330" y="-400" as="targetPoint" />
          </mxGeometry>
        </mxCell>
        <mxCell id="s-IoeQ7TAPcg38dRmmtI-339" value="" style="endArrow=none;html=1;rounded=0;strokeWidth=2;exitX=1;exitY=1;exitDx=0;exitDy=0;bendable=0;" edge="1" parent="1">
          <mxGeometry width="50" height="50" relative="1" as="geometry">
            <mxPoint x="440" y="320" as="sourcePoint" />
            <mxPoint x="440" y="230" as="targetPoint" />
          </mxGeometry>
        </mxCell>
        <mxCell id="s-IoeQ7TAPcg38dRmmtI-340" value="" style="endArrow=none;html=1;rounded=0;strokeWidth=2;exitX=1;exitY=1;exitDx=0;exitDy=0;bendable=0;" edge="1" parent="1">
          <mxGeometry width="50" height="50" relative="1" as="geometry">
            <mxPoint x="440" y="140" as="sourcePoint" />
            <mxPoint x="440" y="50" as="targetPoint" />
          </mxGeometry>
        </mxCell>
        <mxCell id="s-IoeQ7TAPcg38dRmmtI-341" value="" style="endArrow=none;html=1;rounded=0;strokeWidth=2;exitX=1;exitY=1;exitDx=0;exitDy=0;bendable=0;" edge="1" parent="1">
          <mxGeometry width="50" height="50" relative="1" as="geometry">
            <mxPoint x="440" y="50" as="sourcePoint" />
            <mxPoint x="440" y="-40" as="targetPoint" />
          </mxGeometry>
        </mxCell>
        <mxCell id="s-IoeQ7TAPcg38dRmmtI-345" value="" style="endArrow=none;html=1;rounded=0;strokeWidth=2;exitX=1;exitY=1;exitDx=0;exitDy=0;bendable=0;" edge="1" parent="1">
          <mxGeometry width="50" height="50" relative="1" as="geometry">
            <mxPoint x="440" y="-310" as="sourcePoint" />
            <mxPoint x="440" y="-400" as="targetPoint" />
          </mxGeometry>
        </mxCell>
        <mxCell id="s-IoeQ7TAPcg38dRmmtI-346" value="" style="endArrow=none;html=1;rounded=0;strokeWidth=2;exitX=1;exitY=1;exitDx=0;exitDy=0;bendable=0;" edge="1" parent="1">
          <mxGeometry width="50" height="50" relative="1" as="geometry">
            <mxPoint x="440" y="-400" as="sourcePoint" />
            <mxPoint x="440" y="-490" as="targetPoint" />
          </mxGeometry>
        </mxCell>
        <mxCell id="s-IoeQ7TAPcg38dRmmtI-347" value="" style="endArrow=none;html=1;rounded=0;strokeWidth=2;exitX=1;exitY=1;exitDx=0;exitDy=0;bendable=0;" edge="1" parent="1">
          <mxGeometry width="50" height="50" relative="1" as="geometry">
            <mxPoint x="439.5" y="-130" as="sourcePoint" />
            <mxPoint x="440" y="-220" as="targetPoint" />
          </mxGeometry>
        </mxCell>
        <mxCell id="s-IoeQ7TAPcg38dRmmtI-414" value="" style="rounded=0;whiteSpace=wrap;html=1;fillColor=#cce6cf;fillStyle=solid;strokeColor=none;strokeWidth=3;connectable=0;allowArrows=0;" vertex="1" parent="1">
          <mxGeometry x="560" y="-630" width="90" height="140" as="geometry" />
        </mxCell>
        <mxCell id="s-IoeQ7TAPcg38dRmmtI-415" value="" style="rounded=0;whiteSpace=wrap;html=1;fillColor=#cce6cf;fillStyle=solid;strokeColor=none;strokeWidth=3;connectable=0;allowArrows=0;" vertex="1" parent="1">
          <mxGeometry x="470" y="-630" width="90" height="140" as="geometry" />
        </mxCell>
        <mxCell id="s-IoeQ7TAPcg38dRmmtI-416" value="" style="rounded=0;whiteSpace=wrap;html=1;strokeColor=none;connectable=0;allowArrows=0;fillColor=#aadffc;" vertex="1" parent="1">
          <mxGeometry x="650" y="-520" width="90" height="30" as="geometry" />
        </mxCell>
        <mxCell id="s-IoeQ7TAPcg38dRmmtI-417" value="" style="rounded=0;whiteSpace=wrap;html=1;strokeColor=none;connectable=0;allowArrows=0;fillColor=#aadffc;" vertex="1" parent="1">
          <mxGeometry x="470" y="-520" width="90" height="30" as="geometry" />
        </mxCell>
        <mxCell id="s-IoeQ7TAPcg38dRmmtI-418" value="" style="rounded=0;whiteSpace=wrap;html=1;fillColor=#cce6cf;fillStyle=solid;strokeColor=none;strokeWidth=3;connectable=0;allowArrows=0;" vertex="1" parent="1">
          <mxGeometry x="1100" y="-630" width="90" height="140" as="geometry" />
        </mxCell>
        <mxCell id="s-IoeQ7TAPcg38dRmmtI-419" value="WATER&lt;br&gt;WORKS" style="text;html=1;align=center;verticalAlign=top;whiteSpace=wrap;rounded=0;allowArrows=0;connectable=0;fontSize=11;textShadow=1;rotation=-180;" vertex="1" parent="1">
          <mxGeometry x="1100" y="-540" width="90" height="40" as="geometry" />
        </mxCell>
        <mxCell id="s-IoeQ7TAPcg38dRmmtI-421" value="" style="rounded=0;whiteSpace=wrap;html=1;strokeColor=none;connectable=0;allowArrows=0;fillColor=#955436;" vertex="1" parent="1">
          <mxGeometry x="1190" y="-520" width="90" height="30" as="geometry" />
        </mxCell>
        <mxCell id="s-IoeQ7TAPcg38dRmmtI-422" value="" style="endArrow=none;html=1;rounded=0;strokeWidth=2;entryX=0;entryY=0;entryDx=0;entryDy=0;bendable=0;" edge="1" parent="1">
          <mxGeometry width="50" height="50" relative="1" as="geometry">
            <mxPoint x="1280.5" y="-520.35" as="sourcePoint" />
            <mxPoint x="1190" y="-520" as="targetPoint" />
          </mxGeometry>
        </mxCell>
        <mxCell id="s-IoeQ7TAPcg38dRmmtI-423" value="&lt;strike style=&quot;font-size: 11px;&quot;&gt;&lt;font face=&quot;Comic Sans MS&quot; style=&quot;font-size: 11px;&quot;&gt;M&lt;/font&gt;&lt;/strike&gt;&lt;font face=&quot;Comic Sans MS&quot; style=&quot;font-size: 11px;&quot;&gt;&amp;nbsp;280&lt;/font&gt;" style="text;html=1;align=center;verticalAlign=middle;whiteSpace=wrap;rounded=0;connectable=0;allowArrows=0;fontSize=11;textShadow=1;rotation=-180;" vertex="1" parent="1">
          <mxGeometry x="1190" y="-630" width="90" height="30" as="geometry" />
        </mxCell>
        <mxCell id="s-IoeQ7TAPcg38dRmmtI-427" value="" style="rounded=0;whiteSpace=wrap;html=1;strokeColor=none;connectable=0;allowArrows=0;fillColor=#955436;" vertex="1" parent="1">
          <mxGeometry x="1010" y="-520" width="90" height="30" as="geometry" />
        </mxCell>
        <mxCell id="s-IoeQ7TAPcg38dRmmtI-428" value="" style="endArrow=none;html=1;rounded=0;strokeWidth=2;entryX=0;entryY=0;entryDx=0;entryDy=0;bendable=0;" edge="1" parent="1">
          <mxGeometry width="50" height="50" relative="1" as="geometry">
            <mxPoint x="1100.5" y="-520.35" as="sourcePoint" />
            <mxPoint x="1010" y="-520" as="targetPoint" />
          </mxGeometry>
        </mxCell>
        <mxCell id="s-IoeQ7TAPcg38dRmmtI-429" value="&lt;strike style=&quot;font-size: 11px;&quot;&gt;&lt;font face=&quot;Comic Sans MS&quot; style=&quot;font-size: 11px;&quot;&gt;M&lt;/font&gt;&lt;/strike&gt;&lt;font face=&quot;Comic Sans MS&quot; style=&quot;font-size: 11px;&quot;&gt;&amp;nbsp;260&lt;/font&gt;" style="text;html=1;align=center;verticalAlign=middle;whiteSpace=wrap;rounded=0;connectable=0;allowArrows=0;fontSize=11;textShadow=1;rotation=-180;" vertex="1" parent="1">
          <mxGeometry x="1010" y="-630" width="90" height="30" as="geometry" />
        </mxCell>
        <mxCell id="s-IoeQ7TAPcg38dRmmtI-434" value="" style="rounded=0;whiteSpace=wrap;html=1;fillColor=#cce6cf;fillStyle=solid;strokeColor=none;strokeWidth=3;connectable=0;allowArrows=0;" vertex="1" parent="1">
          <mxGeometry x="830" y="-630" width="90" height="140" as="geometry" />
        </mxCell>
        <mxCell id="s-IoeQ7TAPcg38dRmmtI-435" value="&lt;strike style=&quot;font-size: 11px;&quot;&gt;&lt;font face=&quot;Comic Sans MS&quot; style=&quot;font-size: 11px;&quot;&gt;M&lt;/font&gt;&lt;/strike&gt;&lt;font face=&quot;Comic Sans MS&quot; style=&quot;font-size: 11px;&quot;&gt;&amp;nbsp;200&lt;/font&gt;" style="text;html=1;align=center;verticalAlign=middle;whiteSpace=wrap;rounded=0;connectable=0;allowArrows=0;fontSize=11;rotation=-180;textShadow=1;" vertex="1" parent="1">
          <mxGeometry x="830" y="-630" width="90" height="30" as="geometry" />
        </mxCell>
        <mxCell id="s-IoeQ7TAPcg38dRmmtI-436" value="B. &amp;amp; O.&lt;br&gt;RAILROAD" style="text;html=1;align=center;verticalAlign=top;whiteSpace=wrap;rounded=0;allowArrows=0;connectable=0;fontSize=11;rotation=-180;textShadow=1;" vertex="1" parent="1">
          <mxGeometry x="830" y="-540" width="90" height="50" as="geometry" />
        </mxCell>
        <mxCell id="s-IoeQ7TAPcg38dRmmtI-437" value="" style="endArrow=none;html=1;rounded=0;strokeWidth=2;entryX=0;entryY=0;entryDx=0;entryDy=0;bendable=0;" edge="1" parent="1">
          <mxGeometry width="50" height="50" relative="1" as="geometry">
            <mxPoint x="740" y="-520" as="sourcePoint" />
            <mxPoint x="650" y="-520" as="targetPoint" />
          </mxGeometry>
        </mxCell>
        <mxCell id="s-IoeQ7TAPcg38dRmmtI-438" value="&lt;strike style=&quot;font-size: 11px;&quot;&gt;&lt;font face=&quot;Comic Sans MS&quot; style=&quot;font-size: 11px;&quot;&gt;M&lt;/font&gt;&lt;/strike&gt;&lt;font face=&quot;Comic Sans MS&quot; style=&quot;font-size: 11px;&quot;&gt;&amp;nbsp;220&lt;/font&gt;" style="text;html=1;align=center;verticalAlign=middle;whiteSpace=wrap;rounded=0;connectable=0;allowArrows=0;fontSize=11;textShadow=1;rotation=-180;" vertex="1" parent="1">
          <mxGeometry x="650" y="-630" width="90" height="30" as="geometry" />
        </mxCell>
        <mxCell id="s-IoeQ7TAPcg38dRmmtI-439" value="INDIANA&lt;br&gt;AVENUE" style="text;html=1;align=center;verticalAlign=top;whiteSpace=wrap;rounded=0;allowArrows=0;connectable=0;fontSize=11;textShadow=1;rotation=-180;" vertex="1" parent="1">
          <mxGeometry x="650" y="-600" width="90" height="70" as="geometry" />
        </mxCell>
        <mxCell id="s-IoeQ7TAPcg38dRmmtI-440" value="" style="endArrow=none;html=1;rounded=0;strokeWidth=2;entryX=0;entryY=0;entryDx=0;entryDy=0;bendable=0;" edge="1" parent="1">
          <mxGeometry width="50" height="50" relative="1" as="geometry">
            <mxPoint x="560" y="-520" as="sourcePoint" />
            <mxPoint x="470" y="-520" as="targetPoint" />
          </mxGeometry>
        </mxCell>
        <mxCell id="s-IoeQ7TAPcg38dRmmtI-441" value="&lt;strike style=&quot;font-size: 11px;&quot;&gt;&lt;font face=&quot;Comic Sans MS&quot; style=&quot;font-size: 11px;&quot;&gt;M&lt;/font&gt;&lt;/strike&gt;&lt;font face=&quot;Comic Sans MS&quot; style=&quot;font-size: 11px;&quot;&gt;&amp;nbsp;220&lt;/font&gt;" style="text;html=1;align=center;verticalAlign=middle;whiteSpace=wrap;rounded=0;connectable=0;allowArrows=0;fontSize=11;textShadow=1;rotation=-180;" vertex="1" parent="1">
          <mxGeometry x="470" y="-630" width="90" height="30" as="geometry" />
        </mxCell>
        <mxCell id="s-IoeQ7TAPcg38dRmmtI-442" value="KENTUCKY&lt;br&gt;AVENUE" style="text;html=1;align=center;verticalAlign=top;whiteSpace=wrap;rounded=0;allowArrows=0;connectable=0;fontSize=11;textShadow=1;rotation=-180;" vertex="1" parent="1">
          <mxGeometry x="470" y="-600" width="90" height="70" as="geometry" />
        </mxCell>
        <mxCell id="s-IoeQ7TAPcg38dRmmtI-443" value="" style="rounded=0;whiteSpace=wrap;html=1;fillColor=#cce6cf;fillStyle=solid;strokeColor=none;strokeWidth=3;connectable=0;allowArrows=0;" vertex="1" parent="1">
          <mxGeometry x="740" y="-630" width="90" height="140" as="geometry" />
        </mxCell>
        <mxCell id="s-IoeQ7TAPcg38dRmmtI-444" value="" style="rounded=0;whiteSpace=wrap;html=1;strokeColor=none;connectable=0;allowArrows=0;fillColor=#aadffc;" vertex="1" parent="1">
          <mxGeometry x="740" y="-520" width="90" height="30" as="geometry" />
        </mxCell>
        <mxCell id="s-IoeQ7TAPcg38dRmmtI-445" value="" style="endArrow=none;html=1;rounded=0;strokeWidth=2;entryX=0;entryY=0;entryDx=0;entryDy=0;bendable=0;" edge="1" parent="1">
          <mxGeometry width="50" height="50" relative="1" as="geometry">
            <mxPoint x="830" y="-520" as="sourcePoint" />
            <mxPoint x="740" y="-520" as="targetPoint" />
          </mxGeometry>
        </mxCell>
        <mxCell id="s-IoeQ7TAPcg38dRmmtI-446" value="&lt;strike style=&quot;font-size: 11px;&quot;&gt;&lt;font face=&quot;Comic Sans MS&quot; style=&quot;font-size: 11px;&quot;&gt;M&lt;/font&gt;&lt;/strike&gt;&lt;font face=&quot;Comic Sans MS&quot; style=&quot;font-size: 11px;&quot;&gt;&amp;nbsp;340&lt;/font&gt;" style="text;html=1;align=center;verticalAlign=middle;whiteSpace=wrap;rounded=0;connectable=0;allowArrows=0;fontSize=11;textShadow=1;rotation=-180;" vertex="1" parent="1">
          <mxGeometry x="740" y="-630" width="90" height="30" as="geometry" />
        </mxCell>
        <mxCell id="s-IoeQ7TAPcg38dRmmtI-447" value="ILLINOIS&lt;br&gt;AVENUE" style="text;html=1;align=center;verticalAlign=top;whiteSpace=wrap;rounded=0;allowArrows=0;connectable=0;fontSize=11;textShadow=1;rotation=-180;" vertex="1" parent="1">
          <mxGeometry x="740" y="-600" width="90" height="70" as="geometry" />
        </mxCell>
        <mxCell id="s-IoeQ7TAPcg38dRmmtI-448" value="" style="endArrow=none;html=1;rounded=0;strokeWidth=2;entryX=1;entryY=0;entryDx=0;entryDy=0;exitX=1;exitY=1;exitDx=0;exitDy=0;bendable=0;" edge="1" parent="1">
          <mxGeometry width="50" height="50" relative="1" as="geometry">
            <mxPoint x="1100" y="-490" as="sourcePoint" />
            <mxPoint x="1100" y="-630" as="targetPoint" />
          </mxGeometry>
        </mxCell>
        <mxCell id="s-IoeQ7TAPcg38dRmmtI-449" value="" style="endArrow=none;html=1;rounded=0;strokeWidth=2;entryX=1;entryY=0;entryDx=0;entryDy=0;exitX=1;exitY=1;exitDx=0;exitDy=0;bendable=0;" edge="1" parent="1">
          <mxGeometry width="50" height="50" relative="1" as="geometry">
            <mxPoint x="650" y="-490" as="sourcePoint" />
            <mxPoint x="650" y="-630" as="targetPoint" />
          </mxGeometry>
        </mxCell>
        <mxCell id="s-IoeQ7TAPcg38dRmmtI-450" value="" style="endArrow=none;html=1;rounded=0;strokeWidth=2;entryX=1;entryY=0;entryDx=0;entryDy=0;exitX=1;exitY=1;exitDx=0;exitDy=0;bendable=0;" edge="1" parent="1">
          <mxGeometry width="50" height="50" relative="1" as="geometry">
            <mxPoint x="1010" y="-490" as="sourcePoint" />
            <mxPoint x="1010" y="-630" as="targetPoint" />
          </mxGeometry>
        </mxCell>
        <mxCell id="s-IoeQ7TAPcg38dRmmtI-451" value="" style="endArrow=none;html=1;rounded=0;strokeWidth=2;entryX=1;entryY=0;entryDx=0;entryDy=0;exitX=1;exitY=1;exitDx=0;exitDy=0;bendable=0;" edge="1" parent="1">
          <mxGeometry width="50" height="50" relative="1" as="geometry">
            <mxPoint x="920" y="-490" as="sourcePoint" />
            <mxPoint x="920" y="-630" as="targetPoint" />
          </mxGeometry>
        </mxCell>
        <mxCell id="s-IoeQ7TAPcg38dRmmtI-452" value="" style="endArrow=none;html=1;rounded=0;strokeWidth=2;entryX=1;entryY=0;entryDx=0;entryDy=0;exitX=1;exitY=1;exitDx=0;exitDy=0;bendable=0;" edge="1" parent="1">
          <mxGeometry width="50" height="50" relative="1" as="geometry">
            <mxPoint x="830" y="-490" as="sourcePoint" />
            <mxPoint x="830" y="-630" as="targetPoint" />
          </mxGeometry>
        </mxCell>
        <mxCell id="s-IoeQ7TAPcg38dRmmtI-453" value="" style="endArrow=none;html=1;rounded=0;strokeWidth=2;entryX=1;entryY=0;entryDx=0;entryDy=0;exitX=1;exitY=1;exitDx=0;exitDy=0;bendable=0;" edge="1" parent="1">
          <mxGeometry width="50" height="50" relative="1" as="geometry">
            <mxPoint x="560" y="-490" as="sourcePoint" />
            <mxPoint x="560" y="-630" as="targetPoint" />
          </mxGeometry>
        </mxCell>
        <mxCell id="s-IoeQ7TAPcg38dRmmtI-454" value="" style="endArrow=none;html=1;rounded=0;strokeWidth=2;entryX=1;entryY=0;entryDx=0;entryDy=0;exitX=1;exitY=1;exitDx=0;exitDy=0;bendable=0;" edge="1" parent="1">
          <mxGeometry width="50" height="50" relative="1" as="geometry">
            <mxPoint x="740" y="-490" as="sourcePoint" />
            <mxPoint x="740" y="-630" as="targetPoint" />
          </mxGeometry>
        </mxCell>
        <mxCell id="s-IoeQ7TAPcg38dRmmtI-475" value="CHANCE" style="text;html=1;align=center;verticalAlign=top;whiteSpace=wrap;rounded=0;allowArrows=0;connectable=0;fontSize=11;rotation=-180;textShadow=1;" vertex="1" parent="1">
          <mxGeometry x="560" y="-540" width="90" height="40" as="geometry" />
        </mxCell>
        <mxCell id="s-IoeQ7TAPcg38dRmmtI-476" value="&lt;font color=&quot;#00aef9&quot; face=&quot;Times New Roman&quot; style=&quot;font-size: 90px;&quot;&gt;&lt;b style=&quot;&quot;&gt;?&lt;/b&gt;&lt;/font&gt;" style="text;html=1;align=center;verticalAlign=middle;resizable=0;points=[];autosize=1;strokeColor=none;fillColor=none;rotation=-180;perimeterSpacing=0;shadow=0;connectable=0;allowArrows=0;textShadow=1;labelBorderColor=none;labelBackgroundColor=none;" vertex="1" parent="1">
          <mxGeometry x="570" y="-630" width="70" height="120" as="geometry" />
        </mxCell>
        <mxCell id="s-IoeQ7TAPcg38dRmmtI-477" value="" style="endArrow=none;html=1;rounded=0;strokeWidth=2;entryX=1;entryY=0;entryDx=0;entryDy=0;exitX=1;exitY=1;exitDx=0;exitDy=0;bendable=0;" edge="1" parent="1">
          <mxGeometry width="50" height="50" relative="1" as="geometry">
            <mxPoint x="1190" y="-490" as="sourcePoint" />
            <mxPoint x="1190" y="-630" as="targetPoint" />
          </mxGeometry>
        </mxCell>
        <mxCell id="s-IoeQ7TAPcg38dRmmtI-478" value="" style="endArrow=none;html=1;rounded=0;strokeWidth=2;entryX=0;entryY=0;entryDx=0;entryDy=0;bendable=0;" edge="1" parent="1">
          <mxGeometry width="50" height="50" relative="1" as="geometry">
            <mxPoint x="1420" y="-630.5" as="sourcePoint" />
            <mxPoint x="330" y="-630.5" as="targetPoint" />
          </mxGeometry>
        </mxCell>
        <mxCell id="s-IoeQ7TAPcg38dRmmtI-348" value="" style="shape=mxgraph.signs.transportation.car_4;html=1;pointerEvents=1;fillColor=#f51624;strokeColor=default;verticalLabelPosition=bottom;verticalAlign=top;align=center;strokeWidth=3;rotation=135;connectable=0;allowArrows=0;shadow=1;" vertex="1" parent="1">
          <mxGeometry x="370" y="-593" width="60" height="60" as="geometry" />
        </mxCell>
        <mxCell id="s-IoeQ7TAPcg38dRmmtI-482" value="FREE" style="text;html=1;align=center;verticalAlign=middle;whiteSpace=wrap;rounded=0;rotation=135;allowArrows=0;connectable=0;textShadow=1;" vertex="1" parent="1">
          <mxGeometry x="398" y="-545" width="60" height="20" as="geometry" />
        </mxCell>
        <mxCell id="s-IoeQ7TAPcg38dRmmtI-483" value="PARKING" style="text;html=1;align=center;verticalAlign=middle;whiteSpace=wrap;rounded=0;rotation=135;allowArrows=0;connectable=0;textShadow=1;" vertex="1" parent="1">
          <mxGeometry x="342" y="-601" width="60" height="20" as="geometry" />
        </mxCell>
        <mxCell id="s-IoeQ7TAPcg38dRmmtI-491" value="" style="rounded=0;whiteSpace=wrap;html=1;strokeColor=none;connectable=0;allowArrows=0;fillColor=#20b25a;" vertex="1" parent="1">
          <mxGeometry x="1280" y="-220" width="30" height="90" as="geometry" />
        </mxCell>
        <mxCell id="s-IoeQ7TAPcg38dRmmtI-492" value="" style="rounded=0;whiteSpace=wrap;html=1;strokeColor=none;connectable=0;allowArrows=0;fillColor=#20b25a;" vertex="1" parent="1">
          <mxGeometry x="1280.5" y="-400" width="30" height="90" as="geometry" />
        </mxCell>
        <mxCell id="s-IoeQ7TAPcg38dRmmtI-493" value="" style="rounded=0;whiteSpace=wrap;html=1;strokeColor=none;connectable=0;allowArrows=0;fillColor=#20b25a;" vertex="1" parent="1">
          <mxGeometry x="1280" y="-490" width="30" height="90" as="geometry" />
        </mxCell>
        <mxCell id="s-IoeQ7TAPcg38dRmmtI-498" value="" style="rounded=0;whiteSpace=wrap;html=1;strokeColor=none;connectable=0;allowArrows=0;fillColor=#0072bc;" vertex="1" parent="1">
          <mxGeometry x="1280" y="230" width="30" height="90" as="geometry" />
        </mxCell>
        <mxCell id="s-IoeQ7TAPcg38dRmmtI-499" value="" style="rounded=0;whiteSpace=wrap;html=1;strokeColor=none;connectable=0;allowArrows=0;fillColor=#0072bc;" vertex="1" parent="1">
          <mxGeometry x="1280" y="50" width="30" height="90" as="geometry" />
        </mxCell>
        <mxCell id="s-IoeQ7TAPcg38dRmmtI-502" value="" style="endArrow=none;html=1;rounded=0;strokeWidth=2;entryX=0;entryY=0;entryDx=0;entryDy=0;bendable=0;" edge="1" parent="1">
          <mxGeometry width="50" height="50" relative="1" as="geometry">
            <mxPoint x="1420" y="230" as="sourcePoint" />
            <mxPoint x="1280" y="230" as="targetPoint" />
          </mxGeometry>
        </mxCell>
        <mxCell id="s-IoeQ7TAPcg38dRmmtI-503" value="" style="endArrow=none;html=1;rounded=0;strokeWidth=2;entryX=0;entryY=0;entryDx=0;entryDy=0;bendable=0;" edge="1" parent="1">
          <mxGeometry width="50" height="50" relative="1" as="geometry">
            <mxPoint x="1420" y="140" as="sourcePoint" />
            <mxPoint x="1280" y="140" as="targetPoint" />
          </mxGeometry>
        </mxCell>
        <mxCell id="s-IoeQ7TAPcg38dRmmtI-504" value="" style="endArrow=none;html=1;rounded=0;strokeWidth=2;entryX=0;entryY=0;entryDx=0;entryDy=0;bendable=0;" edge="1" parent="1">
          <mxGeometry width="50" height="50" relative="1" as="geometry">
            <mxPoint x="1420" y="50" as="sourcePoint" />
            <mxPoint x="1280" y="50" as="targetPoint" />
          </mxGeometry>
        </mxCell>
        <mxCell id="s-IoeQ7TAPcg38dRmmtI-505" value="" style="endArrow=none;html=1;rounded=0;strokeWidth=2;entryX=0;entryY=0;entryDx=0;entryDy=0;bendable=0;" edge="1" parent="1">
          <mxGeometry width="50" height="50" relative="1" as="geometry">
            <mxPoint x="1420" y="-40" as="sourcePoint" />
            <mxPoint x="1280" y="-40" as="targetPoint" />
          </mxGeometry>
        </mxCell>
        <mxCell id="s-IoeQ7TAPcg38dRmmtI-506" value="" style="endArrow=none;html=1;rounded=0;strokeWidth=2;entryX=0;entryY=0;entryDx=0;entryDy=0;bendable=0;" edge="1" parent="1">
          <mxGeometry width="50" height="50" relative="1" as="geometry">
            <mxPoint x="1420" y="-130" as="sourcePoint" />
            <mxPoint x="1280" y="-130" as="targetPoint" />
          </mxGeometry>
        </mxCell>
        <mxCell id="s-IoeQ7TAPcg38dRmmtI-507" value="" style="endArrow=none;html=1;rounded=0;strokeWidth=2;entryX=0;entryY=0;entryDx=0;entryDy=0;bendable=0;" edge="1" parent="1">
          <mxGeometry width="50" height="50" relative="1" as="geometry">
            <mxPoint x="1420" y="-220" as="sourcePoint" />
            <mxPoint x="1280" y="-220" as="targetPoint" />
          </mxGeometry>
        </mxCell>
        <mxCell id="s-IoeQ7TAPcg38dRmmtI-508" value="" style="endArrow=none;html=1;rounded=0;strokeWidth=2;entryX=0;entryY=0;entryDx=0;entryDy=0;bendable=0;" edge="1" parent="1">
          <mxGeometry width="50" height="50" relative="1" as="geometry">
            <mxPoint x="1420" y="-310" as="sourcePoint" />
            <mxPoint x="1280" y="-310" as="targetPoint" />
          </mxGeometry>
        </mxCell>
        <mxCell id="s-IoeQ7TAPcg38dRmmtI-509" value="" style="endArrow=none;html=1;rounded=0;strokeWidth=2;entryX=0;entryY=0;entryDx=0;entryDy=0;bendable=0;" edge="1" parent="1">
          <mxGeometry width="50" height="50" relative="1" as="geometry">
            <mxPoint x="1420" y="-400" as="sourcePoint" />
            <mxPoint x="1280" y="-400" as="targetPoint" />
          </mxGeometry>
        </mxCell>
        <mxCell id="s-IoeQ7TAPcg38dRmmtI-510" value="" style="endArrow=none;html=1;rounded=0;strokeWidth=2;exitX=1;exitY=1;exitDx=0;exitDy=0;bendable=0;" edge="1" parent="1">
          <mxGeometry width="50" height="50" relative="1" as="geometry">
            <mxPoint x="1310" y="320" as="sourcePoint" />
            <mxPoint x="1310" y="230" as="targetPoint" />
          </mxGeometry>
        </mxCell>
        <mxCell id="s-IoeQ7TAPcg38dRmmtI-511" value="" style="endArrow=none;html=1;rounded=0;strokeWidth=2;exitX=1;exitY=1;exitDx=0;exitDy=0;bendable=0;" edge="1" parent="1">
          <mxGeometry width="50" height="50" relative="1" as="geometry">
            <mxPoint x="1310" y="140" as="sourcePoint" />
            <mxPoint x="1310" y="50" as="targetPoint" />
          </mxGeometry>
        </mxCell>
        <mxCell id="s-IoeQ7TAPcg38dRmmtI-513" value="" style="endArrow=none;html=1;rounded=0;strokeWidth=2;exitX=1;exitY=1;exitDx=0;exitDy=0;bendable=0;" edge="1" parent="1">
          <mxGeometry width="50" height="50" relative="1" as="geometry">
            <mxPoint x="1310.5" y="-310" as="sourcePoint" />
            <mxPoint x="1310.5" y="-400" as="targetPoint" />
          </mxGeometry>
        </mxCell>
        <mxCell id="s-IoeQ7TAPcg38dRmmtI-514" value="" style="endArrow=none;html=1;rounded=0;strokeWidth=2;exitX=1;exitY=1;exitDx=0;exitDy=0;bendable=0;" edge="1" parent="1">
          <mxGeometry width="50" height="50" relative="1" as="geometry">
            <mxPoint x="1310.5" y="-400" as="sourcePoint" />
            <mxPoint x="1310.5" y="-490" as="targetPoint" />
          </mxGeometry>
        </mxCell>
        <mxCell id="s-IoeQ7TAPcg38dRmmtI-515" value="" style="endArrow=none;html=1;rounded=0;strokeWidth=2;exitX=1;exitY=1;exitDx=0;exitDy=0;bendable=0;" edge="1" parent="1">
          <mxGeometry width="50" height="50" relative="1" as="geometry">
            <mxPoint x="1310" y="-130" as="sourcePoint" />
            <mxPoint x="1310" y="-220" as="targetPoint" />
          </mxGeometry>
        </mxCell>
        <mxCell id="s-IoeQ7TAPcg38dRmmtI-25" value="" style="endArrow=none;html=1;rounded=0;strokeWidth=2;exitX=1;exitY=1;exitDx=0;exitDy=0;bendable=0;" edge="1" parent="1" source="s-IoeQ7TAPcg38dRmmtI-23">
          <mxGeometry width="50" height="50" relative="1" as="geometry">
            <mxPoint x="1370" y="340" as="sourcePoint" />
            <mxPoint x="1280" y="-630" as="targetPoint" />
          </mxGeometry>
        </mxCell>
        <mxCell id="s-IoeQ7TAPcg38dRmmtI-517" value="SHORT&lt;br&gt;LINE" style="text;html=1;align=center;verticalAlign=top;whiteSpace=wrap;rounded=0;allowArrows=0;connectable=0;fontSize=11;rotation=-90;textShadow=1;" vertex="1" parent="1">
          <mxGeometry x="1260" y="-110" width="90" height="50" as="geometry" />
        </mxCell>
        <mxCell id="s-IoeQ7TAPcg38dRmmtI-518" value="&lt;strike style=&quot;font-size: 11px;&quot;&gt;&lt;font face=&quot;Comic Sans MS&quot; style=&quot;font-size: 11px;&quot;&gt;M&lt;/font&gt;&lt;/strike&gt;&lt;font face=&quot;Comic Sans MS&quot; style=&quot;font-size: 11px;&quot;&gt;&amp;nbsp;200&lt;/font&gt;" style="text;html=1;align=center;verticalAlign=middle;whiteSpace=wrap;rounded=0;connectable=0;allowArrows=0;fontSize=11;rotation=-90;textShadow=1;" vertex="1" parent="1">
          <mxGeometry x="1360" y="-100" width="90" height="30" as="geometry" />
        </mxCell>
        <mxCell id="h-0-y1XXke3g4Fu3jNhB-20" value="" style="shape=image;verticalLabelPosition=bottom;labelBackgroundColor=default;verticalAlign=top;aspect=fixed;imageAspect=0;image=data:image/png,iVBORw0KGgoAAAANSUhEUgAAAaMAAAE1CAYAAABKqo+qAAAAAXNSR0IArs4c6QAAIABJREFUeAHtnQe4PEWVxY8EiQIqiCCIAROgYmBVggkz5ghmAV0FRcxpRcWAYFoVAwZWEMWAYI6rAoqKsi4IiEoygCAqEg2k3Tn838B78yb0dHdVV1f96vveN29Cd1edOrfOre6qeyXKOARWkfQ0SUcX/HeopM3HgcNnIAACIAACcRB4nqQLJf1fwX9XSDpB0iZxIOcqIAACIAACQwQ8I3qmpMslXVWwEFmELUZ+/R4zpCE9eAUBEACBOAh4RnTJwiCMGF0/M2SGFId/XAUEQKBwBBbPiIa35hCj68WIGVLhBkLzQQAE4iCweEaEGK0QoeFtuiEefmWGFIePXAUEQKAwBMbNiIaDLzOjpTOjIS48QyrMSGguCIBAeATGzYiGgy5iNF6MmCGF5yVXAAEQKASBaTMixGjybbohNn5lhlSIsdBMEACBcAhMmxENB1xmRpNnRkOMeIYUjqOcGQRAIGMEqsyIhgMtYjRbjJghZWwsNA0EQCAcAlVmRIhRtdt0Q5z8ygwpHGc5MwiAQEYIzDMjGg6yzIyqzYyGePEMKSODoSkgAAJhEJhnRjQcXBGj+cSIGVIY7nJWEACBDBCoMyNCjOa/TTfEzK/MkDIwHJoAAiDQLgK7S7pY0jU1/q6scczodRYP0l38P1qfed47AsM8v1/8259JukW7XcnZQGAqAjeQtLakm/X8b0NJTf763P6pHdz3L49qEHnbg2sXApLKNZu038fer+/kof5JI2Dx2VjSLpIOknTcIAfZ6ZLOlvRb/nqJQdKEa1q5vQoXlK6E7V+S1mvaeRwPAhMQuMkgzcsrJP1mYfbeFc+5brsO+4TuzuPjey/KywNx2iXONDy/mwd9aEViCKws6RGSfkK+sSzv2iRGt3ars76kk5gdRSfuS9vtRs4GAlpd0sslXYQ9R7fnaY5nm99lTfOVFu4ntwkY55o+w/LCj22zZhWNi43AWoPFCe+U9E+EKFsh8riafXkOBI5K4FMkbZA9q2hgLATWkPQeSXZycATzxiAWpzq7zp0gcVQj/pgkz0gpINAUAT8jeivPfaPab5eC35QvyR/vgfEcBCkaob23iwICbSDwRFbLRbPbLkVoeO02OJP8OT6AGEUj9VbJs4EK9gGBrSWdhd1Gs9uhIHT52gdeNq6jPawuQS7l2udJ8q0VCgg0QWA1SUdjs8WNWU0405tj77AQFqgUUeiqnQf3hhFUNGUEno4QFSdEHrOKKF6R8y0IHpzgOxfBJhoZEoFbSzoDWw1uq105rNOuG5JXSZ37LRA8KMEvleSVixQQaILAfthpUDudJgZdf9eEN7069mGQPCjJvyNpzV4xgsqmhsDtJTmuYdeDItfvpg9S42Ow+jg0UJNI1BB0OkHt0VJAoC4CjsLtPUXYWbkY1OVOL487FrIHM/adeskIKp0KAp4VeTUmYlQuBqlwMUo9XgvZgxm7E4JRQKAuAq/ENoPZZl8Evi53enncDpKuhvStk/7HvWQDlU4FAWdo/RN22bpd9kWEhvVMhY9R6rHRQjbIYeN5beeWwOuj9B4XyRUB3+LFFsEgV36PbZfj1H0C4rdq+KQYH0s1PqyIwCrYZKv22GdRr0iZfH62J2LUKvkdP2zjfOhBSyIjsJmkP2KTrdpkXwUpMvW6v9xdIX6rxP8k8ei6J3WPa/BM7LFVe+yrELnexZVVJf0NA2jNAPYqjkE0uE0EvoAttmaLfRaiIsXIhuSAnn3vuFTqf/c2RybOVRQCNybiQuvjkFcL9/HvqqKYv6ixz0KMWjGCSyQ53D8FBOog8GDssBU7TMUxbVKP79YhUA7HOKCnB9Im4HGsdGgOZKANnSGwLzbIGCTpAkmbd8bCji/sTXY/wBAaG8KuHfcjl+8vAp5RfxUbbGyDOTjFL5Pk2ITFFkLVN5sZXiZpy2LZQ8ObIuC8RfaIcxhMaUP9fjx5ECDXi8qKLo/HEBoNBD+StE7RDKLxTRDYkSj6jewvBwF0upCHNiFRLsc6sCcpJep7NAfkQgTa0QkCvjWTw4BKG+r34/skOSoORdJJGETtAeFJMAgEGiDwaWyvtu3lIIAXSXKOOcoCAg7wmUPHxm6DZ5SEAMKMmiBwLrZX7NjjPUW7NyFPjsc+BIOoZRCnlr76JUdjiNimm3CLvJbdxXY6Q13vGElrRORbLy5l796BPkOBnut539SL3qWSqSKwDTZX7JjzD0m3S5WYXdbL4es/h2HMbRgP77LTuHbvEXgCNje3zeXi2H6w9+wN2AAH+sylo2O043eSNgnYH5w6fwRegs0VOeb49r7jEVImIHAfDGMuw3CUZc8oKSBQFwFvC4jhOHGNtHB+ZF3ClHKcw5J4mSHErYaBvVoKCNRFwGFfnAMLeysLg6/UJUxpxx2BcVQeHLYvjRy0t1UE7Px9A3urbG85iLbzxzk4NaUCAg74mUOnh27DpSzJrMAmfjINAT8zOAF7K2q82WMaIfhuKQJbk+SrknF8aSlsvAOBuRHYSNIZiFElewvtXMY4/+mSVp+bJQUf4ICfx2EgMw3kuQVzhKa3g8CtJP0ZW5tpazGEIvQ1/i7p/u3Qppyz+KHqezGQqQZyhSRSjJdjE6FaentJHqRCD4Scv3uMPyJp5VBEyvm8DvwJgSdjcLykdXMmAG2LgsCdCQVUxDjzJ0kO+0SpgYBvHyBGkzE4kHh0NVjFIaMI3BM7y36ccSDlPUc7nvfzIeAdwgjSeAx2ng9Kfg0CYxFgk/l4+8pp3Pm6JC/hpzRAYH/EaKIYb94AVw4FgSEC3qeW08BLW5b2p9NDbDHsbF7rI+AAoJBrOQa/4RZdfVJx5BIEdsDGsh5jyAC9hO713/i50XkYyzJjeXd9SDkSBJYgwMxoubOXiwPsdDxkb11C9/pvVpVEaKDlxkKAw/qc4silCNwbZ2+Zs5eDGHnRwo5Lu5p3TRF4NcayxFgukHSbpqByPAgsIHAP7GuJfeUgRG7DYZJWguXtIsBthKUzoy9KumG7EHO2ghHYUtLVCFJWgmSH1Y84KC0jsBZx6pYYyutaxpfTlY2AIzBcjhgtsbG+z45exgKncEbt2UDfCdJW/e8XDmbOXCACm0k6H/vKZnw5RpKftVMCIfBCjOVaY7lS0o0CYcxpy0Tg5pK8VaAtZ4nzdIflvySR3yywHfshq4EunehfC4wzpy8PAcc3/DG2lcXY8j4WLYQ34JtKOhGD0d7hoeYKhSHgxTB2ckp39Preft9qZU9RBON1SgkHBu07YZrU3ykjtomANZcoD4GDC7etJnaZwrEO+fP48mjbXYufVbjBnIzn0x35Mr/yfoXbVgqC0qQOR5O9Na6F3rZwg/kQyzXjEq6gq+1RuG01EYKuj71U0u0K4moSTfVu4t8XbDS7JtELVCJHBB5TsF11LSZNr79PjoTsQ5u8WqRp5/X1eMLA94Gh/azjXQu2q76OB663A6GSvbUjm3tCoUbzR3LXd8S4Mi67TqF21Wchct13KoOeabbSz40uLNBwPphmd1CrjBA4vUC76rMYfToj7vWyKU6d+40CjebJvewtKt0nBD5RoF31VYz+NojKTabnBKzrDYUZzUWslkmAdflXYc/C7KqvQuR6OxAqJQEEHlKY0Xxb0hoJ4E4V8kbgvoXZVV/F6Hj2FKVjiOtJ8o7jvpJp3nrvmw701CRjBDYpfOvEvHbZxe8dn3O7jDnYy6Z5x3EXZOjimg/vZQ9R6b4h4LQDRxVkV13YctNrfoRVtemZle+ZNu3YPhzvDJwOEksBgRgIvLoQu+qD7Y/W0dlb2VMUwwrmvIanqtcUYDg/nBMXfg4CTRBw4sbRQZD33WPisW6XJh3LseEQuJmkXxZgOK8KByFnBoFlCHihDCnIuxefUQfgWEne1kJJEAHHqcs97L29oR0SxJ4q5Y3AoQU4eaODfcrvnd2ZUGCJ29zzMjeaX0tySmgKCMREoNSQW6kK0utjdj7XqofAXTIXo0NIIVyPGBzVCIFbSDozc9tKVXhG6+VAqCxgakTnOAevLOnPGRvNC+LAyFVAYAkCzqr8/oztanTAT/W9b9MTCHUJNdN+89GMjWbrtKGndhkj8MCM7SpV8Rmt12HcGemXhXm542gn5vDekclX6VdXUNuMEDD3fIsoB1vqYxscj5JAqD0zqDtKujhDo/mvnvUD1c0PAQKndifG3tTv26WUHiGw5mD583czFKOn96gPqGqeCLCQoRsx+h9JDs1E6SECb81MjC5jX0EPWZhfle2ZvzYz20r9lp0DoW6fH5XKadGjMjOYYyStXU730dKEEdhQkp2j1AfxXOrnjfze0E/pKQIbZGYsb+9pP1DtPBEgeGocMT5f0vp5UqisVv00I0F6bFldR2sTR8DOnp9j5DL7SLEdBEJN3Ajmqd7rMjIWQgDN0/P8NgYCud0KT02QnJ9t9RgdyTXCI/CATFJK/Dw8VFwBBOZGwIsZDs/I4UtJjLxogUCoc1My3QM2yiSe1hvShZiaFY6A05KfiCC1frtyn8J5lV3zvQLlUz03FN83flB2PUODckLASS3/2XM7S2lW5CgXZG/NyUIW2vLCnhvJ2ZK80ZACAikjsOtg/9EVPbe1VASJQKgpM71B3e7ZcwP5jCRHIqeAQMoI+C7EXpL+0XN761qQPp1yJ1O3ZgjcUJIDDHZNsrrXf3Gz5nM0CERDwE6TU5z44Xtdvpd83N8IhBqNq51dqM/Pje7VGWpcGATmR8Ar7B4t6RwEaW5BdiBUSuYIPLunhnGJpNUy7xualycCd5B0pKSre2p7sWdox7OnKE9DGG3VVj29l/3Z0YbwHgR6hICfIz1c0nGstps6S/JtTa9IpBSAwI0Gy6N/2EMPbbcC+oYm5o+AZ/d3lvQ8SR9bECfHXIs9+0j1eh9hkVL+RrC4he/sGfm9b+MuixvA/yCQEQLeyJ2qOMSs1wXsKcqI1RWb8oSekf/Hktap2DZ+BgJ9QwAxkgiE2jfWtlRfhy1x58f0eppc6z0ttZvTgECKCCBG0rEsUEqRmuHr5CWnJ/dIjJ4cHhKuAAKdIVC6GF0p6U6doc+FO0fgzT0So1t2jhYVAIFwCJQuRq8PBy1n7gMCD+2JGJ0myTM5CgjkikDJYuQNwTfNtWNpVzUENpX0hx4I0tuqNYdfgUBvEShZjJxyg5IQAqsMEnN5l7YT4Hmlm9NqO3NkyD9fY7gBz0unh3++f3vVIpHyQge/b/tv8W50/+/ze8PbsB7D17cExiEkxpw7LIdzwbfPIbqaLEzysSclNA4XWZU1JG0r6UBJv5D090WDf9PO5fj+rBKkr+ir0jlwSpEKkECj1x7U4Y2S/BzEM5DSiUj74QAcKJsDiFFkYXIIEIf/8A5jjA8M4AAcgAMrOIAYRRSjLSX9qGebTDEUBks4AAdicAAxiiBGTq71NEmXMhtiNggH4AAcGMsBxCiwGHlfzAGSroCAYwkYw+PiGnj2cCB9DiBGAcVodUkfR4QQITgAB+DATA4gRoHEyAm0Dub50EwC4rGm77HSR/RRDA44RialZQS8cdXRpWN0INcAZzgAB3LgAJteWxYin+6p7B1CiHFG4AAcmIsDiFHLYrQDixXmImAOHh1tYGYCB5pzADFqUYw2kHQG3hBiBAfgAByYmwOIUUti5AULh0HAuQmIR9ncowRDMMyBA4hRS2L0aFbOIUQ4I3AADtTmAGLUghhtJOk8SFibhDl4dbSB2QkcaMYBxKgFMXL0bYgIBnAADsCB+hxAjBqK0RYjCeggY30ygh3YwYFyOYAYNRAjL1o4glkRs0I4AAfgQGMOIEYNxOhe7ClqTEA84XI9Yfqevl/MAcSogRgdgjeEGMEBOAAHWuEAYlRTjJwo7xpI2AoJF3tH/I+3DAfK5ABiVFOMDkKIECI4AAfgQGscQIxqiNEtJV0ECVsjIZ5wmZ4w/U6/L+YAYlRDjJ6FECFEcAAOwIFWOYAYzSlGTiN+IiRslYSLvSP+x1uGA2VyADGaU4y2QogQIjgAB+BA6xxAjOYUIzK4lum14a3T73AgLAcQoznEaC1JZ+IRte4RYeRhjRx8wbcPHECM5hCjbSRdjRghRnAADsCB1jmAGM0hRntDwNYJ2AePjToys4AD4TmAGM0hRscjRogRHIADcCAIBxCjimK0AbfoghAQjzO8xwnGYNwHDiBGFcXosXhDiBEcgANwIBgHEKOKYvQBSBiMhH3w2qgjsws4EJYDiFEFMVpN0q8QI8QIDsABOBCMA4hRBTHahMCowQiItxnW2wRf8O0LBxCjCmK0Pd4QYgQH4AAcCMoBxKiCGO0GCYOSsC+eG/VklgEHwnEAMaogRgciRogRHIADcCAoBxCjCmL0E0gYlIR4m+G8TbAF275wADGaIUarSPonYoQYwQE4AAeCcgAxmiFGTjHeF8+CetJXcAAO9JUDiNEMMdoBMUKM4QAcgAPBOYAYzRCjnSFhcBL21ZOj3sxC4EB7HECMZojRGxAjxAgOwAE4EJwDiNEMMToYEgYnId5le94lWIJlXzmAGM0Qo+8hRogRHIADcCA4BxCjKWK0kqRTIGFwEvbVk6PezELgQHscQIymiNEaks5CjBAjOAAH4EBwDiBGU8RoXUnnQMLgJMS7bM+7BEuw7CsHEKMpYuRU4xcgRogRHIADcCA4BxCjKWK0saQLIWFwEvbVk6PezELgQHscQIymiNGmki5GjBAjOAAH4EBwDiBGU8RoM0mXQcLgJMS7bM+7BEuw7CsHEKMpYnQrSZcjRogRHIADcCA4BxAjxCg4yfrqqVFvZhlwIB4HEKMpYsRtunhExOjBGg6UzQHEaIoYeQHDJUzPmTnBATgAB4JzADGaIkYs7S7bU8NTp//hQDwOIEZTxOhmbHoN7g1h7PGMHazBOmUOnCpp5SnjcdFfrUc4IMSI2zNwAA5E4cBVknYqWnGmNH5NAqVGIWHK3hp1YzYBB+Jx4DRJq08Zk4v9ylPGX+IVIUhwAA7AgWgc2EfSDYpVnSkNPwYSRiMhHmg8DxSswTpVDlwqaYspY3KxXx2KGCFGcAAOwIGoHDiKxQzLNXdfSBiVhKl6a9SLmQQciMuBpywfjsv+5JmIEWIEB+AAHIjOgXMlbVi2/Cxt/f0hYXQS4oHG9UDBG7xT5cD+S4fjst/dBjFCjOAAHIADnXDgGkn3KFuCrm/9DSVdARE7IWKq3hr1YiYBB+Jx4ARJ3vNJkXQiYoQYwQE4AAc648DuKNEKBA6ChJ2REA80ngcK1mCdKgcuknRzBEnaAzFCjOAAHIADnXLgcEmrlC5IrKjDY0zVY6RecLMUDlwpacfSxYiMrxh8KQZPO+F6yhw4RdJaJQuSo8iezhS90yl6ygZC3RjA4UA8DryxZDFy2w9BjBAjOAAH4EDnHHAg1S1LFqQnQ8LOSYj3Gc/7BGuwTpkDXyk5zcSmkrwbOOUOom70DxyAA6VwoOhAqichRogxHIADcCAJDpxTciDV10HCJEhYiudHO5nlwIHpHDig1GdH23KrDjHCIYEDcCAZDnjvUZGBVNeT9AeImAwR8Rqne43gAz4lcOCnpe49+jBihBjBATgAB5LhgBeW7Vbi7bp7Q8JkSFiC10cbmd3AgdkccCDVjUoTpJUl/RpBQpDgAByAA0lx4LOSPD4XVV4ECZMiIZ7jbM8RjMAodw54McODilIiSU5F7pAUuXcu7aOP4QAc6BMHTpO0RkmCdANJRyBGiDEcgANwIDkO7FNaqCCvbe+Tx0Bd6S84AAdK4IDvWm1R0uzIbf0GgoQgwwE4AAeS48BRpS1muJ+kqyBickQswfujjcxy4MB0DhQVSPWGkr6PGCFGcAAOwIHkOHCupJuXdLvOz45ILTHdQ8GDAx84AAe64MD+JYmR23oQXlFyXlEXxOeaDLhwIC0OeKJQVCDVW0n6K4KEIMEBOAAHkuPACZLWLGmG9AJImBwJ8VLT8lLpD/qjKw7sXpIYOSbSVxEkBAkOwAE4kBwHHEi1qMUMDhN0PkRMjohdeWNcl5kAHEiHA4dLWqWkGdJOkq5GkBAkOAAH4EBSHHAg1R1LEiO39TUIUlIkxDtNxzulL+iLLjlwSmlZYb0Z9hC8IgQJDsABOJAcB95U2uxoVUlfZENsckTs0ivj2swK4ED3HHAg1S1LE6QbLQgSBOyegPQBfQAH4MCQA18pLc2ExdczpIMJqMoMids1cAAOJMWBnUubHQ0F6SWSroCMSZFx6CXxiscMB8rjwDmSNixRkNzm7SR5NQfEBwM4AAfgQPccOKBUMXK71x4sanBa3MsQJUQZDsABONApB7z3qKhAquPEdyNJH5T0B1bcdUpGvNPuvVP6gD7okgM/K23v0ThB8mfrSXqspCMk+R4muZEwzC4Nk2vDv9I44DG3qECqk8Ro9PMNFkJWPGOQluJFkhwN/Pkjfzlkl/3hSJtG2zj6/pOSPKUuzVCqtPdiSS+dE89RfHm/3M7awORIODvRZs+U9OqFcc5j3Qs75PAuowMx72cj4EUQ/+o5wV3/J85u6nW/2Hhh1lhlYC71N59Y2EZwHWj80zkCfhZxec9tNaQ9eUbyjs57iQrUQsBJ/E7OgNzHS1q9IgLrD2aKP8igzSGN2ue2Yf9HRUz5WXgEbjm4/X4ivJ04K1psD7uWuAE1PAXDXcHx7hxeaHEn9vV/T82rlNUkvZ+gs5X7/B+StqkCLL8JioDTFHwhE1uNMcZcKOkuQXuEk7eGgMnt5eAxiBH6GudJct6nKsUPFVnQMV+//1aSb2tSukFgJUl7Z2KroceCxec/SZLDp1ESR+BRkvyQenHn9fX/D0hyVtxZZXNJp2fS5th99alZ4PJ9MATuJskOV+w+z+F63oBqMackisAdM9og6+n4PSvgvCa3ORoPZo+ogDM/aRcBPwf9KUJUm7te2HTfdruEs7WFwE0kfTMjcn+5oufzZJZx1zbooYd86sIetra4yHlmI/DsjGx1yKPYr8dJ8vNxSkII+DlRTgn6nIr98RXwvSmrkBoL0XAAeVcFvPlJOwjcWtJZiFEr3H1xO13CWdpA4AaSnp4Zsb3M1cu0Z5WXkW6jFYO2IF0yCDl1s1mA830rCOyXmb0OHZouXouOpt0KG1s8yQMGK3IuyojcnhVV8XZuuxCrrwsDyPWaXhpv54YSDgGvDr0qI3tNwRZeE667OHNVBG4u6VeZEdvLjb0JcFZ5VWbtTsGovWjEm6UpYRCw0L8Z3rY2mx/azJ945hmGsFXP6nX2n8+Q2FWeXfhZ0WkZtn1oXF2+HlSVgPxubgS8BeGP8LZ1MbK9VN0cP3enccBsBLyx1be0uhy42r62owJsP7vp2o0VdMH63bMjL5entI+AA9S2bTOcbwWmZ0hap/0u44zTEPBU3/nYcyShZ3qzlmo64eDRmbY/lT71ghhKuwh4XxGzorDj1k7tdhlnm4XAnQapInyPNJWBq616/FPSk2Y1XtK2GUQibwuzUOc5RpK3C1DaQ2DHDG02FP/qnvew9rqLM81CwMn1co3uW3UD2/4YdXBHxLdLt5hFRr6vjIDvZhwIb4Pz1qsUneONEhgB3776eMaE9p6hWcUY/CRjDOp6hCGOI8XELDZW/977t34Jb4OLke3gqdW7hV/WRWCvjKNSe+PaZhWA8eIGb84MMfhyzqW4/qJCf/CTagg8DM5Gs9nvVAwjVq3n+NUyBO6dUQDUcYP+eysS6BUYdTSjdtr2dZcxkQ/qIPBWeBuNt36ezq26OiytcIw3Iea8Cucvg0SAW1fAYdWMEgaOE+QUP7NHT2mGgJ8X/RoxiiZGtqPtmnUZR49DwM9IcsnYOmmwPbJiCJpbSDobo45q1G8bR0o+mwuBDeFsVM56nNljrh7ixzMR8NLad2dOZG/afcxMJFb8wM+LJgkan4fB5mcVb59W7MIif/ZQeBvdbj9TJNMCNtoZW733JueB9gRJzsNUpeyaORYp9rNvD9+4Sufwm4kIeOFRin2bc51+P7E3+GJuBLzH47LMSexZ0Z5zIMP+oviDmrNp3n6OPuKnyxFgf1F83lpoHb+S0hABzxRKSEd8piQ/B6paPp25OKfqqT6kagfxu2UIeNGNMxan2rc51+tuy3qDD+ZCILeMrdPI7pnOPOUHGHUng9pL5ukkfrsEATuW/wtvO+Hto5f0BG/mQsBLQF9QCHEvl+S9U1WLPcxTC8FmmoB38Z33gFHqIbCpJG/o7qLfSr+mx1JKTQScsdUxwUogkW+5WWCqFi+PddK9ErBJrY1HVO0kfrcMgTsUZNOp8ZZtCcvoWO2DHDO2TiKnBfdx1WC57ldOMZ7zxt9JWKXw+beu6wX+mReBu+JAdeZAkiRyXrZKcsZWh+xPYeCJUYdj55wVGdI7D1be/bkgjGL0Q9VruL8o9RC4D5ztbFw7vF6XlX2UM7ZeUxBpX1yju70y5q8FYVRVKGL87kc1+otDViCwA5ztTIy+AAmrI5BzxtZJg+TvBmkw/FB33oIYdTdzRozmZev1vydqSHe8RYyu5+HM/3LN2DpJiPz5u2qGl9mK23SdeZjcpptpyhN/4BWj0+yB78Lhw226ibRc+kXOGVsnGZhDu1tU6hQWMIQz2kn9Nfz8m3U6jGOuRYAFDN3x9sNwcDYCuWdsHQ5io6+fqxidexyCzpTJ0u5uDPvz4zqEzyoh4FBKf2d21Mns0DmkKDMQyDlj66gADd87N/0jZuAy7Ws2vXYjRO6/90zrGL6bioCfj/4BMepEjJ4/tWf48tqoA7kHQB0K0OLXn0jyrckmxc8uFp+T/+PgsXeTTiv8WIcD+jm87cRunfWAMgGB3DO2ThIHz4r+fQIm83z8KYy6E6N+0DydxG+XIOBYk1+Ct53wtkr26CWdVcqbEjK2ThKj30hyhImmZT+MOrpRO5/W7Zp2XOHHvx/eRuetx6KqedKKomcJGVsnCZE/f0tLvf1sjDq6UZ9Lcr1Jga5yAAAIEUlEQVTG7H0hvI3OWy92ooxBoISMrZPEyM/HthmDSZ2PtissUsUkTGN+fnzNfWF1+jfXY5wPKmafcS3JgZgpIwhsWUDG1mnkP3QwM/LMsI2ysaSzMOyoA1tbs9o2+r+v5/C2hJLCfU0bD2J9x0q6EWspJWPrJIJ5f0WbK1q8vPtIxCiqGJHldcSoa749Dd5G462Ff9ua/ZTlYSVlbJ0kRt+TtHLLvfsyjDqaUV8paZ2W+6/U0+0Lb6Px9nxJ65dKtNF2l5SxdZIQ+fM9R4Fp4b09nosx7CiGfWIL/cUpViDgGSa36uI8O3P4Ko/BlEFuopIytk4SozMl+RlP28UzTkeRnnRdPm8Pm9e03XkFn28DSafA2yh2+5SCebak6SVlbJ028L89oHfidMLTrs13zfHx8z5Hlae0g4A99ffB2+B2631xFv7iS2kZWycN+ucFHsgclt+km3R9Pm+OzfcDPO8rfYC4P5wNbrOfKJ1kw/aXlrF10qAfeo3/2pK+i2EHNexdhqTmtTUEVpP0e3gbjLd+Jvfw1nqrpycqMWPrJCHyCqyHRuhHR2PwtSbVg8/rY3OhJA+clPYReBGcDWazDjvmu1NFlxIztk4a7H84SDmwbgQ23JQHwsGM+sAI/VfqJW5DSolgvH1FqaQatrvEjK2ThMgzld2GwER4fTleZuuG/VdJm0Tou5Iv8UZ42zpvnUW66FlRqRlbJ4mRd5nHXMlya7K/tm7U/xlwFWTJArS47Z4dsQCn/m3kcePPKxcDXOL/ztFzBV7OdQOil1zHLH5WZxI6X9I4gvLZfLhcEmhvWExO9OVa74SzrdnsOaXz9j6FB0AdHegdFeHuHYwEjv93AobdimF7bxglDgKbSTod3rbCW6foKLaYSL+CSEuIdJgk37bsojyNGeqSvhh1FKq8PzXyLdYueJLSNT2r350xpDFvfyxpzZQ6NmZdSs7YOmlQu7zj9f0m42cx7NqG7f0ZROeOOYqsuJaXzx8Hb2vz9h+Sto/fbWlc0XHR3kzAw2XkcXTurveleHk9tz3me0Y0dC4+QwK9zgaYe0n6I4K0bEwZcnPa67tazJXWGQHqXvgZrIIZS5qd6wLa8nHPYSPs2P6ZZtC/lrRRy/3A6aoj4Nt1eyBGc/P2ZyUv5d5CkvdgTDPsEr87o8NnRaMmv4akD7G6rjJHHQx1h1EQeR8dgdUlHcXYUpm3f5F0z+i9lMgFvdv/p5BlLFlSS0vtviJu3WynycvhSRGRyAAjaVNWhY4dX0YdfD/ffFY63Ra3Jn5O5HvqJMZaPsA5OveWcbuj0tVuxWrHmYbtkD/2yCnpIGBv/wKc3onc9Z5OO79tZ49OhwFTauL7uS+AHBPJccgU7Lr+6n6SzqXvxvadZ44IUdcMHX/9x0hyoNrRGQHvpQ+WvIz7YZL+BjHGGoa9lLuNt6dkPn3wIPX5n+m/Jf3336XvVk+GneMrYq/f++bg7fWC7LtSfqYWIwDz+F7p+FNnbMWzvp4Qo56Zk6/1oTxJkh94jta/xPdHs7G1D5S9to5OkeLwTCXydLTN3kPoZ8FFlnUGoW2+DBEmGoKjc3v3eB+Kb7U+gr0c+rqkW/Shw6jjtQj4WbW3kpxf8DjkRTZHDNK1O+RXscWRi1mwMNkrO6WHBNlxYNxnFmjY5rEz79rBovQPAT9DKvUOzXtL5q296CcQ52zijGg4fX5d/2z62hp7r9iPJF1diCh5H9H+JRt0T3m6uNorSdqusK0lfk6/z4C73jdYbPEDeZZWTp4RWYwu7eGsaDGhHW3gowUIkjdoez+GHSxK/xFw7q4jC9jQ7dBIjyw9PJUztp5UiMc8nOHUeT22/3Z9bRy9vTNN/+xZn2MF/htClAFTlzbBt1pfnanDbN56xdzWS5tc3jsytk6fDS0WrfdlRI87D6L+eqlzLrftPGvdl9tyGTF0eVM80/Vtu2Mycpy9SMPRQIq+LTfs6lcRYHPmcyILkh+G7zoELZNXz4idsdeLG/q6aOVfkr62EE7fzxgo+SOwwUKW47N7LEqXLdx69OMReCvJGVvJR19tZuSd4V1kc40xtPievB/2X9Qz4/at5WdKWjUGSFwjOQTuuBAc2JmWF9/BSPl/O32O9emVgvB2gVKbE8NsLgL/IvOptG+BOD6Yl/Y77l6qMyXv83KqdacesIdMKRsBD+jbSjo48X1JTobnzKx2nordxDqOqn5O5IfxKXsQqdXt8HFAZvqZk/W9MbHbdxahby8Y81qZ4k6zmiFwV0nvGKykTOn2nTNB+zayt80UmyJ8UrcOM7amNtinXh+vQCutOGqBkwd+XtLvOljs4L1CJy4MME6xjDGXxsD52+sZ/mYLz3e9HNzLpWMv0vHzoOMHuc7eNhCibTK/ozJ/Dy06goyt9WaE3jRactlkwcA/JskZUh2uJIQD4VVxXi1lQ34IAlQy5Rq33cJ020EUh+cOXj85CMJ6ekBh8jNlbyvwhtUHStduoWjcgJxPQMbWegOoNwOz4mWFZdjAN1zYy+OVeO+R9I3BbYiTBzH7zlmI9O6o5pOEys+iPONxZGbfTvHDXOfM8m1B38rwQ+m1czZC2tYJAo4I7k3fnmH7eaNzWn1L0i8XQg55EcQ03np2Zd56LDhrIZrJpwYrkR2R5XGS/AyemfscXet7qo7kzN98GDgdA2U6An6Q7MR+3nC6k6QnTuDZ4yU5Vt5dBgPC+mxOnQ4q3wZHYDVJXk3qlcXm7aSx0YLjGY8TarIAoWG3/D+P3Qd2WWGVVwAAAABJRU5ErkJggg==;connectable=0;allowArrows=0;" vertex="1" parent="1">
          <mxGeometry x="836.84" y="373.72" width="76.32" height="56.28" as="geometry" />
        </mxCell>
        <mxCell id="h-0-y1XXke3g4Fu3jNhB-21" value="" style="shape=image;verticalLabelPosition=bottom;labelBackgroundColor=default;verticalAlign=top;aspect=fixed;imageAspect=0;image=data:image/png,iVBORw0KGgoAAAANSUhEUgAAAaMAAAE1CAYAAABKqo+qAAAAAXNSR0IArs4c6QAAIABJREFUeAHtnQe4PEWVxY8EiQIqiCCIAROgYmBVggkz5ghmAV0FRcxpRcWAYFoVAwZWEMWAYI6rAoqKsi4IiEoygCAqEg2k3Tn838B78yb0dHdVV1f96vveN29Cd1edOrfOre6qeyXKOARWkfQ0SUcX/HeopM3HgcNnIAACIAACcRB4nqQLJf1fwX9XSDpB0iZxIOcqIAACIAACQwQ8I3qmpMslXVWwEFmELUZ+/R4zpCE9eAUBEACBOAh4RnTJwiCMGF0/M2SGFId/XAUEQKBwBBbPiIa35hCj68WIGVLhBkLzQQAE4iCweEaEGK0QoeFtuiEefmWGFIePXAUEQKAwBMbNiIaDLzOjpTOjIS48QyrMSGguCIBAeATGzYiGgy5iNF6MmCGF5yVXAAEQKASBaTMixGjybbohNn5lhlSIsdBMEACBcAhMmxENB1xmRpNnRkOMeIYUjqOcGQRAIGMEqsyIhgMtYjRbjJghZWwsNA0EQCAcAlVmRIhRtdt0Q5z8ygwpHGc5MwiAQEYIzDMjGg6yzIyqzYyGePEMKSODoSkgAAJhEJhnRjQcXBGj+cSIGVIY7nJWEACBDBCoMyNCjOa/TTfEzK/MkDIwHJoAAiDQLgK7S7pY0jU1/q6scczodRYP0l38P1qfed47AsM8v1/8259JukW7XcnZQGAqAjeQtLakm/X8b0NJTf763P6pHdz3L49qEHnbg2sXApLKNZu038fer+/kof5JI2Dx2VjSLpIOknTcIAfZ6ZLOlvRb/nqJQdKEa1q5vQoXlK6E7V+S1mvaeRwPAhMQuMkgzcsrJP1mYfbeFc+5brsO+4TuzuPjey/KywNx2iXONDy/mwd9aEViCKws6RGSfkK+sSzv2iRGt3ars76kk5gdRSfuS9vtRs4GAlpd0sslXYQ9R7fnaY5nm99lTfOVFu4ntwkY55o+w/LCj22zZhWNi43AWoPFCe+U9E+EKFsh8riafXkOBI5K4FMkbZA9q2hgLATWkPQeSXZycATzxiAWpzq7zp0gcVQj/pgkz0gpINAUAT8jeivPfaPab5eC35QvyR/vgfEcBCkaob23iwICbSDwRFbLRbPbLkVoeO02OJP8OT6AGEUj9VbJs4EK9gGBrSWdhd1Gs9uhIHT52gdeNq6jPawuQS7l2udJ8q0VCgg0QWA1SUdjs8WNWU0405tj77AQFqgUUeiqnQf3hhFUNGUEno4QFSdEHrOKKF6R8y0IHpzgOxfBJhoZEoFbSzoDWw1uq105rNOuG5JXSZ37LRA8KMEvleSVixQQaILAfthpUDudJgZdf9eEN7069mGQPCjJvyNpzV4xgsqmhsDtJTmuYdeDItfvpg9S42Ow+jg0UJNI1BB0OkHt0VJAoC4CjsLtPUXYWbkY1OVOL487FrIHM/adeskIKp0KAp4VeTUmYlQuBqlwMUo9XgvZgxm7E4JRQKAuAq/ENoPZZl8Evi53enncDpKuhvStk/7HvWQDlU4FAWdo/RN22bpd9kWEhvVMhY9R6rHRQjbIYeN5beeWwOuj9B4XyRUB3+LFFsEgV36PbZfj1H0C4rdq+KQYH0s1PqyIwCrYZKv22GdRr0iZfH62J2LUKvkdP2zjfOhBSyIjsJmkP2KTrdpkXwUpMvW6v9xdIX6rxP8k8ei6J3WPa/BM7LFVe+yrELnexZVVJf0NA2jNAPYqjkE0uE0EvoAttmaLfRaiIsXIhuSAnn3vuFTqf/c2RybOVRQCNybiQuvjkFcL9/HvqqKYv6ixz0KMWjGCSyQ53D8FBOog8GDssBU7TMUxbVKP79YhUA7HOKCnB9Im4HGsdGgOZKANnSGwLzbIGCTpAkmbd8bCji/sTXY/wBAaG8KuHfcjl+8vAp5RfxUbbGyDOTjFL5Pk2ITFFkLVN5sZXiZpy2LZQ8ObIuC8RfaIcxhMaUP9fjx5ECDXi8qKLo/HEBoNBD+StE7RDKLxTRDYkSj6jewvBwF0upCHNiFRLsc6sCcpJep7NAfkQgTa0QkCvjWTw4BKG+r34/skOSoORdJJGETtAeFJMAgEGiDwaWyvtu3lIIAXSXKOOcoCAg7wmUPHxm6DZ5SEAMKMmiBwLrZX7NjjPUW7NyFPjsc+BIOoZRCnlr76JUdjiNimm3CLvJbdxXY6Q13vGElrRORbLy5l796BPkOBnut539SL3qWSqSKwDTZX7JjzD0m3S5WYXdbL4es/h2HMbRgP77LTuHbvEXgCNje3zeXi2H6w9+wN2AAH+sylo2O043eSNgnYH5w6fwRegs0VOeb49r7jEVImIHAfDGMuw3CUZc8oKSBQFwFvC4jhOHGNtHB+ZF3ClHKcw5J4mSHErYaBvVoKCNRFwGFfnAMLeysLg6/UJUxpxx2BcVQeHLYvjRy0t1UE7Px9A3urbG85iLbzxzk4NaUCAg74mUOnh27DpSzJrMAmfjINAT8zOAF7K2q82WMaIfhuKQJbk+SrknF8aSlsvAOBuRHYSNIZiFElewvtXMY4/+mSVp+bJQUf4ICfx2EgMw3kuQVzhKa3g8CtJP0ZW5tpazGEIvQ1/i7p/u3Qppyz+KHqezGQqQZyhSRSjJdjE6FaentJHqRCD4Scv3uMPyJp5VBEyvm8DvwJgSdjcLykdXMmAG2LgsCdCQVUxDjzJ0kO+0SpgYBvHyBGkzE4kHh0NVjFIaMI3BM7y36ccSDlPUc7nvfzIeAdwgjSeAx2ng9Kfg0CYxFgk/l4+8pp3Pm6JC/hpzRAYH/EaKIYb94AVw4FgSEC3qeW08BLW5b2p9NDbDHsbF7rI+AAoJBrOQa/4RZdfVJx5BIEdsDGsh5jyAC9hO713/i50XkYyzJjeXd9SDkSBJYgwMxoubOXiwPsdDxkb11C9/pvVpVEaKDlxkKAw/qc4silCNwbZ2+Zs5eDGHnRwo5Lu5p3TRF4NcayxFgukHSbpqByPAgsIHAP7GuJfeUgRG7DYZJWguXtIsBthKUzoy9KumG7EHO2ghHYUtLVCFJWgmSH1Y84KC0jsBZx6pYYyutaxpfTlY2AIzBcjhgtsbG+z45exgKncEbt2UDfCdJW/e8XDmbOXCACm0k6H/vKZnw5RpKftVMCIfBCjOVaY7lS0o0CYcxpy0Tg5pK8VaAtZ4nzdIflvySR3yywHfshq4EunehfC4wzpy8PAcc3/DG2lcXY8j4WLYQ34JtKOhGD0d7hoeYKhSHgxTB2ckp39Preft9qZU9RBON1SgkHBu07YZrU3ykjtomANZcoD4GDC7etJnaZwrEO+fP48mjbXYufVbjBnIzn0x35Mr/yfoXbVgqC0qQOR5O9Na6F3rZwg/kQyzXjEq6gq+1RuG01EYKuj71U0u0K4moSTfVu4t8XbDS7JtELVCJHBB5TsF11LSZNr79PjoTsQ5u8WqRp5/X1eMLA94Gh/azjXQu2q76OB663A6GSvbUjm3tCoUbzR3LXd8S4Mi67TqF21Wchct13KoOeabbSz40uLNBwPphmd1CrjBA4vUC76rMYfToj7vWyKU6d+40CjebJvewtKt0nBD5RoF31VYz+NojKTabnBKzrDYUZzUWslkmAdflXYc/C7KqvQuR6OxAqJQEEHlKY0Xxb0hoJ4E4V8kbgvoXZVV/F6Hj2FKVjiOtJ8o7jvpJp3nrvmw701CRjBDYpfOvEvHbZxe8dn3O7jDnYy6Z5x3EXZOjimg/vZQ9R6b4h4LQDRxVkV13YctNrfoRVtemZle+ZNu3YPhzvDJwOEksBgRgIvLoQu+qD7Y/W0dlb2VMUwwrmvIanqtcUYDg/nBMXfg4CTRBw4sbRQZD33WPisW6XJh3LseEQuJmkXxZgOK8KByFnBoFlCHihDCnIuxefUQfgWEne1kJJEAHHqcs97L29oR0SxJ4q5Y3AoQU4eaODfcrvnd2ZUGCJ29zzMjeaX0tySmgKCMREoNSQW6kK0utjdj7XqofAXTIXo0NIIVyPGBzVCIFbSDozc9tKVXhG6+VAqCxgakTnOAevLOnPGRvNC+LAyFVAYAkCzqr8/oztanTAT/W9b9MTCHUJNdN+89GMjWbrtKGndhkj8MCM7SpV8Rmt12HcGemXhXm542gn5vDekclX6VdXUNuMEDD3fIsoB1vqYxscj5JAqD0zqDtKujhDo/mvnvUD1c0PAQKndifG3tTv26WUHiGw5mD583czFKOn96gPqGqeCLCQoRsx+h9JDs1E6SECb81MjC5jX0EPWZhfle2ZvzYz20r9lp0DoW6fH5XKadGjMjOYYyStXU730dKEEdhQkp2j1AfxXOrnjfze0E/pKQIbZGYsb+9pP1DtPBEgeGocMT5f0vp5UqisVv00I0F6bFldR2sTR8DOnp9j5DL7SLEdBEJN3Ajmqd7rMjIWQgDN0/P8NgYCud0KT02QnJ9t9RgdyTXCI/CATFJK/Dw8VFwBBOZGwIsZDs/I4UtJjLxogUCoc1My3QM2yiSe1hvShZiaFY6A05KfiCC1frtyn8J5lV3zvQLlUz03FN83flB2PUODckLASS3/2XM7S2lW5CgXZG/NyUIW2vLCnhvJ2ZK80ZACAikjsOtg/9EVPbe1VASJQKgpM71B3e7ZcwP5jCRHIqeAQMoI+C7EXpL+0XN761qQPp1yJ1O3ZgjcUJIDDHZNsrrXf3Gz5nM0CERDwE6TU5z44Xtdvpd83N8IhBqNq51dqM/Pje7VGWpcGATmR8Ar7B4t6RwEaW5BdiBUSuYIPLunhnGJpNUy7xualycCd5B0pKSre2p7sWdox7OnKE9DGG3VVj29l/3Z0YbwHgR6hICfIz1c0nGstps6S/JtTa9IpBSAwI0Gy6N/2EMPbbcC+oYm5o+AZ/d3lvQ8SR9bECfHXIs9+0j1eh9hkVL+RrC4he/sGfm9b+MuixvA/yCQEQLeyJ2qOMSs1wXsKcqI1RWb8oSekf/Hktap2DZ+BgJ9QwAxkgiE2jfWtlRfhy1x58f0eppc6z0ttZvTgECKCCBG0rEsUEqRmuHr5CWnJ/dIjJ4cHhKuAAKdIVC6GF0p6U6doc+FO0fgzT0So1t2jhYVAIFwCJQuRq8PBy1n7gMCD+2JGJ0myTM5CgjkikDJYuQNwTfNtWNpVzUENpX0hx4I0tuqNYdfgUBvEShZjJxyg5IQAqsMEnN5l7YT4Hmlm9NqO3NkyD9fY7gBz0unh3++f3vVIpHyQge/b/tv8W50/+/ze8PbsB7D17cExiEkxpw7LIdzwbfPIbqaLEzysSclNA4XWZU1JG0r6UBJv5D090WDf9PO5fj+rBKkr+ir0jlwSpEKkECj1x7U4Y2S/BzEM5DSiUj74QAcKJsDiFFkYXIIEIf/8A5jjA8M4AAcgAMrOIAYRRSjLSX9qGebTDEUBks4AAdicAAxiiBGTq71NEmXMhtiNggH4AAcGMsBxCiwGHlfzAGSroCAYwkYw+PiGnj2cCB9DiBGAcVodUkfR4QQITgAB+DATA4gRoHEyAm0Dub50EwC4rGm77HSR/RRDA44RialZQS8cdXRpWN0INcAZzgAB3LgAJteWxYin+6p7B1CiHFG4AAcmIsDiFHLYrQDixXmImAOHh1tYGYCB5pzADFqUYw2kHQG3hBiBAfgAByYmwOIUUti5AULh0HAuQmIR9ncowRDMMyBA4hRS2L0aFbOIUQ4I3AADtTmAGLUghhtJOk8SFibhDl4dbSB2QkcaMYBxKgFMXL0bYgIBnAADsCB+hxAjBqK0RYjCeggY30ygh3YwYFyOYAYNRAjL1o4glkRs0I4AAfgQGMOIEYNxOhe7ClqTEA84XI9Yfqevl/MAcSogRgdgjeEGMEBOAAHWuEAYlRTjJwo7xpI2AoJF3tH/I+3DAfK5ABiVFOMDkKIECI4AAfgQGscQIxqiNEtJV0ECVsjIZ5wmZ4w/U6/L+YAYlRDjJ6FECFEcAAOwIFWOYAYzSlGTiN+IiRslYSLvSP+x1uGA2VyADGaU4y2QogQIjgAB+BA6xxAjOYUIzK4lum14a3T73AgLAcQoznEaC1JZ+IRte4RYeRhjRx8wbcPHECM5hCjbSRdjRghRnAADsCB1jmAGM0hRntDwNYJ2AePjToys4AD4TmAGM0hRscjRogRHIADcCAIBxCjimK0AbfoghAQjzO8xwnGYNwHDiBGFcXosXhDiBEcgANwIBgHEKOKYvQBSBiMhH3w2qgjsws4EJYDiFEFMVpN0q8QI8QIDsABOBCMA4hRBTHahMCowQiItxnW2wRf8O0LBxCjCmK0Pd4QYgQH4AAcCMoBxKiCGO0GCYOSsC+eG/VklgEHwnEAMaogRgciRogRHIADcCAoBxCjCmL0E0gYlIR4m+G8TbAF275wADGaIUarSPonYoQYwQE4AAeCcgAxmiFGTjHeF8+CetJXcAAO9JUDiNEMMdoBMUKM4QAcgAPBOYAYzRCjnSFhcBL21ZOj3sxC4EB7HECMZojRGxAjxAgOwAE4EJwDiNEMMToYEgYnId5le94lWIJlXzmAGM0Qo+8hRogRHIADcCA4BxCjKWK0kqRTIGFwEvbVk6PezELgQHscQIymiNEaks5CjBAjOAAH4EBwDiBGU8RoXUnnQMLgJMS7bM+7BEuw7CsHEKMpYuRU4xcgRogRHIADcCA4BxCjKWK0saQLIWFwEvbVk6PezELgQHscQIymiNGmki5GjBAjOAAH4EBwDiBGU8RoM0mXQcLgJMS7bM+7BEuw7CsHEKMpYnQrSZcjRogRHIADcCA4BxAjxCg4yfrqqVFvZhlwIB4HEKMpYsRtunhExOjBGg6UzQHEaIoYeQHDJUzPmTnBATgAB4JzADGaIkYs7S7bU8NTp//hQDwOIEZTxOhmbHoN7g1h7PGMHazBOmUOnCpp5SnjcdFfrUc4IMSI2zNwAA5E4cBVknYqWnGmNH5NAqVGIWHK3hp1YzYBB+Jx4DRJq08Zk4v9ylPGX+IVIUhwAA7AgWgc2EfSDYpVnSkNPwYSRiMhHmg8DxSswTpVDlwqaYspY3KxXx2KGCFGcAAOwIGoHDiKxQzLNXdfSBiVhKl6a9SLmQQciMuBpywfjsv+5JmIEWIEB+AAHIjOgXMlbVi2/Cxt/f0hYXQS4oHG9UDBG7xT5cD+S4fjst/dBjFCjOAAHIADnXDgGkn3KFuCrm/9DSVdARE7IWKq3hr1YiYBB+Jx4ARJ3vNJkXQiYoQYwQE4AAc648DuKNEKBA6ChJ2REA80ngcK1mCdKgcuknRzBEnaAzFCjOAAHIADnXLgcEmrlC5IrKjDY0zVY6RecLMUDlwpacfSxYiMrxh8KQZPO+F6yhw4RdJaJQuSo8iezhS90yl6ygZC3RjA4UA8DryxZDFy2w9BjBAjOAAH4EDnHHAg1S1LFqQnQ8LOSYj3Gc/7BGuwTpkDXyk5zcSmkrwbOOUOom70DxyAA6VwoOhAqichRogxHIADcCAJDpxTciDV10HCJEhYiudHO5nlwIHpHDig1GdH23KrDjHCIYEDcCAZDnjvUZGBVNeT9AeImAwR8Rqne43gAz4lcOCnpe49+jBihBjBATgAB5LhgBeW7Vbi7bp7Q8JkSFiC10cbmd3AgdkccCDVjUoTpJUl/RpBQpDgAByAA0lx4LOSPD4XVV4ECZMiIZ7jbM8RjMAodw54McODilIiSU5F7pAUuXcu7aOP4QAc6BMHTpO0RkmCdANJRyBGiDEcgANwIDkO7FNaqCCvbe+Tx0Bd6S84AAdK4IDvWm1R0uzIbf0GgoQgwwE4AAeS48BRpS1muJ+kqyBickQswfujjcxy4MB0DhQVSPWGkr6PGCFGcAAOwIHkOHCupJuXdLvOz45ILTHdQ8GDAx84AAe64MD+JYmR23oQXlFyXlEXxOeaDLhwIC0OeKJQVCDVW0n6K4KEIMEBOAAHkuPACZLWLGmG9AJImBwJ8VLT8lLpD/qjKw7sXpIYOSbSVxEkBAkOwAE4kBwHHEi1qMUMDhN0PkRMjohdeWNcl5kAHEiHA4dLWqWkGdJOkq5GkBAkOAAH4EBSHHAg1R1LEiO39TUIUlIkxDtNxzulL+iLLjlwSmlZYb0Z9hC8IgQJDsABOJAcB95U2uxoVUlfZENsckTs0ivj2swK4ED3HHAg1S1LE6QbLQgSBOyegPQBfQAH4MCQA18pLc2ExdczpIMJqMoMids1cAAOJMWBnUubHQ0F6SWSroCMSZFx6CXxiscMB8rjwDmSNixRkNzm7SR5NQfEBwM4AAfgQPccOKBUMXK71x4sanBa3MsQJUQZDsABONApB7z3qKhAquPEdyNJH5T0B1bcdUpGvNPuvVP6gD7okgM/K23v0ThB8mfrSXqspCMk+R4muZEwzC4Nk2vDv9I44DG3qECqk8Ro9PMNFkJWPGOQluJFkhwN/Pkjfzlkl/3hSJtG2zj6/pOSPKUuzVCqtPdiSS+dE89RfHm/3M7awORIODvRZs+U9OqFcc5j3Qs75PAuowMx72cj4EUQ/+o5wV3/J85u6nW/2Hhh1lhlYC71N59Y2EZwHWj80zkCfhZxec9tNaQ9eUbyjs57iQrUQsBJ/E7OgNzHS1q9IgLrD2aKP8igzSGN2ue2Yf9HRUz5WXgEbjm4/X4ivJ04K1psD7uWuAE1PAXDXcHx7hxeaHEn9vV/T82rlNUkvZ+gs5X7/B+StqkCLL8JioDTFHwhE1uNMcZcKOkuQXuEk7eGgMnt5eAxiBH6GudJct6nKsUPFVnQMV+//1aSb2tSukFgJUl7Z2KroceCxec/SZLDp1ESR+BRkvyQenHn9fX/D0hyVtxZZXNJp2fS5th99alZ4PJ9MATuJskOV+w+z+F63oBqMackisAdM9og6+n4PSvgvCa3ORoPZo+ogDM/aRcBPwf9KUJUm7te2HTfdruEs7WFwE0kfTMjcn+5oufzZJZx1zbooYd86sIetra4yHlmI/DsjGx1yKPYr8dJ8vNxSkII+DlRTgn6nIr98RXwvSmrkBoL0XAAeVcFvPlJOwjcWtJZiFEr3H1xO13CWdpA4AaSnp4Zsb3M1cu0Z5WXkW6jFYO2IF0yCDl1s1mA830rCOyXmb0OHZouXouOpt0KG1s8yQMGK3IuyojcnhVV8XZuuxCrrwsDyPWaXhpv54YSDgGvDr0qI3tNwRZeE667OHNVBG4u6VeZEdvLjb0JcFZ5VWbtTsGovWjEm6UpYRCw0L8Z3rY2mx/azJ945hmGsFXP6nX2n8+Q2FWeXfhZ0WkZtn1oXF2+HlSVgPxubgS8BeGP8LZ1MbK9VN0cP3enccBsBLyx1be0uhy42r62owJsP7vp2o0VdMH63bMjL5entI+AA9S2bTOcbwWmZ0hap/0u44zTEPBU3/nYcyShZ3qzlmo64eDRmbY/lT71ghhKuwh4XxGzorDj1k7tdhlnm4XAnQapInyPNJWBq616/FPSk2Y1XtK2GUQibwuzUOc5RpK3C1DaQ2DHDG02FP/qnvew9rqLM81CwMn1co3uW3UD2/4YdXBHxLdLt5hFRr6vjIDvZhwIb4Pz1qsUneONEhgB3776eMaE9p6hWcUY/CRjDOp6hCGOI8XELDZW/977t34Jb4OLke3gqdW7hV/WRWCvjKNSe+PaZhWA8eIGb84MMfhyzqW4/qJCf/CTagg8DM5Gs9nvVAwjVq3n+NUyBO6dUQDUcYP+eysS6BUYdTSjdtr2dZcxkQ/qIPBWeBuNt36ezq26OiytcIw3Iea8Cucvg0SAW1fAYdWMEgaOE+QUP7NHT2mGgJ8X/RoxiiZGtqPtmnUZR49DwM9IcsnYOmmwPbJiCJpbSDobo45q1G8bR0o+mwuBDeFsVM56nNljrh7ixzMR8NLad2dOZG/afcxMJFb8wM+LJgkan4fB5mcVb59W7MIif/ZQeBvdbj9TJNMCNtoZW733JueB9gRJzsNUpeyaORYp9rNvD9+4Sufwm4kIeOFRin2bc51+P7E3+GJuBLzH47LMSexZ0Z5zIMP+oviDmrNp3n6OPuKnyxFgf1F83lpoHb+S0hABzxRKSEd8piQ/B6paPp25OKfqqT6kagfxu2UIeNGNMxan2rc51+tuy3qDD+ZCILeMrdPI7pnOPOUHGHUng9pL5ukkfrsEATuW/wtvO+Hto5f0BG/mQsBLQF9QCHEvl+S9U1WLPcxTC8FmmoB38Z33gFHqIbCpJG/o7qLfSr+mx1JKTQScsdUxwUogkW+5WWCqFi+PddK9ErBJrY1HVO0kfrcMgTsUZNOp8ZZtCcvoWO2DHDO2TiKnBfdx1WC57ldOMZ7zxt9JWKXw+beu6wX+mReBu+JAdeZAkiRyXrZKcsZWh+xPYeCJUYdj55wVGdI7D1be/bkgjGL0Q9VruL8o9RC4D5ztbFw7vF6XlX2UM7ZeUxBpX1yju70y5q8FYVRVKGL87kc1+otDViCwA5ztTIy+AAmrI5BzxtZJg+TvBmkw/FB33oIYdTdzRozmZev1vydqSHe8RYyu5+HM/3LN2DpJiPz5u2qGl9mK23SdeZjcpptpyhN/4BWj0+yB78Lhw226ibRc+kXOGVsnGZhDu1tU6hQWMIQz2kn9Nfz8m3U6jGOuRYAFDN3x9sNwcDYCuWdsHQ5io6+fqxidexyCzpTJ0u5uDPvz4zqEzyoh4FBKf2d21Mns0DmkKDMQyDlj66gADd87N/0jZuAy7Ws2vXYjRO6/90zrGL6bioCfj/4BMepEjJ4/tWf48tqoA7kHQB0K0OLXn0jyrckmxc8uFp+T/+PgsXeTTiv8WIcD+jm87cRunfWAMgGB3DO2ThIHz4r+fQIm83z8KYy6E6N+0DydxG+XIOBYk1+Ct53wtkr26CWdVcqbEjK2ThKj30hyhImmZT+MOrpRO5/W7Zp2XOHHvx/eRuetx6KqedKKomcJGVsnCZE/f0tLvf1sjDq6UZ9Lcr1Jga5yAAAIEUlEQVTG7H0hvI3OWy92ooxBoISMrZPEyM/HthmDSZ2PtissUsUkTGN+fnzNfWF1+jfXY5wPKmafcS3JgZgpIwhsWUDG1mnkP3QwM/LMsI2ysaSzMOyoA1tbs9o2+r+v5/C2hJLCfU0bD2J9x0q6EWspJWPrJIJ5f0WbK1q8vPtIxCiqGJHldcSoa749Dd5G462Ff9ua/ZTlYSVlbJ0kRt+TtHLLvfsyjDqaUV8paZ2W+6/U0+0Lb6Px9nxJ65dKtNF2l5SxdZIQ+fM9R4Fp4b09nosx7CiGfWIL/cUpViDgGSa36uI8O3P4Ko/BlEFuopIytk4SozMl+RlP28UzTkeRnnRdPm8Pm9e03XkFn28DSafA2yh2+5SCebak6SVlbJ028L89oHfidMLTrs13zfHx8z5Hlae0g4A99ffB2+B2631xFv7iS2kZWycN+ucFHsgclt+km3R9Pm+OzfcDPO8rfYC4P5wNbrOfKJ1kw/aXlrF10qAfeo3/2pK+i2EHNexdhqTmtTUEVpP0e3gbjLd+Jvfw1nqrpycqMWPrJCHyCqyHRuhHR2PwtSbVg8/rY3OhJA+clPYReBGcDWazDjvmu1NFlxIztk4a7H84SDmwbgQ23JQHwsGM+sAI/VfqJW5DSolgvH1FqaQatrvEjK2ThMgzld2GwER4fTleZuuG/VdJm0Tou5Iv8UZ42zpvnUW66FlRqRlbJ4mRd5nHXMlya7K/tm7U/xlwFWTJArS47Z4dsQCn/m3kcePPKxcDXOL/ztFzBV7OdQOil1zHLH5WZxI6X9I4gvLZfLhcEmhvWExO9OVa74SzrdnsOaXz9j6FB0AdHegdFeHuHYwEjv93AobdimF7bxglDgKbSTod3rbCW6foKLaYSL+CSEuIdJgk37bsojyNGeqSvhh1FKq8PzXyLdYueJLSNT2r350xpDFvfyxpzZQ6NmZdSs7YOmlQu7zj9f0m42cx7NqG7f0ZROeOOYqsuJaXzx8Hb2vz9h+Sto/fbWlc0XHR3kzAw2XkcXTurveleHk9tz3me0Y0dC4+QwK9zgaYe0n6I4K0bEwZcnPa67tazJXWGQHqXvgZrIIZS5qd6wLa8nHPYSPs2P6ZZtC/lrRRy/3A6aoj4Nt1eyBGc/P2ZyUv5d5CkvdgTDPsEr87o8NnRaMmv4akD7G6rjJHHQx1h1EQeR8dgdUlHcXYUpm3f5F0z+i9lMgFvdv/p5BlLFlSS0vtviJu3WynycvhSRGRyAAjaVNWhY4dX0YdfD/ffFY63Ra3Jn5O5HvqJMZaPsA5OveWcbuj0tVuxWrHmYbtkD/2yCnpIGBv/wKc3onc9Z5OO79tZ49OhwFTauL7uS+AHBPJccgU7Lr+6n6SzqXvxvadZ44IUdcMHX/9x0hyoNrRGQHvpQ+WvIz7YZL+BjHGGoa9lLuNt6dkPn3wIPX5n+m/Jf3336XvVk+GneMrYq/f++bg7fWC7LtSfqYWIwDz+F7p+FNnbMWzvp4Qo56Zk6/1oTxJkh94jta/xPdHs7G1D5S9to5OkeLwTCXydLTN3kPoZ8FFlnUGoW2+DBEmGoKjc3v3eB+Kb7U+gr0c+rqkW/Shw6jjtQj4WbW3kpxf8DjkRTZHDNK1O+RXscWRi1mwMNkrO6WHBNlxYNxnFmjY5rEz79rBovQPAT9DKvUOzXtL5q296CcQ52zijGg4fX5d/2z62hp7r9iPJF1diCh5H9H+JRt0T3m6uNorSdqusK0lfk6/z4C73jdYbPEDeZZWTp4RWYwu7eGsaDGhHW3gowUIkjdoez+GHSxK/xFw7q4jC9jQ7dBIjyw9PJUztp5UiMc8nOHUeT22/3Z9bRy9vTNN/+xZn2MF/htClAFTlzbBt1pfnanDbN56xdzWS5tc3jsytk6fDS0WrfdlRI87D6L+eqlzLrftPGvdl9tyGTF0eVM80/Vtu2Mycpy9SMPRQIq+LTfs6lcRYHPmcyILkh+G7zoELZNXz4idsdeLG/q6aOVfkr62EE7fzxgo+SOwwUKW47N7LEqXLdx69OMReCvJGVvJR19tZuSd4V1kc40xtPievB/2X9Qz4/at5WdKWjUGSFwjOQTuuBAc2JmWF9/BSPl/O32O9emVgvB2gVKbE8NsLgL/IvOptG+BOD6Yl/Y77l6qMyXv83KqdacesIdMKRsBD+jbSjo48X1JTobnzKx2nordxDqOqn5O5IfxKXsQqdXt8HFAZvqZk/W9MbHbdxahby8Y81qZ4k6zmiFwV0nvGKykTOn2nTNB+zayt80UmyJ8UrcOM7amNtinXh+vQCutOGqBkwd+XtLvOljs4L1CJy4MME6xjDGXxsD52+sZ/mYLz3e9HNzLpWMv0vHzoOMHuc7eNhCibTK/ozJ/Dy06goyt9WaE3jRactlkwcA/JskZUh2uJIQD4VVxXi1lQ34IAlQy5Rq33cJ020EUh+cOXj85CMJ6ekBh8jNlbyvwhtUHStduoWjcgJxPQMbWegOoNwOz4mWFZdjAN1zYy+OVeO+R9I3BbYiTBzH7zlmI9O6o5pOEys+iPONxZGbfTvHDXOfM8m1B38rwQ+m1czZC2tYJAo4I7k3fnmH7eaNzWn1L0i8XQg55EcQ03np2Zd56LDhrIZrJpwYrkR2R5XGS/AyemfscXet7qo7kzN98GDgdA2U6An6Q7MR+3nC6k6QnTuDZ4yU5Vt5dBgPC+mxOnQ4q3wZHYDVJXk3qlcXm7aSx0YLjGY8TarIAoWG3/D+P3Qd2WWGVVwAAAABJRU5ErkJggg==;rotation=-90;connectable=0;allowArrows=0;" vertex="1" parent="1">
          <mxGeometry x="1323.68" y="-113.13999999999999" width="76.32" height="56.28" as="geometry" />
        </mxCell>
        <mxCell id="s-IoeQ7TAPcg38dRmmtI-31" value="" style="endArrow=none;html=1;rounded=0;strokeWidth=2;bendable=0;" edge="1" parent="1">
          <mxGeometry width="50" height="50" relative="1" as="geometry">
            <mxPoint x="1420" y="320" as="sourcePoint" />
            <mxPoint x="330" y="320" as="targetPoint" />
          </mxGeometry>
        </mxCell>
        <mxCell id="h-0-y1XXke3g4Fu3jNhB-22" value="" style="shape=image;verticalLabelPosition=bottom;labelBackgroundColor=default;verticalAlign=top;aspect=fixed;imageAspect=0;image=data:image/png,iVBORw0KGgoAAAANSUhEUgAAAaMAAAE1CAYAAABKqo+qAAAAAXNSR0IArs4c6QAAIABJREFUeAHtnQe4PEWVxY8EiQIqiCCIAROgYmBVggkz5ghmAV0FRcxpRcWAYFoVAwZWEMWAYI6rAoqKsi4IiEoygCAqEg2k3Tn838B78yb0dHdVV1f96vveN29Cd1edOrfOre6qeyXKOARWkfQ0SUcX/HeopM3HgcNnIAACIAACcRB4nqQLJf1fwX9XSDpB0iZxIOcqIAACIAACQwQ8I3qmpMslXVWwEFmELUZ+/R4zpCE9eAUBEACBOAh4RnTJwiCMGF0/M2SGFId/XAUEQKBwBBbPiIa35hCj68WIGVLhBkLzQQAE4iCweEaEGK0QoeFtuiEefmWGFIePXAUEQKAwBMbNiIaDLzOjpTOjIS48QyrMSGguCIBAeATGzYiGgy5iNF6MmCGF5yVXAAEQKASBaTMixGjybbohNn5lhlSIsdBMEACBcAhMmxENB1xmRpNnRkOMeIYUjqOcGQRAIGMEqsyIhgMtYjRbjJghZWwsNA0EQCAcAlVmRIhRtdt0Q5z8ygwpHGc5MwiAQEYIzDMjGg6yzIyqzYyGePEMKSODoSkgAAJhEJhnRjQcXBGj+cSIGVIY7nJWEACBDBCoMyNCjOa/TTfEzK/MkDIwHJoAAiDQLgK7S7pY0jU1/q6scczodRYP0l38P1qfed47AsM8v1/8259JukW7XcnZQGAqAjeQtLakm/X8b0NJTf763P6pHdz3L49qEHnbg2sXApLKNZu038fer+/kof5JI2Dx2VjSLpIOknTcIAfZ6ZLOlvRb/nqJQdKEa1q5vQoXlK6E7V+S1mvaeRwPAhMQuMkgzcsrJP1mYfbeFc+5brsO+4TuzuPjey/KywNx2iXONDy/mwd9aEViCKws6RGSfkK+sSzv2iRGt3ars76kk5gdRSfuS9vtRs4GAlpd0sslXYQ9R7fnaY5nm99lTfOVFu4ntwkY55o+w/LCj22zZhWNi43AWoPFCe+U9E+EKFsh8riafXkOBI5K4FMkbZA9q2hgLATWkPQeSXZycATzxiAWpzq7zp0gcVQj/pgkz0gpINAUAT8jeivPfaPab5eC35QvyR/vgfEcBCkaob23iwICbSDwRFbLRbPbLkVoeO02OJP8OT6AGEUj9VbJs4EK9gGBrSWdhd1Gs9uhIHT52gdeNq6jPawuQS7l2udJ8q0VCgg0QWA1SUdjs8WNWU0405tj77AQFqgUUeiqnQf3hhFUNGUEno4QFSdEHrOKKF6R8y0IHpzgOxfBJhoZEoFbSzoDWw1uq105rNOuG5JXSZ37LRA8KMEvleSVixQQaILAfthpUDudJgZdf9eEN7069mGQPCjJvyNpzV4xgsqmhsDtJTmuYdeDItfvpg9S42Ow+jg0UJNI1BB0OkHt0VJAoC4CjsLtPUXYWbkY1OVOL487FrIHM/adeskIKp0KAp4VeTUmYlQuBqlwMUo9XgvZgxm7E4JRQKAuAq/ENoPZZl8Evi53enncDpKuhvStk/7HvWQDlU4FAWdo/RN22bpd9kWEhvVMhY9R6rHRQjbIYeN5beeWwOuj9B4XyRUB3+LFFsEgV36PbZfj1H0C4rdq+KQYH0s1PqyIwCrYZKv22GdRr0iZfH62J2LUKvkdP2zjfOhBSyIjsJmkP2KTrdpkXwUpMvW6v9xdIX6rxP8k8ei6J3WPa/BM7LFVe+yrELnexZVVJf0NA2jNAPYqjkE0uE0EvoAttmaLfRaiIsXIhuSAnn3vuFTqf/c2RybOVRQCNybiQuvjkFcL9/HvqqKYv6ixz0KMWjGCSyQ53D8FBOog8GDssBU7TMUxbVKP79YhUA7HOKCnB9Im4HGsdGgOZKANnSGwLzbIGCTpAkmbd8bCji/sTXY/wBAaG8KuHfcjl+8vAp5RfxUbbGyDOTjFL5Pk2ITFFkLVN5sZXiZpy2LZQ8ObIuC8RfaIcxhMaUP9fjx5ECDXi8qKLo/HEBoNBD+StE7RDKLxTRDYkSj6jewvBwF0upCHNiFRLsc6sCcpJep7NAfkQgTa0QkCvjWTw4BKG+r34/skOSoORdJJGETtAeFJMAgEGiDwaWyvtu3lIIAXSXKOOcoCAg7wmUPHxm6DZ5SEAMKMmiBwLrZX7NjjPUW7NyFPjsc+BIOoZRCnlr76JUdjiNimm3CLvJbdxXY6Q13vGElrRORbLy5l796BPkOBnut539SL3qWSqSKwDTZX7JjzD0m3S5WYXdbL4es/h2HMbRgP77LTuHbvEXgCNje3zeXi2H6w9+wN2AAH+sylo2O043eSNgnYH5w6fwRegs0VOeb49r7jEVImIHAfDGMuw3CUZc8oKSBQFwFvC4jhOHGNtHB+ZF3ClHKcw5J4mSHErYaBvVoKCNRFwGFfnAMLeysLg6/UJUxpxx2BcVQeHLYvjRy0t1UE7Px9A3urbG85iLbzxzk4NaUCAg74mUOnh27DpSzJrMAmfjINAT8zOAF7K2q82WMaIfhuKQJbk+SrknF8aSlsvAOBuRHYSNIZiFElewvtXMY4/+mSVp+bJQUf4ICfx2EgMw3kuQVzhKa3g8CtJP0ZW5tpazGEIvQ1/i7p/u3Qppyz+KHqezGQqQZyhSRSjJdjE6FaentJHqRCD4Scv3uMPyJp5VBEyvm8DvwJgSdjcLykdXMmAG2LgsCdCQVUxDjzJ0kO+0SpgYBvHyBGkzE4kHh0NVjFIaMI3BM7y36ccSDlPUc7nvfzIeAdwgjSeAx2ng9Kfg0CYxFgk/l4+8pp3Pm6JC/hpzRAYH/EaKIYb94AVw4FgSEC3qeW08BLW5b2p9NDbDHsbF7rI+AAoJBrOQa/4RZdfVJx5BIEdsDGsh5jyAC9hO713/i50XkYyzJjeXd9SDkSBJYgwMxoubOXiwPsdDxkb11C9/pvVpVEaKDlxkKAw/qc4silCNwbZ2+Zs5eDGHnRwo5Lu5p3TRF4NcayxFgukHSbpqByPAgsIHAP7GuJfeUgRG7DYZJWguXtIsBthKUzoy9KumG7EHO2ghHYUtLVCFJWgmSH1Y84KC0jsBZx6pYYyutaxpfTlY2AIzBcjhgtsbG+z45exgKncEbt2UDfCdJW/e8XDmbOXCACm0k6H/vKZnw5RpKftVMCIfBCjOVaY7lS0o0CYcxpy0Tg5pK8VaAtZ4nzdIflvySR3yywHfshq4EunehfC4wzpy8PAcc3/DG2lcXY8j4WLYQ34JtKOhGD0d7hoeYKhSHgxTB2ckp39Preft9qZU9RBON1SgkHBu07YZrU3ykjtomANZcoD4GDC7etJnaZwrEO+fP48mjbXYufVbjBnIzn0x35Mr/yfoXbVgqC0qQOR5O9Na6F3rZwg/kQyzXjEq6gq+1RuG01EYKuj71U0u0K4moSTfVu4t8XbDS7JtELVCJHBB5TsF11LSZNr79PjoTsQ5u8WqRp5/X1eMLA94Gh/azjXQu2q76OB663A6GSvbUjm3tCoUbzR3LXd8S4Mi67TqF21Wchct13KoOeabbSz40uLNBwPphmd1CrjBA4vUC76rMYfToj7vWyKU6d+40CjebJvewtKt0nBD5RoF31VYz+NojKTabnBKzrDYUZzUWslkmAdflXYc/C7KqvQuR6OxAqJQEEHlKY0Xxb0hoJ4E4V8kbgvoXZVV/F6Hj2FKVjiOtJ8o7jvpJp3nrvmw701CRjBDYpfOvEvHbZxe8dn3O7jDnYy6Z5x3EXZOjimg/vZQ9R6b4h4LQDRxVkV13YctNrfoRVtemZle+ZNu3YPhzvDJwOEksBgRgIvLoQu+qD7Y/W0dlb2VMUwwrmvIanqtcUYDg/nBMXfg4CTRBw4sbRQZD33WPisW6XJh3LseEQuJmkXxZgOK8KByFnBoFlCHihDCnIuxefUQfgWEne1kJJEAHHqcs97L29oR0SxJ4q5Y3AoQU4eaODfcrvnd2ZUGCJ29zzMjeaX0tySmgKCMREoNSQW6kK0utjdj7XqofAXTIXo0NIIVyPGBzVCIFbSDozc9tKVXhG6+VAqCxgakTnOAevLOnPGRvNC+LAyFVAYAkCzqr8/oztanTAT/W9b9MTCHUJNdN+89GMjWbrtKGndhkj8MCM7SpV8Rmt12HcGemXhXm542gn5vDekclX6VdXUNuMEDD3fIsoB1vqYxscj5JAqD0zqDtKujhDo/mvnvUD1c0PAQKndifG3tTv26WUHiGw5mD583czFKOn96gPqGqeCLCQoRsx+h9JDs1E6SECb81MjC5jX0EPWZhfle2ZvzYz20r9lp0DoW6fH5XKadGjMjOYYyStXU730dKEEdhQkp2j1AfxXOrnjfze0E/pKQIbZGYsb+9pP1DtPBEgeGocMT5f0vp5UqisVv00I0F6bFldR2sTR8DOnp9j5DL7SLEdBEJN3Ajmqd7rMjIWQgDN0/P8NgYCud0KT02QnJ9t9RgdyTXCI/CATFJK/Dw8VFwBBOZGwIsZDs/I4UtJjLxogUCoc1My3QM2yiSe1hvShZiaFY6A05KfiCC1frtyn8J5lV3zvQLlUz03FN83flB2PUODckLASS3/2XM7S2lW5CgXZG/NyUIW2vLCnhvJ2ZK80ZACAikjsOtg/9EVPbe1VASJQKgpM71B3e7ZcwP5jCRHIqeAQMoI+C7EXpL+0XN761qQPp1yJ1O3ZgjcUJIDDHZNsrrXf3Gz5nM0CERDwE6TU5z44Xtdvpd83N8IhBqNq51dqM/Pje7VGWpcGATmR8Ar7B4t6RwEaW5BdiBUSuYIPLunhnGJpNUy7xualycCd5B0pKSre2p7sWdox7OnKE9DGG3VVj29l/3Z0YbwHgR6hICfIz1c0nGstps6S/JtTa9IpBSAwI0Gy6N/2EMPbbcC+oYm5o+AZ/d3lvQ8SR9bECfHXIs9+0j1eh9hkVL+RrC4he/sGfm9b+MuixvA/yCQEQLeyJ2qOMSs1wXsKcqI1RWb8oSekf/Hktap2DZ+BgJ9QwAxkgiE2jfWtlRfhy1x58f0eppc6z0ttZvTgECKCCBG0rEsUEqRmuHr5CWnJ/dIjJ4cHhKuAAKdIVC6GF0p6U6doc+FO0fgzT0So1t2jhYVAIFwCJQuRq8PBy1n7gMCD+2JGJ0myTM5CgjkikDJYuQNwTfNtWNpVzUENpX0hx4I0tuqNYdfgUBvEShZjJxyg5IQAqsMEnN5l7YT4Hmlm9NqO3NkyD9fY7gBz0unh3++f3vVIpHyQge/b/tv8W50/+/ze8PbsB7D17cExiEkxpw7LIdzwbfPIbqaLEzysSclNA4XWZU1JG0r6UBJv5D090WDf9PO5fj+rBKkr+ir0jlwSpEKkECj1x7U4Y2S/BzEM5DSiUj74QAcKJsDiFFkYXIIEIf/8A5jjA8M4AAcgAMrOIAYRRSjLSX9qGebTDEUBks4AAdicAAxiiBGTq71NEmXMhtiNggH4AAcGMsBxCiwGHlfzAGSroCAYwkYw+PiGnj2cCB9DiBGAcVodUkfR4QQITgAB+DATA4gRoHEyAm0Dub50EwC4rGm77HSR/RRDA44RialZQS8cdXRpWN0INcAZzgAB3LgAJteWxYin+6p7B1CiHFG4AAcmIsDiFHLYrQDixXmImAOHh1tYGYCB5pzADFqUYw2kHQG3hBiBAfgAByYmwOIUUti5AULh0HAuQmIR9ncowRDMMyBA4hRS2L0aFbOIUQ4I3AADtTmAGLUghhtJOk8SFibhDl4dbSB2QkcaMYBxKgFMXL0bYgIBnAADsCB+hxAjBqK0RYjCeggY30ygh3YwYFyOYAYNRAjL1o4glkRs0I4AAfgQGMOIEYNxOhe7ClqTEA84XI9Yfqevl/MAcSogRgdgjeEGMEBOAAHWuEAYlRTjJwo7xpI2AoJF3tH/I+3DAfK5ABiVFOMDkKIECI4AAfgQGscQIxqiNEtJV0ECVsjIZ5wmZ4w/U6/L+YAYlRDjJ6FECFEcAAOwIFWOYAYzSlGTiN+IiRslYSLvSP+x1uGA2VyADGaU4y2QogQIjgAB+BA6xxAjOYUIzK4lum14a3T73AgLAcQoznEaC1JZ+IRte4RYeRhjRx8wbcPHECM5hCjbSRdjRghRnAADsCB1jmAGM0hRntDwNYJ2AePjToys4AD4TmAGM0hRscjRogRHIADcCAIBxCjimK0AbfoghAQjzO8xwnGYNwHDiBGFcXosXhDiBEcgANwIBgHEKOKYvQBSBiMhH3w2qgjsws4EJYDiFEFMVpN0q8QI8QIDsABOBCMA4hRBTHahMCowQiItxnW2wRf8O0LBxCjCmK0Pd4QYgQH4AAcCMoBxKiCGO0GCYOSsC+eG/VklgEHwnEAMaogRgciRogRHIADcCAoBxCjCmL0E0gYlIR4m+G8TbAF275wADGaIUarSPonYoQYwQE4AAeCcgAxmiFGTjHeF8+CetJXcAAO9JUDiNEMMdoBMUKM4QAcgAPBOYAYzRCjnSFhcBL21ZOj3sxC4EB7HECMZojRGxAjxAgOwAE4EJwDiNEMMToYEgYnId5le94lWIJlXzmAGM0Qo+8hRogRHIADcCA4BxCjKWK0kqRTIGFwEvbVk6PezELgQHscQIymiNEaks5CjBAjOAAH4EBwDiBGU8RoXUnnQMLgJMS7bM+7BEuw7CsHEKMpYuRU4xcgRogRHIADcCA4BxCjKWK0saQLIWFwEvbVk6PezELgQHscQIymiNGmki5GjBAjOAAH4EBwDiBGU8RoM0mXQcLgJMS7bM+7BEuw7CsHEKMpYnQrSZcjRogRHIADcCA4BxAjxCg4yfrqqVFvZhlwIB4HEKMpYsRtunhExOjBGg6UzQHEaIoYeQHDJUzPmTnBATgAB4JzADGaIkYs7S7bU8NTp//hQDwOIEZTxOhmbHoN7g1h7PGMHazBOmUOnCpp5SnjcdFfrUc4IMSI2zNwAA5E4cBVknYqWnGmNH5NAqVGIWHK3hp1YzYBB+Jx4DRJq08Zk4v9ylPGX+IVIUhwAA7AgWgc2EfSDYpVnSkNPwYSRiMhHmg8DxSswTpVDlwqaYspY3KxXx2KGCFGcAAOwIGoHDiKxQzLNXdfSBiVhKl6a9SLmQQciMuBpywfjsv+5JmIEWIEB+AAHIjOgXMlbVi2/Cxt/f0hYXQS4oHG9UDBG7xT5cD+S4fjst/dBjFCjOAAHIADnXDgGkn3KFuCrm/9DSVdARE7IWKq3hr1YiYBB+Jx4ARJ3vNJkXQiYoQYwQE4AAc648DuKNEKBA6ChJ2REA80ngcK1mCdKgcuknRzBEnaAzFCjOAAHIADnXLgcEmrlC5IrKjDY0zVY6RecLMUDlwpacfSxYiMrxh8KQZPO+F6yhw4RdJaJQuSo8iezhS90yl6ygZC3RjA4UA8DryxZDFy2w9BjBAjOAAH4EDnHHAg1S1LFqQnQ8LOSYj3Gc/7BGuwTpkDXyk5zcSmkrwbOOUOom70DxyAA6VwoOhAqichRogxHIADcCAJDpxTciDV10HCJEhYiudHO5nlwIHpHDig1GdH23KrDjHCIYEDcCAZDnjvUZGBVNeT9AeImAwR8Rqne43gAz4lcOCnpe49+jBihBjBATgAB5LhgBeW7Vbi7bp7Q8JkSFiC10cbmd3AgdkccCDVjUoTpJUl/RpBQpDgAByAA0lx4LOSPD4XVV4ECZMiIZ7jbM8RjMAodw54McODilIiSU5F7pAUuXcu7aOP4QAc6BMHTpO0RkmCdANJRyBGiDEcgANwIDkO7FNaqCCvbe+Tx0Bd6S84AAdK4IDvWm1R0uzIbf0GgoQgwwE4AAeS48BRpS1muJ+kqyBickQswfujjcxy4MB0DhQVSPWGkr6PGCFGcAAOwIHkOHCupJuXdLvOz45ILTHdQ8GDAx84AAe64MD+JYmR23oQXlFyXlEXxOeaDLhwIC0OeKJQVCDVW0n6K4KEIMEBOAAHkuPACZLWLGmG9AJImBwJ8VLT8lLpD/qjKw7sXpIYOSbSVxEkBAkOwAE4kBwHHEi1qMUMDhN0PkRMjohdeWNcl5kAHEiHA4dLWqWkGdJOkq5GkBAkOAAH4EBSHHAg1R1LEiO39TUIUlIkxDtNxzulL+iLLjlwSmlZYb0Z9hC8IgQJDsABOJAcB95U2uxoVUlfZENsckTs0ivj2swK4ED3HHAg1S1LE6QbLQgSBOyegPQBfQAH4MCQA18pLc2ExdczpIMJqMoMids1cAAOJMWBnUubHQ0F6SWSroCMSZFx6CXxiscMB8rjwDmSNixRkNzm7SR5NQfEBwM4AAfgQPccOKBUMXK71x4sanBa3MsQJUQZDsABONApB7z3qKhAquPEdyNJH5T0B1bcdUpGvNPuvVP6gD7okgM/K23v0ThB8mfrSXqspCMk+R4muZEwzC4Nk2vDv9I44DG3qECqk8Ro9PMNFkJWPGOQluJFkhwN/Pkjfzlkl/3hSJtG2zj6/pOSPKUuzVCqtPdiSS+dE89RfHm/3M7awORIODvRZs+U9OqFcc5j3Qs75PAuowMx72cj4EUQ/+o5wV3/J85u6nW/2Hhh1lhlYC71N59Y2EZwHWj80zkCfhZxec9tNaQ9eUbyjs57iQrUQsBJ/E7OgNzHS1q9IgLrD2aKP8igzSGN2ue2Yf9HRUz5WXgEbjm4/X4ivJ04K1psD7uWuAE1PAXDXcHx7hxeaHEn9vV/T82rlNUkvZ+gs5X7/B+StqkCLL8JioDTFHwhE1uNMcZcKOkuQXuEk7eGgMnt5eAxiBH6GudJct6nKsUPFVnQMV+//1aSb2tSukFgJUl7Z2KroceCxec/SZLDp1ESR+BRkvyQenHn9fX/D0hyVtxZZXNJp2fS5th99alZ4PJ9MATuJskOV+w+z+F63oBqMackisAdM9og6+n4PSvgvCa3ORoPZo+ogDM/aRcBPwf9KUJUm7te2HTfdruEs7WFwE0kfTMjcn+5oufzZJZx1zbooYd86sIetra4yHlmI/DsjGx1yKPYr8dJ8vNxSkII+DlRTgn6nIr98RXwvSmrkBoL0XAAeVcFvPlJOwjcWtJZiFEr3H1xO13CWdpA4AaSnp4Zsb3M1cu0Z5WXkW6jFYO2IF0yCDl1s1mA830rCOyXmb0OHZouXouOpt0KG1s8yQMGK3IuyojcnhVV8XZuuxCrrwsDyPWaXhpv54YSDgGvDr0qI3tNwRZeE667OHNVBG4u6VeZEdvLjb0JcFZ5VWbtTsGovWjEm6UpYRCw0L8Z3rY2mx/azJ945hmGsFXP6nX2n8+Q2FWeXfhZ0WkZtn1oXF2+HlSVgPxubgS8BeGP8LZ1MbK9VN0cP3enccBsBLyx1be0uhy42r62owJsP7vp2o0VdMH63bMjL5entI+AA9S2bTOcbwWmZ0hap/0u44zTEPBU3/nYcyShZ3qzlmo64eDRmbY/lT71ghhKuwh4XxGzorDj1k7tdhlnm4XAnQapInyPNJWBq616/FPSk2Y1XtK2GUQibwuzUOc5RpK3C1DaQ2DHDG02FP/qnvew9rqLM81CwMn1co3uW3UD2/4YdXBHxLdLt5hFRr6vjIDvZhwIb4Pz1qsUneONEhgB3776eMaE9p6hWcUY/CRjDOp6hCGOI8XELDZW/977t34Jb4OLke3gqdW7hV/WRWCvjKNSe+PaZhWA8eIGb84MMfhyzqW4/qJCf/CTagg8DM5Gs9nvVAwjVq3n+NUyBO6dUQDUcYP+eysS6BUYdTSjdtr2dZcxkQ/qIPBWeBuNt36ezq26OiytcIw3Iea8Cucvg0SAW1fAYdWMEgaOE+QUP7NHT2mGgJ8X/RoxiiZGtqPtmnUZR49DwM9IcsnYOmmwPbJiCJpbSDobo45q1G8bR0o+mwuBDeFsVM56nNljrh7ixzMR8NLad2dOZG/afcxMJFb8wM+LJgkan4fB5mcVb59W7MIif/ZQeBvdbj9TJNMCNtoZW733JueB9gRJzsNUpeyaORYp9rNvD9+4Sufwm4kIeOFRin2bc51+P7E3+GJuBLzH47LMSexZ0Z5zIMP+oviDmrNp3n6OPuKnyxFgf1F83lpoHb+S0hABzxRKSEd8piQ/B6paPp25OKfqqT6kagfxu2UIeNGNMxan2rc51+tuy3qDD+ZCILeMrdPI7pnOPOUHGHUng9pL5ukkfrsEATuW/wtvO+Hto5f0BG/mQsBLQF9QCHEvl+S9U1WLPcxTC8FmmoB38Z33gFHqIbCpJG/o7qLfSr+mx1JKTQScsdUxwUogkW+5WWCqFi+PddK9ErBJrY1HVO0kfrcMgTsUZNOp8ZZtCcvoWO2DHDO2TiKnBfdx1WC57ldOMZ7zxt9JWKXw+beu6wX+mReBu+JAdeZAkiRyXrZKcsZWh+xPYeCJUYdj55wVGdI7D1be/bkgjGL0Q9VruL8o9RC4D5ztbFw7vF6XlX2UM7ZeUxBpX1yju70y5q8FYVRVKGL87kc1+otDViCwA5ztTIy+AAmrI5BzxtZJg+TvBmkw/FB33oIYdTdzRozmZev1vydqSHe8RYyu5+HM/3LN2DpJiPz5u2qGl9mK23SdeZjcpptpyhN/4BWj0+yB78Lhw226ibRc+kXOGVsnGZhDu1tU6hQWMIQz2kn9Nfz8m3U6jGOuRYAFDN3x9sNwcDYCuWdsHQ5io6+fqxidexyCzpTJ0u5uDPvz4zqEzyoh4FBKf2d21Mns0DmkKDMQyDlj66gADd87N/0jZuAy7Ws2vXYjRO6/90zrGL6bioCfj/4BMepEjJ4/tWf48tqoA7kHQB0K0OLXn0jyrckmxc8uFp+T/+PgsXeTTiv8WIcD+jm87cRunfWAMgGB3DO2ThIHz4r+fQIm83z8KYy6E6N+0DydxG+XIOBYk1+Ct53wtkr26CWdVcqbEjK2ThKj30hyhImmZT+MOrpRO5/W7Zp2XOHHvx/eRuetx6KqedKKomcJGVsnCZE/f0tLvf1sjDq6UZ9Lcr1Jga5yAAAIEUlEQVTG7H0hvI3OWy92ooxBoISMrZPEyM/HthmDSZ2PtissUsUkTGN+fnzNfWF1+jfXY5wPKmafcS3JgZgpIwhsWUDG1mnkP3QwM/LMsI2ysaSzMOyoA1tbs9o2+r+v5/C2hJLCfU0bD2J9x0q6EWspJWPrJIJ5f0WbK1q8vPtIxCiqGJHldcSoa749Dd5G462Ff9ua/ZTlYSVlbJ0kRt+TtHLLvfsyjDqaUV8paZ2W+6/U0+0Lb6Px9nxJ65dKtNF2l5SxdZIQ+fM9R4Fp4b09nosx7CiGfWIL/cUpViDgGSa36uI8O3P4Ko/BlEFuopIytk4SozMl+RlP28UzTkeRnnRdPm8Pm9e03XkFn28DSafA2yh2+5SCebak6SVlbJ028L89oHfidMLTrs13zfHx8z5Hlae0g4A99ffB2+B2631xFv7iS2kZWycN+ucFHsgclt+km3R9Pm+OzfcDPO8rfYC4P5wNbrOfKJ1kw/aXlrF10qAfeo3/2pK+i2EHNexdhqTmtTUEVpP0e3gbjLd+Jvfw1nqrpycqMWPrJCHyCqyHRuhHR2PwtSbVg8/rY3OhJA+clPYReBGcDWazDjvmu1NFlxIztk4a7H84SDmwbgQ23JQHwsGM+sAI/VfqJW5DSolgvH1FqaQatrvEjK2ThMgzld2GwER4fTleZuuG/VdJm0Tou5Iv8UZ42zpvnUW66FlRqRlbJ4mRd5nHXMlya7K/tm7U/xlwFWTJArS47Z4dsQCn/m3kcePPKxcDXOL/ztFzBV7OdQOil1zHLH5WZxI6X9I4gvLZfLhcEmhvWExO9OVa74SzrdnsOaXz9j6FB0AdHegdFeHuHYwEjv93AobdimF7bxglDgKbSTod3rbCW6foKLaYSL+CSEuIdJgk37bsojyNGeqSvhh1FKq8PzXyLdYueJLSNT2r350xpDFvfyxpzZQ6NmZdSs7YOmlQu7zj9f0m42cx7NqG7f0ZROeOOYqsuJaXzx8Hb2vz9h+Sto/fbWlc0XHR3kzAw2XkcXTurveleHk9tz3me0Y0dC4+QwK9zgaYe0n6I4K0bEwZcnPa67tazJXWGQHqXvgZrIIZS5qd6wLa8nHPYSPs2P6ZZtC/lrRRy/3A6aoj4Nt1eyBGc/P2ZyUv5d5CkvdgTDPsEr87o8NnRaMmv4akD7G6rjJHHQx1h1EQeR8dgdUlHcXYUpm3f5F0z+i9lMgFvdv/p5BlLFlSS0vtviJu3WynycvhSRGRyAAjaVNWhY4dX0YdfD/ffFY63Ra3Jn5O5HvqJMZaPsA5OveWcbuj0tVuxWrHmYbtkD/2yCnpIGBv/wKc3onc9Z5OO79tZ49OhwFTauL7uS+AHBPJccgU7Lr+6n6SzqXvxvadZ44IUdcMHX/9x0hyoNrRGQHvpQ+WvIz7YZL+BjHGGoa9lLuNt6dkPn3wIPX5n+m/Jf3336XvVk+GneMrYq/f++bg7fWC7LtSfqYWIwDz+F7p+FNnbMWzvp4Qo56Zk6/1oTxJkh94jta/xPdHs7G1D5S9to5OkeLwTCXydLTN3kPoZ8FFlnUGoW2+DBEmGoKjc3v3eB+Kb7U+gr0c+rqkW/Shw6jjtQj4WbW3kpxf8DjkRTZHDNK1O+RXscWRi1mwMNkrO6WHBNlxYNxnFmjY5rEz79rBovQPAT9DKvUOzXtL5q296CcQ52zijGg4fX5d/2z62hp7r9iPJF1diCh5H9H+JRt0T3m6uNorSdqusK0lfk6/z4C73jdYbPEDeZZWTp4RWYwu7eGsaDGhHW3gowUIkjdoez+GHSxK/xFw7q4jC9jQ7dBIjyw9PJUztp5UiMc8nOHUeT22/3Z9bRy9vTNN/+xZn2MF/htClAFTlzbBt1pfnanDbN56xdzWS5tc3jsytk6fDS0WrfdlRI87D6L+eqlzLrftPGvdl9tyGTF0eVM80/Vtu2Mycpy9SMPRQIq+LTfs6lcRYHPmcyILkh+G7zoELZNXz4idsdeLG/q6aOVfkr62EE7fzxgo+SOwwUKW47N7LEqXLdx69OMReCvJGVvJR19tZuSd4V1kc40xtPievB/2X9Qz4/at5WdKWjUGSFwjOQTuuBAc2JmWF9/BSPl/O32O9emVgvB2gVKbE8NsLgL/IvOptG+BOD6Yl/Y77l6qMyXv83KqdacesIdMKRsBD+jbSjo48X1JTobnzKx2nordxDqOqn5O5IfxKXsQqdXt8HFAZvqZk/W9MbHbdxahby8Y81qZ4k6zmiFwV0nvGKykTOn2nTNB+zayt80UmyJ8UrcOM7amNtinXh+vQCutOGqBkwd+XtLvOljs4L1CJy4MME6xjDGXxsD52+sZ/mYLz3e9HNzLpWMv0vHzoOMHuc7eNhCibTK/ozJ/Dy06goyt9WaE3jRactlkwcA/JskZUh2uJIQD4VVxXi1lQ34IAlQy5Rq33cJ020EUh+cOXj85CMJ6ekBh8jNlbyvwhtUHStduoWjcgJxPQMbWegOoNwOz4mWFZdjAN1zYy+OVeO+R9I3BbYiTBzH7zlmI9O6o5pOEys+iPONxZGbfTvHDXOfM8m1B38rwQ+m1czZC2tYJAo4I7k3fnmH7eaNzWn1L0i8XQg55EcQ03np2Zd56LDhrIZrJpwYrkR2R5XGS/AyemfscXet7qo7kzN98GDgdA2U6An6Q7MR+3nC6k6QnTuDZ4yU5Vt5dBgPC+mxOnQ4q3wZHYDVJXk3qlcXm7aSx0YLjGY8TarIAoWG3/D+P3Qd2WWGVVwAAAABJRU5ErkJggg==;rotation=-180;connectable=0;allowArrows=0;textShadow=0;" vertex="1" parent="1">
          <mxGeometry x="837.34" y="-601.28" width="76.32" height="56.28" as="geometry" />
        </mxCell>
        <mxCell id="s-IoeQ7TAPcg38dRmmtI-326" value="" style="endArrow=none;html=1;rounded=0;strokeWidth=2;entryX=0;entryY=0;entryDx=0;entryDy=0;bendable=0;" edge="1" parent="1">
          <mxGeometry width="50" height="50" relative="1" as="geometry">
            <mxPoint x="1420" y="-490" as="sourcePoint" />
            <mxPoint x="330" y="-490" as="targetPoint" />
          </mxGeometry>
        </mxCell>
        <mxCell id="h-0-y1XXke3g4Fu3jNhB-24" value="BOARDWALK" style="text;html=1;align=center;verticalAlign=top;whiteSpace=wrap;rounded=0;allowArrows=0;connectable=0;fontSize=11;textShadow=1;rotation=-90;" vertex="1" parent="1">
          <mxGeometry x="1310" y="240" width="90" height="70" as="geometry" />
        </mxCell>
        <mxCell id="h-0-y1XXke3g4Fu3jNhB-25" value="&lt;strike style=&quot;font-size: 11px;&quot;&gt;&lt;font face=&quot;Comic Sans MS&quot; style=&quot;font-size: 11px;&quot;&gt;M&lt;/font&gt;&lt;/strike&gt;&lt;font face=&quot;Comic Sans MS&quot; style=&quot;font-size: 11px;&quot;&gt;&amp;nbsp;400&lt;/font&gt;" style="text;html=1;align=center;verticalAlign=middle;whiteSpace=wrap;rounded=0;connectable=0;allowArrows=0;fontSize=11;textShadow=1;rotation=-90;" vertex="1" parent="1">
          <mxGeometry x="1360" y="260" width="90" height="30" as="geometry" />
        </mxCell>
        <mxCell id="h-0-y1XXke3g4Fu3jNhB-26" value="PARK&lt;br&gt;PLACE" style="text;html=1;align=center;verticalAlign=top;whiteSpace=wrap;rounded=0;allowArrows=0;connectable=0;fontSize=11;textShadow=1;rotation=-90;" vertex="1" parent="1">
          <mxGeometry x="1310" y="60" width="90" height="70" as="geometry" />
        </mxCell>
        <mxCell id="h-0-y1XXke3g4Fu3jNhB-27" value="&lt;strike style=&quot;font-size: 11px;&quot;&gt;&lt;font face=&quot;Comic Sans MS&quot; style=&quot;font-size: 11px;&quot;&gt;M&lt;/font&gt;&lt;/strike&gt;&lt;font face=&quot;Comic Sans MS&quot; style=&quot;font-size: 11px;&quot;&gt;&amp;nbsp;350&lt;/font&gt;" style="text;html=1;align=center;verticalAlign=middle;whiteSpace=wrap;rounded=0;connectable=0;allowArrows=0;fontSize=11;textShadow=1;rotation=-90;" vertex="1" parent="1">
          <mxGeometry x="1360" y="80" width="90" height="30" as="geometry" />
        </mxCell>
        <mxCell id="h-0-y1XXke3g4Fu3jNhB-29" value="&lt;font color=&quot;#fc8118&quot; face=&quot;Times New Roman&quot; style=&quot;font-size: 90px;&quot;&gt;&lt;b style=&quot;&quot;&gt;?&lt;/b&gt;&lt;/font&gt;" style="text;html=1;align=center;verticalAlign=middle;resizable=0;points=[];autosize=1;strokeColor=none;fillColor=none;textShadow=1;rotation=-90;" vertex="1" parent="1">
          <mxGeometry x="1323.05" y="-55" width="70" height="120" as="geometry" />
        </mxCell>
        <mxCell id="h-0-y1XXke3g4Fu3jNhB-31" value="&lt;font face=&quot;Helvetica&quot;&gt;CHANCE&lt;/font&gt;" style="text;html=1;align=center;verticalAlign=middle;whiteSpace=wrap;rounded=0;connectable=0;allowArrows=0;fontSize=11;textShadow=1;rotation=-90;" vertex="1" parent="1">
          <mxGeometry x="1255.5" y="-5" width="90" height="20" as="geometry" />
        </mxCell>
        <mxCell id="s-IoeQ7TAPcg38dRmmtI-65" value="" style="endArrow=none;html=1;rounded=0;strokeWidth=2;bendable=0;" edge="1" parent="1">
          <mxGeometry width="50" height="50" relative="1" as="geometry">
            <mxPoint x="470" y="460" as="sourcePoint" />
            <mxPoint x="470" y="-630" as="targetPoint" />
          </mxGeometry>
        </mxCell>
        <mxCell id="h-0-y1XXke3g4Fu3jNhB-33" value="" style="endArrow=none;html=1;rounded=0;strokeWidth=2;entryX=0;entryY=0;entryDx=0;entryDy=0;bendable=0;" edge="1" parent="1">
          <mxGeometry width="50" height="50" relative="1" as="geometry">
            <mxPoint x="1010.5" y="-520.35" as="sourcePoint" />
            <mxPoint x="920" y="-520" as="targetPoint" />
          </mxGeometry>
        </mxCell>
        <mxCell id="h-0-y1XXke3g4Fu3jNhB-34" value="ATLANTIC&lt;br&gt;AVENUE" style="text;html=1;align=center;verticalAlign=top;whiteSpace=wrap;rounded=0;allowArrows=0;connectable=0;fontSize=11;textShadow=1;rotation=-181;" vertex="1" parent="1">
          <mxGeometry x="920" y="-600" width="90" height="70" as="geometry" />
        </mxCell>
        <mxCell id="h-0-y1XXke3g4Fu3jNhB-35" value="&lt;strike style=&quot;font-size: 11px;&quot;&gt;&lt;font face=&quot;Comic Sans MS&quot; style=&quot;font-size: 11px;&quot;&gt;M&lt;/font&gt;&lt;/strike&gt;&lt;font face=&quot;Comic Sans MS&quot; style=&quot;font-size: 11px;&quot;&gt;&amp;nbsp;260&lt;/font&gt;" style="text;html=1;align=center;verticalAlign=middle;whiteSpace=wrap;rounded=0;connectable=0;allowArrows=0;fontSize=11;textShadow=1;rotation=-180;" vertex="1" parent="1">
          <mxGeometry x="920" y="-630" width="90" height="30" as="geometry" />
        </mxCell>
        <mxCell id="h-0-y1XXke3g4Fu3jNhB-36" value="&lt;strike style=&quot;font-size: 11px;&quot;&gt;&lt;font face=&quot;Comic Sans MS&quot; style=&quot;font-size: 11px;&quot;&gt;M&lt;/font&gt;&lt;/strike&gt;&lt;font face=&quot;Comic Sans MS&quot; style=&quot;font-size: 11px;&quot;&gt;&amp;nbsp;150&lt;/font&gt;" style="text;html=1;align=center;verticalAlign=middle;whiteSpace=wrap;rounded=0;connectable=0;allowArrows=0;fontSize=11;textShadow=1;rotation=-180;" vertex="1" parent="1">
          <mxGeometry x="1100" y="-630" width="90" height="30" as="geometry" />
        </mxCell>
        <mxCell id="h-0-y1XXke3g4Fu3jNhB-37" value="" style="shape=mxgraph.signs.food.drinking_water_2;html=1;pointerEvents=1;fillColor=#ffffff;strokeColor=default;verticalLabelPosition=bottom;verticalAlign=top;align=center;rotation=-180;shadow=1;" vertex="1" parent="1">
          <mxGeometry x="1122" y="-601" width="46" height="58" as="geometry" />
        </mxCell>
        <mxCell id="h-0-y1XXke3g4Fu3jNhB-40" value="LUXURY&lt;br&gt;TAX" style="text;html=1;align=center;verticalAlign=top;whiteSpace=wrap;rounded=0;allowArrows=0;connectable=0;fontSize=11;rotation=-90;textShadow=1;" vertex="1" parent="1">
          <mxGeometry x="1260" y="160" width="90" height="50" as="geometry" />
        </mxCell>
        <mxCell id="h-0-y1XXke3g4Fu3jNhB-41" value="&lt;span style=&quot;font-size: 11px;&quot;&gt;&lt;font style=&quot;font-size: 11px;&quot;&gt;&lt;font face=&quot;Helvetica&quot;&gt;PAY &lt;/font&gt;&lt;strike style=&quot;font-family: &amp;quot;Comic Sans MS&amp;quot;;&quot;&gt;M&lt;/strike&gt;&lt;/font&gt;&lt;/span&gt;&lt;font face=&quot;Comic Sans MS&quot; style=&quot;font-size: 11px;&quot;&gt;&amp;nbsp;150&lt;/font&gt;" style="text;html=1;align=center;verticalAlign=middle;whiteSpace=wrap;rounded=0;connectable=0;allowArrows=0;fontSize=11;textShadow=1;rotation=-90;" vertex="1" parent="1">
          <mxGeometry x="1360" y="170" width="90" height="30" as="geometry" />
        </mxCell>
        <mxCell id="h-0-y1XXke3g4Fu3jNhB-43" value="&lt;strike style=&quot;font-size: 11px;&quot;&gt;&lt;font face=&quot;Comic Sans MS&quot; style=&quot;font-size: 11px;&quot;&gt;M&lt;/font&gt;&lt;/strike&gt;&lt;font face=&quot;Comic Sans MS&quot; style=&quot;font-size: 11px;&quot;&gt;&amp;nbsp;320&lt;/font&gt;" style="text;html=1;align=center;verticalAlign=middle;whiteSpace=wrap;rounded=0;connectable=0;allowArrows=0;fontSize=11;textShadow=1;rotation=-90;" vertex="1" parent="1">
          <mxGeometry x="1360" y="-190" width="90" height="30" as="geometry" />
        </mxCell>
        <mxCell id="h-0-y1XXke3g4Fu3jNhB-44" value="&lt;strike style=&quot;font-size: 11px;&quot;&gt;&lt;font face=&quot;Comic Sans MS&quot; style=&quot;font-size: 11px;&quot;&gt;M&lt;/font&gt;&lt;/strike&gt;&lt;font face=&quot;Comic Sans MS&quot; style=&quot;font-size: 11px;&quot;&gt;&amp;nbsp;300&lt;/font&gt;" style="text;html=1;align=center;verticalAlign=middle;whiteSpace=wrap;rounded=0;connectable=0;allowArrows=0;fontSize=11;textShadow=1;rotation=-90;" vertex="1" parent="1">
          <mxGeometry x="1360" y="-370" width="90" height="30" as="geometry" />
        </mxCell>
        <mxCell id="h-0-y1XXke3g4Fu3jNhB-45" value="&lt;strike style=&quot;font-size: 11px;&quot;&gt;&lt;font face=&quot;Comic Sans MS&quot; style=&quot;font-size: 11px;&quot;&gt;M&lt;/font&gt;&lt;/strike&gt;&lt;font face=&quot;Comic Sans MS&quot; style=&quot;font-size: 11px;&quot;&gt;&amp;nbsp;300&lt;/font&gt;" style="text;html=1;align=center;verticalAlign=middle;whiteSpace=wrap;rounded=0;connectable=0;allowArrows=0;fontSize=11;textShadow=1;rotation=-90;" vertex="1" parent="1">
          <mxGeometry x="1360" y="-460" width="90" height="30" as="geometry" />
        </mxCell>
        <mxCell id="h-0-y1XXke3g4Fu3jNhB-46" value="PENNSLVANIA&lt;br&gt;AVENUE" style="text;html=1;align=center;verticalAlign=top;whiteSpace=wrap;rounded=0;allowArrows=0;connectable=0;fontSize=11;textShadow=1;rotation=-90;" vertex="1" parent="1">
          <mxGeometry x="1310" y="-210" width="90" height="70" as="geometry" />
        </mxCell>
        <mxCell id="h-0-y1XXke3g4Fu3jNhB-47" value="NORTH&lt;br&gt;CAROLINA&lt;br&gt;AVENUE" style="text;html=1;align=center;verticalAlign=top;whiteSpace=wrap;rounded=0;allowArrows=0;connectable=0;fontSize=11;textShadow=1;rotation=-90;" vertex="1" parent="1">
          <mxGeometry x="1310" y="-390" width="90" height="70" as="geometry" />
        </mxCell>
        <mxCell id="h-0-y1XXke3g4Fu3jNhB-48" value="PACIFIC&lt;br&gt;AVENUE" style="text;html=1;align=center;verticalAlign=top;whiteSpace=wrap;rounded=0;allowArrows=0;connectable=0;fontSize=11;textShadow=1;rotation=-90;" vertex="1" parent="1">
          <mxGeometry x="1310" y="-480" width="90" height="70" as="geometry" />
        </mxCell>
        <mxCell id="s-IoeQ7TAPcg38dRmmtI-150" value="" style="whiteSpace=wrap;html=1;aspect=fixed;connectable=0;allowArrows=0;rotation=45;" vertex="1" parent="1">
          <mxGeometry x="385.55583333333334" y="336.44555555555553" width="66.66666666666667" height="66.66666666666667" as="geometry" />
        </mxCell>
        <mxCell id="s-IoeQ7TAPcg38dRmmtI-152" value="" style="shape=actor;whiteSpace=wrap;html=1;connectable=0;allowArrows=0;rotation=45;" vertex="1" parent="1">
          <mxGeometry x="402.22333333333336" y="356.44555555555553" width="33.335" height="50" as="geometry" />
        </mxCell>
        <mxCell id="s-IoeQ7TAPcg38dRmmtI-153" value="" style="endArrow=none;html=1;rounded=0;shadow=1;" edge="1" parent="1">
          <mxGeometry width="50" height="50" relative="1" as="geometry">
            <mxPoint x="383.3335" y="382.0011111111111" as="sourcePoint" />
            <mxPoint x="431.1136666666667" y="334.2233333333333" as="targetPoint" />
          </mxGeometry>
        </mxCell>
        <mxCell id="s-IoeQ7TAPcg38dRmmtI-154" value="" style="endArrow=none;html=1;rounded=0;shadow=1;" edge="1" parent="1">
          <mxGeometry width="50" height="50" relative="1" as="geometry">
            <mxPoint x="395.5563333333333" y="393.1122222222222" as="sourcePoint" />
            <mxPoint x="442.2253333333333" y="346.44555555555553" as="targetPoint" />
          </mxGeometry>
        </mxCell>
        <mxCell id="s-IoeQ7TAPcg38dRmmtI-155" value="" style="endArrow=none;html=1;rounded=0;shadow=1;" edge="1" parent="1">
          <mxGeometry width="50" height="50" relative="1" as="geometry">
            <mxPoint x="406.668" y="405.33444444444444" as="sourcePoint" />
            <mxPoint x="454.4481666666667" y="357.5566666666667" as="targetPoint" />
          </mxGeometry>
        </mxCell>
        <mxCell id="s-IoeQ7TAPcg38dRmmtI-159" value="IN" style="text;html=1;align=center;verticalAlign=middle;whiteSpace=wrap;rounded=0;rotation=45;textShadow=1;" vertex="1" parent="1">
          <mxGeometry x="415.5573333333333" y="332.0011111111111" width="66.67" height="16.666666666666668" as="geometry" />
        </mxCell>
        <mxCell id="s-IoeQ7TAPcg38dRmmtI-160" value="JAIL" style="text;html=1;align=center;verticalAlign=middle;whiteSpace=wrap;rounded=0;rotation=45;textShadow=1;" vertex="1" parent="1">
          <mxGeometry x="355.5543333333333" y="390.89" width="66.67" height="16.666666666666668" as="geometry" />
        </mxCell>
        <mxCell id="s-IoeQ7TAPcg38dRmmtI-164" value="" style="endArrow=none;html=1;rounded=0;strokeWidth=2;bendable=0;" edge="1" parent="1">
          <mxGeometry width="50" height="50" relative="1" as="geometry">
            <mxPoint x="470" y="420.89" as="sourcePoint" />
            <mxPoint x="370" y="421" as="targetPoint" />
          </mxGeometry>
        </mxCell>
        <mxCell id="h-0-y1XXke3g4Fu3jNhB-49" value="COMMUNITY&lt;br&gt;CHEST" style="text;html=1;align=center;verticalAlign=top;whiteSpace=wrap;rounded=0;allowArrows=0;connectable=0;fontSize=11;textShadow=1;rotation=-90;" vertex="1" parent="1">
          <mxGeometry x="1260" y="-290" width="90" height="50" as="geometry" />
        </mxCell>
        <mxCell id="h-0-y1XXke3g4Fu3jNhB-50" value="COMMUNITY&lt;br&gt;CHEST" style="text;html=1;align=center;verticalAlign=top;whiteSpace=wrap;rounded=0;allowArrows=0;connectable=0;fontSize=11;textShadow=1;rotation=90;" vertex="1" parent="1">
          <mxGeometry x="400" y="-290" width="90" height="50" as="geometry" />
        </mxCell>
        <mxCell id="h-0-y1XXke3g4Fu3jNhB-51" value="&lt;strike style=&quot;font-size: 11px;&quot;&gt;&lt;font face=&quot;Comic Sans MS&quot; style=&quot;font-size: 11px;&quot;&gt;M&lt;/font&gt;&lt;/strike&gt;&lt;font face=&quot;Comic Sans MS&quot; style=&quot;font-size: 11px;&quot;&gt;&amp;nbsp;140&lt;/font&gt;" style="text;html=1;align=center;verticalAlign=middle;whiteSpace=wrap;rounded=0;connectable=0;allowArrows=0;fontSize=11;textShadow=1;rotation=90;" vertex="1" parent="1">
          <mxGeometry x="300" y="260" width="90" height="30" as="geometry" />
        </mxCell>
        <mxCell id="h-0-y1XXke3g4Fu3jNhB-52" value="&lt;strike style=&quot;font-size: 11px;&quot;&gt;&lt;font face=&quot;Comic Sans MS&quot; style=&quot;font-size: 11px;&quot;&gt;M&lt;/font&gt;&lt;/strike&gt;&lt;font face=&quot;Comic Sans MS&quot; style=&quot;font-size: 11px;&quot;&gt;&amp;nbsp;150&lt;/font&gt;" style="text;html=1;align=center;verticalAlign=middle;whiteSpace=wrap;rounded=0;connectable=0;allowArrows=0;fontSize=11;textShadow=1;rotation=90;" vertex="1" parent="1">
          <mxGeometry x="300" y="170" width="90" height="30" as="geometry" />
        </mxCell>
        <mxCell id="h-0-y1XXke3g4Fu3jNhB-53" value="&lt;strike style=&quot;font-size: 11px;&quot;&gt;&lt;font face=&quot;Comic Sans MS&quot; style=&quot;font-size: 11px;&quot;&gt;M&lt;/font&gt;&lt;/strike&gt;&lt;font face=&quot;Comic Sans MS&quot; style=&quot;font-size: 11px;&quot;&gt;&amp;nbsp;140&lt;/font&gt;" style="text;html=1;align=center;verticalAlign=middle;whiteSpace=wrap;rounded=0;connectable=0;allowArrows=0;fontSize=11;textShadow=1;rotation=90;" vertex="1" parent="1">
          <mxGeometry x="300" y="80" width="90" height="30" as="geometry" />
        </mxCell>
        <mxCell id="h-0-y1XXke3g4Fu3jNhB-54" value="&lt;strike style=&quot;font-size: 11px;&quot;&gt;&lt;font face=&quot;Comic Sans MS&quot; style=&quot;font-size: 11px;&quot;&gt;M&lt;/font&gt;&lt;/strike&gt;&lt;font face=&quot;Comic Sans MS&quot; style=&quot;font-size: 11px;&quot;&gt;&amp;nbsp;160&lt;/font&gt;" style="text;html=1;align=center;verticalAlign=middle;whiteSpace=wrap;rounded=0;connectable=0;allowArrows=0;fontSize=11;textShadow=1;rotation=90;" vertex="1" parent="1">
          <mxGeometry x="300" y="-10" width="90" height="30" as="geometry" />
        </mxCell>
        <mxCell id="h-0-y1XXke3g4Fu3jNhB-55" value="&lt;strike style=&quot;font-size: 11px;&quot;&gt;&lt;font face=&quot;Comic Sans MS&quot; style=&quot;font-size: 11px;&quot;&gt;M&lt;/font&gt;&lt;/strike&gt;&lt;font face=&quot;Comic Sans MS&quot; style=&quot;font-size: 11px;&quot;&gt;&amp;nbsp;200&lt;/font&gt;" style="text;html=1;align=center;verticalAlign=middle;whiteSpace=wrap;rounded=0;connectable=0;allowArrows=0;fontSize=11;textShadow=1;rotation=90;" vertex="1" parent="1">
          <mxGeometry x="300" y="-100" width="90" height="30" as="geometry" />
        </mxCell>
        <mxCell id="h-0-y1XXke3g4Fu3jNhB-56" value="&lt;strike style=&quot;font-size: 11px;&quot;&gt;&lt;font face=&quot;Comic Sans MS&quot; style=&quot;font-size: 11px;&quot;&gt;M&lt;/font&gt;&lt;/strike&gt;&lt;font face=&quot;Comic Sans MS&quot; style=&quot;font-size: 11px;&quot;&gt;&amp;nbsp;180&lt;/font&gt;" style="text;html=1;align=center;verticalAlign=middle;whiteSpace=wrap;rounded=0;connectable=0;allowArrows=0;fontSize=11;textShadow=1;rotation=90;" vertex="1" parent="1">
          <mxGeometry x="300" y="-190" width="90" height="30" as="geometry" />
        </mxCell>
        <mxCell id="h-0-y1XXke3g4Fu3jNhB-57" value="&lt;strike style=&quot;font-size: 11px;&quot;&gt;&lt;font face=&quot;Comic Sans MS&quot; style=&quot;font-size: 11px;&quot;&gt;M&lt;/font&gt;&lt;/strike&gt;&lt;font face=&quot;Comic Sans MS&quot; style=&quot;font-size: 11px;&quot;&gt;&amp;nbsp;180&lt;/font&gt;" style="text;html=1;align=center;verticalAlign=middle;whiteSpace=wrap;rounded=0;connectable=0;allowArrows=0;fontSize=11;textShadow=1;rotation=90;" vertex="1" parent="1">
          <mxGeometry x="300" y="-370" width="90" height="30" as="geometry" />
        </mxCell>
        <mxCell id="h-0-y1XXke3g4Fu3jNhB-58" value="&lt;strike style=&quot;font-size: 11px;&quot;&gt;&lt;font face=&quot;Comic Sans MS&quot; style=&quot;font-size: 11px;&quot;&gt;M&lt;/font&gt;&lt;/strike&gt;&lt;font face=&quot;Comic Sans MS&quot; style=&quot;font-size: 11px;&quot;&gt;&amp;nbsp;200&lt;/font&gt;" style="text;html=1;align=center;verticalAlign=middle;whiteSpace=wrap;rounded=0;connectable=0;allowArrows=0;fontSize=11;textShadow=1;rotation=90;" vertex="1" parent="1">
          <mxGeometry x="300" y="-460" width="90" height="30" as="geometry" />
        </mxCell>
        <mxCell id="h-0-y1XXke3g4Fu3jNhB-59" value="ST. CHARLES&lt;br&gt;PLACE" style="text;html=1;align=center;verticalAlign=top;whiteSpace=wrap;rounded=0;allowArrows=0;connectable=0;fontSize=11;textShadow=1;rotation=90;" vertex="1" parent="1">
          <mxGeometry x="350" y="240" width="90" height="70" as="geometry" />
        </mxCell>
        <mxCell id="h-0-y1XXke3g4Fu3jNhB-60" value="STATES&lt;br&gt;AVENUE" style="text;html=1;align=center;verticalAlign=top;whiteSpace=wrap;rounded=0;allowArrows=0;connectable=0;fontSize=11;textShadow=1;rotation=90;" vertex="1" parent="1">
          <mxGeometry x="350" y="60" width="90" height="70" as="geometry" />
        </mxCell>
        <mxCell id="h-0-y1XXke3g4Fu3jNhB-61" value="VIRGINIA&lt;br&gt;AVENUE" style="text;html=1;align=center;verticalAlign=top;whiteSpace=wrap;rounded=0;allowArrows=0;connectable=0;fontSize=11;textShadow=1;rotation=90;" vertex="1" parent="1">
          <mxGeometry x="350" y="-30" width="90" height="70" as="geometry" />
        </mxCell>
        <mxCell id="h-0-y1XXke3g4Fu3jNhB-62" value="ST. JAMES&lt;br&gt;PLACE" style="text;html=1;align=center;verticalAlign=top;whiteSpace=wrap;rounded=0;allowArrows=0;connectable=0;fontSize=11;textShadow=1;rotation=90;" vertex="1" parent="1">
          <mxGeometry x="350" y="-210" width="90" height="70" as="geometry" />
        </mxCell>
        <mxCell id="h-0-y1XXke3g4Fu3jNhB-63" value="TENNESSEE&lt;br&gt;AVENUE" style="text;html=1;align=center;verticalAlign=top;whiteSpace=wrap;rounded=0;allowArrows=0;connectable=0;fontSize=11;textShadow=1;rotation=90;" vertex="1" parent="1">
          <mxGeometry x="350" y="-390" width="90" height="70" as="geometry" />
        </mxCell>
        <mxCell id="h-0-y1XXke3g4Fu3jNhB-64" value="NEW YORK&lt;br&gt;AVENUE" style="text;html=1;align=center;verticalAlign=top;whiteSpace=wrap;rounded=0;allowArrows=0;connectable=0;fontSize=11;textShadow=1;rotation=90;" vertex="1" parent="1">
          <mxGeometry x="350" y="-480" width="90" height="70" as="geometry" />
        </mxCell>
        <mxCell id="h-0-y1XXke3g4Fu3jNhB-65" value="PENNSLYVANIA&lt;br&gt;RAILROAD" style="text;html=1;align=center;verticalAlign=top;whiteSpace=wrap;rounded=0;allowArrows=0;connectable=0;fontSize=11;rotation=90;textShadow=1;" vertex="1" parent="1">
          <mxGeometry x="400" y="-110" width="90" height="50" as="geometry" />
        </mxCell>
        <mxCell id="h-0-y1XXke3g4Fu3jNhB-66" value="" style="shape=image;verticalLabelPosition=bottom;labelBackgroundColor=default;verticalAlign=top;aspect=fixed;imageAspect=0;image=data:image/png,iVBORw0KGgoAAAANSUhEUgAAAaMAAAE1CAYAAABKqo+qAAAAAXNSR0IArs4c6QAAIABJREFUeAHtnQe4PEWVxY8EiQIqiCCIAROgYmBVggkz5ghmAV0FRcxpRcWAYFoVAwZWEMWAYI6rAoqKsi4IiEoygCAqEg2k3Tn838B78yb0dHdVV1f96vveN29Cd1edOrfOre6qeyXKOARWkfQ0SUcX/HeopM3HgcNnIAACIAACcRB4nqQLJf1fwX9XSDpB0iZxIOcqIAACIAACQwQ8I3qmpMslXVWwEFmELUZ+/R4zpCE9eAUBEACBOAh4RnTJwiCMGF0/M2SGFId/XAUEQKBwBBbPiIa35hCj68WIGVLhBkLzQQAE4iCweEaEGK0QoeFtuiEefmWGFIePXAUEQKAwBMbNiIaDLzOjpTOjIS48QyrMSGguCIBAeATGzYiGgy5iNF6MmCGF5yVXAAEQKASBaTMixGjybbohNn5lhlSIsdBMEACBcAhMmxENB1xmRpNnRkOMeIYUjqOcGQRAIGMEqsyIhgMtYjRbjJghZWwsNA0EQCAcAlVmRIhRtdt0Q5z8ygwpHGc5MwiAQEYIzDMjGg6yzIyqzYyGePEMKSODoSkgAAJhEJhnRjQcXBGj+cSIGVIY7nJWEACBDBCoMyNCjOa/TTfEzK/MkDIwHJoAAiDQLgK7S7pY0jU1/q6scczodRYP0l38P1qfed47AsM8v1/8259JukW7XcnZQGAqAjeQtLakm/X8b0NJTf763P6pHdz3L49qEHnbg2sXApLKNZu038fer+/kof5JI2Dx2VjSLpIOknTcIAfZ6ZLOlvRb/nqJQdKEa1q5vQoXlK6E7V+S1mvaeRwPAhMQuMkgzcsrJP1mYfbeFc+5brsO+4TuzuPjey/KywNx2iXONDy/mwd9aEViCKws6RGSfkK+sSzv2iRGt3ars76kk5gdRSfuS9vtRs4GAlpd0sslXYQ9R7fnaY5nm99lTfOVFu4ntwkY55o+w/LCj22zZhWNi43AWoPFCe+U9E+EKFsh8riafXkOBI5K4FMkbZA9q2hgLATWkPQeSXZycATzxiAWpzq7zp0gcVQj/pgkz0gpINAUAT8jeivPfaPab5eC35QvyR/vgfEcBCkaob23iwICbSDwRFbLRbPbLkVoeO02OJP8OT6AGEUj9VbJs4EK9gGBrSWdhd1Gs9uhIHT52gdeNq6jPawuQS7l2udJ8q0VCgg0QWA1SUdjs8WNWU0405tj77AQFqgUUeiqnQf3hhFUNGUEno4QFSdEHrOKKF6R8y0IHpzgOxfBJhoZEoFbSzoDWw1uq105rNOuG5JXSZ37LRA8KMEvleSVixQQaILAfthpUDudJgZdf9eEN7069mGQPCjJvyNpzV4xgsqmhsDtJTmuYdeDItfvpg9S42Ow+jg0UJNI1BB0OkHt0VJAoC4CjsLtPUXYWbkY1OVOL487FrIHM/adeskIKp0KAp4VeTUmYlQuBqlwMUo9XgvZgxm7E4JRQKAuAq/ENoPZZl8Evi53enncDpKuhvStk/7HvWQDlU4FAWdo/RN22bpd9kWEhvVMhY9R6rHRQjbIYeN5beeWwOuj9B4XyRUB3+LFFsEgV36PbZfj1H0C4rdq+KQYH0s1PqyIwCrYZKv22GdRr0iZfH62J2LUKvkdP2zjfOhBSyIjsJmkP2KTrdpkXwUpMvW6v9xdIX6rxP8k8ei6J3WPa/BM7LFVe+yrELnexZVVJf0NA2jNAPYqjkE0uE0EvoAttmaLfRaiIsXIhuSAnn3vuFTqf/c2RybOVRQCNybiQuvjkFcL9/HvqqKYv6ixz0KMWjGCSyQ53D8FBOog8GDssBU7TMUxbVKP79YhUA7HOKCnB9Im4HGsdGgOZKANnSGwLzbIGCTpAkmbd8bCji/sTXY/wBAaG8KuHfcjl+8vAp5RfxUbbGyDOTjFL5Pk2ITFFkLVN5sZXiZpy2LZQ8ObIuC8RfaIcxhMaUP9fjx5ECDXi8qKLo/HEBoNBD+StE7RDKLxTRDYkSj6jewvBwF0upCHNiFRLsc6sCcpJep7NAfkQgTa0QkCvjWTw4BKG+r34/skOSoORdJJGETtAeFJMAgEGiDwaWyvtu3lIIAXSXKOOcoCAg7wmUPHxm6DZ5SEAMKMmiBwLrZX7NjjPUW7NyFPjsc+BIOoZRCnlr76JUdjiNimm3CLvJbdxXY6Q13vGElrRORbLy5l796BPkOBnut539SL3qWSqSKwDTZX7JjzD0m3S5WYXdbL4es/h2HMbRgP77LTuHbvEXgCNje3zeXi2H6w9+wN2AAH+sylo2O043eSNgnYH5w6fwRegs0VOeb49r7jEVImIHAfDGMuw3CUZc8oKSBQFwFvC4jhOHGNtHB+ZF3ClHKcw5J4mSHErYaBvVoKCNRFwGFfnAMLeysLg6/UJUxpxx2BcVQeHLYvjRy0t1UE7Px9A3urbG85iLbzxzk4NaUCAg74mUOnh27DpSzJrMAmfjINAT8zOAF7K2q82WMaIfhuKQJbk+SrknF8aSlsvAOBuRHYSNIZiFElewvtXMY4/+mSVp+bJQUf4ICfx2EgMw3kuQVzhKa3g8CtJP0ZW5tpazGEIvQ1/i7p/u3Qppyz+KHqezGQqQZyhSRSjJdjE6FaentJHqRCD4Scv3uMPyJp5VBEyvm8DvwJgSdjcLykdXMmAG2LgsCdCQVUxDjzJ0kO+0SpgYBvHyBGkzE4kHh0NVjFIaMI3BM7y36ccSDlPUc7nvfzIeAdwgjSeAx2ng9Kfg0CYxFgk/l4+8pp3Pm6JC/hpzRAYH/EaKIYb94AVw4FgSEC3qeW08BLW5b2p9NDbDHsbF7rI+AAoJBrOQa/4RZdfVJx5BIEdsDGsh5jyAC9hO713/i50XkYyzJjeXd9SDkSBJYgwMxoubOXiwPsdDxkb11C9/pvVpVEaKDlxkKAw/qc4silCNwbZ2+Zs5eDGHnRwo5Lu5p3TRF4NcayxFgukHSbpqByPAgsIHAP7GuJfeUgRG7DYZJWguXtIsBthKUzoy9KumG7EHO2ghHYUtLVCFJWgmSH1Y84KC0jsBZx6pYYyutaxpfTlY2AIzBcjhgtsbG+z45exgKncEbt2UDfCdJW/e8XDmbOXCACm0k6H/vKZnw5RpKftVMCIfBCjOVaY7lS0o0CYcxpy0Tg5pK8VaAtZ4nzdIflvySR3yywHfshq4EunehfC4wzpy8PAcc3/DG2lcXY8j4WLYQ34JtKOhGD0d7hoeYKhSHgxTB2ckp39Preft9qZU9RBON1SgkHBu07YZrU3ykjtomANZcoD4GDC7etJnaZwrEO+fP48mjbXYufVbjBnIzn0x35Mr/yfoXbVgqC0qQOR5O9Na6F3rZwg/kQyzXjEq6gq+1RuG01EYKuj71U0u0K4moSTfVu4t8XbDS7JtELVCJHBB5TsF11LSZNr79PjoTsQ5u8WqRp5/X1eMLA94Gh/azjXQu2q76OB663A6GSvbUjm3tCoUbzR3LXd8S4Mi67TqF21Wchct13KoOeabbSz40uLNBwPphmd1CrjBA4vUC76rMYfToj7vWyKU6d+40CjebJvewtKt0nBD5RoF31VYz+NojKTabnBKzrDYUZzUWslkmAdflXYc/C7KqvQuR6OxAqJQEEHlKY0Xxb0hoJ4E4V8kbgvoXZVV/F6Hj2FKVjiOtJ8o7jvpJp3nrvmw701CRjBDYpfOvEvHbZxe8dn3O7jDnYy6Z5x3EXZOjimg/vZQ9R6b4h4LQDRxVkV13YctNrfoRVtemZle+ZNu3YPhzvDJwOEksBgRgIvLoQu+qD7Y/W0dlb2VMUwwrmvIanqtcUYDg/nBMXfg4CTRBw4sbRQZD33WPisW6XJh3LseEQuJmkXxZgOK8KByFnBoFlCHihDCnIuxefUQfgWEne1kJJEAHHqcs97L29oR0SxJ4q5Y3AoQU4eaODfcrvnd2ZUGCJ29zzMjeaX0tySmgKCMREoNSQW6kK0utjdj7XqofAXTIXo0NIIVyPGBzVCIFbSDozc9tKVXhG6+VAqCxgakTnOAevLOnPGRvNC+LAyFVAYAkCzqr8/oztanTAT/W9b9MTCHUJNdN+89GMjWbrtKGndhkj8MCM7SpV8Rmt12HcGemXhXm542gn5vDekclX6VdXUNuMEDD3fIsoB1vqYxscj5JAqD0zqDtKujhDo/mvnvUD1c0PAQKndifG3tTv26WUHiGw5mD583czFKOn96gPqGqeCLCQoRsx+h9JDs1E6SECb81MjC5jX0EPWZhfle2ZvzYz20r9lp0DoW6fH5XKadGjMjOYYyStXU730dKEEdhQkp2j1AfxXOrnjfze0E/pKQIbZGYsb+9pP1DtPBEgeGocMT5f0vp5UqisVv00I0F6bFldR2sTR8DOnp9j5DL7SLEdBEJN3Ajmqd7rMjIWQgDN0/P8NgYCud0KT02QnJ9t9RgdyTXCI/CATFJK/Dw8VFwBBOZGwIsZDs/I4UtJjLxogUCoc1My3QM2yiSe1hvShZiaFY6A05KfiCC1frtyn8J5lV3zvQLlUz03FN83flB2PUODckLASS3/2XM7S2lW5CgXZG/NyUIW2vLCnhvJ2ZK80ZACAikjsOtg/9EVPbe1VASJQKgpM71B3e7ZcwP5jCRHIqeAQMoI+C7EXpL+0XN761qQPp1yJ1O3ZgjcUJIDDHZNsrrXf3Gz5nM0CERDwE6TU5z44Xtdvpd83N8IhBqNq51dqM/Pje7VGWpcGATmR8Ar7B4t6RwEaW5BdiBUSuYIPLunhnGJpNUy7xualycCd5B0pKSre2p7sWdox7OnKE9DGG3VVj29l/3Z0YbwHgR6hICfIz1c0nGstps6S/JtTa9IpBSAwI0Gy6N/2EMPbbcC+oYm5o+AZ/d3lvQ8SR9bECfHXIs9+0j1eh9hkVL+RrC4he/sGfm9b+MuixvA/yCQEQLeyJ2qOMSs1wXsKcqI1RWb8oSekf/Hktap2DZ+BgJ9QwAxkgiE2jfWtlRfhy1x58f0eppc6z0ttZvTgECKCCBG0rEsUEqRmuHr5CWnJ/dIjJ4cHhKuAAKdIVC6GF0p6U6doc+FO0fgzT0So1t2jhYVAIFwCJQuRq8PBy1n7gMCD+2JGJ0myTM5CgjkikDJYuQNwTfNtWNpVzUENpX0hx4I0tuqNYdfgUBvEShZjJxyg5IQAqsMEnN5l7YT4Hmlm9NqO3NkyD9fY7gBz0unh3++f3vVIpHyQge/b/tv8W50/+/ze8PbsB7D17cExiEkxpw7LIdzwbfPIbqaLEzysSclNA4XWZU1JG0r6UBJv5D090WDf9PO5fj+rBKkr+ir0jlwSpEKkECj1x7U4Y2S/BzEM5DSiUj74QAcKJsDiFFkYXIIEIf/8A5jjA8M4AAcgAMrOIAYRRSjLSX9qGebTDEUBks4AAdicAAxiiBGTq71NEmXMhtiNggH4AAcGMsBxCiwGHlfzAGSroCAYwkYw+PiGnj2cCB9DiBGAcVodUkfR4QQITgAB+DATA4gRoHEyAm0Dub50EwC4rGm77HSR/RRDA44RialZQS8cdXRpWN0INcAZzgAB3LgAJteWxYin+6p7B1CiHFG4AAcmIsDiFHLYrQDixXmImAOHh1tYGYCB5pzADFqUYw2kHQG3hBiBAfgAByYmwOIUUti5AULh0HAuQmIR9ncowRDMMyBA4hRS2L0aFbOIUQ4I3AADtTmAGLUghhtJOk8SFibhDl4dbSB2QkcaMYBxKgFMXL0bYgIBnAADsCB+hxAjBqK0RYjCeggY30ygh3YwYFyOYAYNRAjL1o4glkRs0I4AAfgQGMOIEYNxOhe7ClqTEA84XI9Yfqevl/MAcSogRgdgjeEGMEBOAAHWuEAYlRTjJwo7xpI2AoJF3tH/I+3DAfK5ABiVFOMDkKIECI4AAfgQGscQIxqiNEtJV0ECVsjIZ5wmZ4w/U6/L+YAYlRDjJ6FECFEcAAOwIFWOYAYzSlGTiN+IiRslYSLvSP+x1uGA2VyADGaU4y2QogQIjgAB+BA6xxAjOYUIzK4lum14a3T73AgLAcQoznEaC1JZ+IRte4RYeRhjRx8wbcPHECM5hCjbSRdjRghRnAADsCB1jmAGM0hRntDwNYJ2AePjToys4AD4TmAGM0hRscjRogRHIADcCAIBxCjimK0AbfoghAQjzO8xwnGYNwHDiBGFcXosXhDiBEcgANwIBgHEKOKYvQBSBiMhH3w2qgjsws4EJYDiFEFMVpN0q8QI8QIDsABOBCMA4hRBTHahMCowQiItxnW2wRf8O0LBxCjCmK0Pd4QYgQH4AAcCMoBxKiCGO0GCYOSsC+eG/VklgEHwnEAMaogRgciRogRHIADcCAoBxCjCmL0E0gYlIR4m+G8TbAF275wADGaIUarSPonYoQYwQE4AAeCcgAxmiFGTjHeF8+CetJXcAAO9JUDiNEMMdoBMUKM4QAcgAPBOYAYzRCjnSFhcBL21ZOj3sxC4EB7HECMZojRGxAjxAgOwAE4EJwDiNEMMToYEgYnId5le94lWIJlXzmAGM0Qo+8hRogRHIADcCA4BxCjKWK0kqRTIGFwEvbVk6PezELgQHscQIymiNEaks5CjBAjOAAH4EBwDiBGU8RoXUnnQMLgJMS7bM+7BEuw7CsHEKMpYuRU4xcgRogRHIADcCA4BxCjKWK0saQLIWFwEvbVk6PezELgQHscQIymiNGmki5GjBAjOAAH4EBwDiBGU8RoM0mXQcLgJMS7bM+7BEuw7CsHEKMpYnQrSZcjRogRHIADcCA4BxAjxCg4yfrqqVFvZhlwIB4HEKMpYsRtunhExOjBGg6UzQHEaIoYeQHDJUzPmTnBATgAB4JzADGaIkYs7S7bU8NTp//hQDwOIEZTxOhmbHoN7g1h7PGMHazBOmUOnCpp5SnjcdFfrUc4IMSI2zNwAA5E4cBVknYqWnGmNH5NAqVGIWHK3hp1YzYBB+Jx4DRJq08Zk4v9ylPGX+IVIUhwAA7AgWgc2EfSDYpVnSkNPwYSRiMhHmg8DxSswTpVDlwqaYspY3KxXx2KGCFGcAAOwIGoHDiKxQzLNXdfSBiVhKl6a9SLmQQciMuBpywfjsv+5JmIEWIEB+AAHIjOgXMlbVi2/Cxt/f0hYXQS4oHG9UDBG7xT5cD+S4fjst/dBjFCjOAAHIADnXDgGkn3KFuCrm/9DSVdARE7IWKq3hr1YiYBB+Jx4ARJ3vNJkXQiYoQYwQE4AAc648DuKNEKBA6ChJ2REA80ngcK1mCdKgcuknRzBEnaAzFCjOAAHIADnXLgcEmrlC5IrKjDY0zVY6RecLMUDlwpacfSxYiMrxh8KQZPO+F6yhw4RdJaJQuSo8iezhS90yl6ygZC3RjA4UA8DryxZDFy2w9BjBAjOAAH4EDnHHAg1S1LFqQnQ8LOSYj3Gc/7BGuwTpkDXyk5zcSmkrwbOOUOom70DxyAA6VwoOhAqichRogxHIADcCAJDpxTciDV10HCJEhYiudHO5nlwIHpHDig1GdH23KrDjHCIYEDcCAZDnjvUZGBVNeT9AeImAwR8Rqne43gAz4lcOCnpe49+jBihBjBATgAB5LhgBeW7Vbi7bp7Q8JkSFiC10cbmd3AgdkccCDVjUoTpJUl/RpBQpDgAByAA0lx4LOSPD4XVV4ECZMiIZ7jbM8RjMAodw54McODilIiSU5F7pAUuXcu7aOP4QAc6BMHTpO0RkmCdANJRyBGiDEcgANwIDkO7FNaqCCvbe+Tx0Bd6S84AAdK4IDvWm1R0uzIbf0GgoQgwwE4AAeS48BRpS1muJ+kqyBickQswfujjcxy4MB0DhQVSPWGkr6PGCFGcAAOwIHkOHCupJuXdLvOz45ILTHdQ8GDAx84AAe64MD+JYmR23oQXlFyXlEXxOeaDLhwIC0OeKJQVCDVW0n6K4KEIMEBOAAHkuPACZLWLGmG9AJImBwJ8VLT8lLpD/qjKw7sXpIYOSbSVxEkBAkOwAE4kBwHHEi1qMUMDhN0PkRMjohdeWNcl5kAHEiHA4dLWqWkGdJOkq5GkBAkOAAH4EBSHHAg1R1LEiO39TUIUlIkxDtNxzulL+iLLjlwSmlZYb0Z9hC8IgQJDsABOJAcB95U2uxoVUlfZENsckTs0ivj2swK4ED3HHAg1S1LE6QbLQgSBOyegPQBfQAH4MCQA18pLc2ExdczpIMJqMoMids1cAAOJMWBnUubHQ0F6SWSroCMSZFx6CXxiscMB8rjwDmSNixRkNzm7SR5NQfEBwM4AAfgQPccOKBUMXK71x4sanBa3MsQJUQZDsABONApB7z3qKhAquPEdyNJH5T0B1bcdUpGvNPuvVP6gD7okgM/K23v0ThB8mfrSXqspCMk+R4muZEwzC4Nk2vDv9I44DG3qECqk8Ro9PMNFkJWPGOQluJFkhwN/Pkjfzlkl/3hSJtG2zj6/pOSPKUuzVCqtPdiSS+dE89RfHm/3M7awORIODvRZs+U9OqFcc5j3Qs75PAuowMx72cj4EUQ/+o5wV3/J85u6nW/2Hhh1lhlYC71N59Y2EZwHWj80zkCfhZxec9tNaQ9eUbyjs57iQrUQsBJ/E7OgNzHS1q9IgLrD2aKP8igzSGN2ue2Yf9HRUz5WXgEbjm4/X4ivJ04K1psD7uWuAE1PAXDXcHx7hxeaHEn9vV/T82rlNUkvZ+gs5X7/B+StqkCLL8JioDTFHwhE1uNMcZcKOkuQXuEk7eGgMnt5eAxiBH6GudJct6nKsUPFVnQMV+//1aSb2tSukFgJUl7Z2KroceCxec/SZLDp1ESR+BRkvyQenHn9fX/D0hyVtxZZXNJp2fS5th99alZ4PJ9MATuJskOV+w+z+F63oBqMackisAdM9og6+n4PSvgvCa3ORoPZo+ogDM/aRcBPwf9KUJUm7te2HTfdruEs7WFwE0kfTMjcn+5oufzZJZx1zbooYd86sIetra4yHlmI/DsjGx1yKPYr8dJ8vNxSkII+DlRTgn6nIr98RXwvSmrkBoL0XAAeVcFvPlJOwjcWtJZiFEr3H1xO13CWdpA4AaSnp4Zsb3M1cu0Z5WXkW6jFYO2IF0yCDl1s1mA830rCOyXmb0OHZouXouOpt0KG1s8yQMGK3IuyojcnhVV8XZuuxCrrwsDyPWaXhpv54YSDgGvDr0qI3tNwRZeE667OHNVBG4u6VeZEdvLjb0JcFZ5VWbtTsGovWjEm6UpYRCw0L8Z3rY2mx/azJ945hmGsFXP6nX2n8+Q2FWeXfhZ0WkZtn1oXF2+HlSVgPxubgS8BeGP8LZ1MbK9VN0cP3enccBsBLyx1be0uhy42r62owJsP7vp2o0VdMH63bMjL5entI+AA9S2bTOcbwWmZ0hap/0u44zTEPBU3/nYcyShZ3qzlmo64eDRmbY/lT71ghhKuwh4XxGzorDj1k7tdhlnm4XAnQapInyPNJWBq616/FPSk2Y1XtK2GUQibwuzUOc5RpK3C1DaQ2DHDG02FP/qnvew9rqLM81CwMn1co3uW3UD2/4YdXBHxLdLt5hFRr6vjIDvZhwIb4Pz1qsUneONEhgB3776eMaE9p6hWcUY/CRjDOp6hCGOI8XELDZW/977t34Jb4OLke3gqdW7hV/WRWCvjKNSe+PaZhWA8eIGb84MMfhyzqW4/qJCf/CTagg8DM5Gs9nvVAwjVq3n+NUyBO6dUQDUcYP+eysS6BUYdTSjdtr2dZcxkQ/qIPBWeBuNt36ezq26OiytcIw3Iea8Cucvg0SAW1fAYdWMEgaOE+QUP7NHT2mGgJ8X/RoxiiZGtqPtmnUZR49DwM9IcsnYOmmwPbJiCJpbSDobo45q1G8bR0o+mwuBDeFsVM56nNljrh7ixzMR8NLad2dOZG/afcxMJFb8wM+LJgkan4fB5mcVb59W7MIif/ZQeBvdbj9TJNMCNtoZW733JueB9gRJzsNUpeyaORYp9rNvD9+4Sufwm4kIeOFRin2bc51+P7E3+GJuBLzH47LMSexZ0Z5zIMP+oviDmrNp3n6OPuKnyxFgf1F83lpoHb+S0hABzxRKSEd8piQ/B6paPp25OKfqqT6kagfxu2UIeNGNMxan2rc51+tuy3qDD+ZCILeMrdPI7pnOPOUHGHUng9pL5ukkfrsEATuW/wtvO+Hto5f0BG/mQsBLQF9QCHEvl+S9U1WLPcxTC8FmmoB38Z33gFHqIbCpJG/o7qLfSr+mx1JKTQScsdUxwUogkW+5WWCqFi+PddK9ErBJrY1HVO0kfrcMgTsUZNOp8ZZtCcvoWO2DHDO2TiKnBfdx1WC57ldOMZ7zxt9JWKXw+beu6wX+mReBu+JAdeZAkiRyXrZKcsZWh+xPYeCJUYdj55wVGdI7D1be/bkgjGL0Q9VruL8o9RC4D5ztbFw7vF6XlX2UM7ZeUxBpX1yju70y5q8FYVRVKGL87kc1+otDViCwA5ztTIy+AAmrI5BzxtZJg+TvBmkw/FB33oIYdTdzRozmZev1vydqSHe8RYyu5+HM/3LN2DpJiPz5u2qGl9mK23SdeZjcpptpyhN/4BWj0+yB78Lhw226ibRc+kXOGVsnGZhDu1tU6hQWMIQz2kn9Nfz8m3U6jGOuRYAFDN3x9sNwcDYCuWdsHQ5io6+fqxidexyCzpTJ0u5uDPvz4zqEzyoh4FBKf2d21Mns0DmkKDMQyDlj66gADd87N/0jZuAy7Ws2vXYjRO6/90zrGL6bioCfj/4BMepEjJ4/tWf48tqoA7kHQB0K0OLXn0jyrckmxc8uFp+T/+PgsXeTTiv8WIcD+jm87cRunfWAMgGB3DO2ThIHz4r+fQIm83z8KYy6E6N+0DydxG+XIOBYk1+Ct53wtkr26CWdVcqbEjK2ThKj30hyhImmZT+MOrpRO5/W7Zp2XOHHvx/eRuetx6KqedKKomcJGVsnCZE/f0tLvf1sjDq6UZ9Lcr1Jga5yAAAIEUlEQVTG7H0hvI3OWy92ooxBoISMrZPEyM/HthmDSZ2PtissUsUkTGN+fnzNfWF1+jfXY5wPKmafcS3JgZgpIwhsWUDG1mnkP3QwM/LMsI2ysaSzMOyoA1tbs9o2+r+v5/C2hJLCfU0bD2J9x0q6EWspJWPrJIJ5f0WbK1q8vPtIxCiqGJHldcSoa749Dd5G462Ff9ua/ZTlYSVlbJ0kRt+TtHLLvfsyjDqaUV8paZ2W+6/U0+0Lb6Px9nxJ65dKtNF2l5SxdZIQ+fM9R4Fp4b09nosx7CiGfWIL/cUpViDgGSa36uI8O3P4Ko/BlEFuopIytk4SozMl+RlP28UzTkeRnnRdPm8Pm9e03XkFn28DSafA2yh2+5SCebak6SVlbJ028L89oHfidMLTrs13zfHx8z5Hlae0g4A99ffB2+B2631xFv7iS2kZWycN+ucFHsgclt+km3R9Pm+OzfcDPO8rfYC4P5wNbrOfKJ1kw/aXlrF10qAfeo3/2pK+i2EHNexdhqTmtTUEVpP0e3gbjLd+Jvfw1nqrpycqMWPrJCHyCqyHRuhHR2PwtSbVg8/rY3OhJA+clPYReBGcDWazDjvmu1NFlxIztk4a7H84SDmwbgQ23JQHwsGM+sAI/VfqJW5DSolgvH1FqaQatrvEjK2ThMgzld2GwER4fTleZuuG/VdJm0Tou5Iv8UZ42zpvnUW66FlRqRlbJ4mRd5nHXMlya7K/tm7U/xlwFWTJArS47Z4dsQCn/m3kcePPKxcDXOL/ztFzBV7OdQOil1zHLH5WZxI6X9I4gvLZfLhcEmhvWExO9OVa74SzrdnsOaXz9j6FB0AdHegdFeHuHYwEjv93AobdimF7bxglDgKbSTod3rbCW6foKLaYSL+CSEuIdJgk37bsojyNGeqSvhh1FKq8PzXyLdYueJLSNT2r350xpDFvfyxpzZQ6NmZdSs7YOmlQu7zj9f0m42cx7NqG7f0ZROeOOYqsuJaXzx8Hb2vz9h+Sto/fbWlc0XHR3kzAw2XkcXTurveleHk9tz3me0Y0dC4+QwK9zgaYe0n6I4K0bEwZcnPa67tazJXWGQHqXvgZrIIZS5qd6wLa8nHPYSPs2P6ZZtC/lrRRy/3A6aoj4Nt1eyBGc/P2ZyUv5d5CkvdgTDPsEr87o8NnRaMmv4akD7G6rjJHHQx1h1EQeR8dgdUlHcXYUpm3f5F0z+i9lMgFvdv/p5BlLFlSS0vtviJu3WynycvhSRGRyAAjaVNWhY4dX0YdfD/ffFY63Ra3Jn5O5HvqJMZaPsA5OveWcbuj0tVuxWrHmYbtkD/2yCnpIGBv/wKc3onc9Z5OO79tZ49OhwFTauL7uS+AHBPJccgU7Lr+6n6SzqXvxvadZ44IUdcMHX/9x0hyoNrRGQHvpQ+WvIz7YZL+BjHGGoa9lLuNt6dkPn3wIPX5n+m/Jf3336XvVk+GneMrYq/f++bg7fWC7LtSfqYWIwDz+F7p+FNnbMWzvp4Qo56Zk6/1oTxJkh94jta/xPdHs7G1D5S9to5OkeLwTCXydLTN3kPoZ8FFlnUGoW2+DBEmGoKjc3v3eB+Kb7U+gr0c+rqkW/Shw6jjtQj4WbW3kpxf8DjkRTZHDNK1O+RXscWRi1mwMNkrO6WHBNlxYNxnFmjY5rEz79rBovQPAT9DKvUOzXtL5q296CcQ52zijGg4fX5d/2z62hp7r9iPJF1diCh5H9H+JRt0T3m6uNorSdqusK0lfk6/z4C73jdYbPEDeZZWTp4RWYwu7eGsaDGhHW3gowUIkjdoez+GHSxK/xFw7q4jC9jQ7dBIjyw9PJUztp5UiMc8nOHUeT22/3Z9bRy9vTNN/+xZn2MF/htClAFTlzbBt1pfnanDbN56xdzWS5tc3jsytk6fDS0WrfdlRI87D6L+eqlzLrftPGvdl9tyGTF0eVM80/Vtu2Mycpy9SMPRQIq+LTfs6lcRYHPmcyILkh+G7zoELZNXz4idsdeLG/q6aOVfkr62EE7fzxgo+SOwwUKW47N7LEqXLdx69OMReCvJGVvJR19tZuSd4V1kc40xtPievB/2X9Qz4/at5WdKWjUGSFwjOQTuuBAc2JmWF9/BSPl/O32O9emVgvB2gVKbE8NsLgL/IvOptG+BOD6Yl/Y77l6qMyXv83KqdacesIdMKRsBD+jbSjo48X1JTobnzKx2nordxDqOqn5O5IfxKXsQqdXt8HFAZvqZk/W9MbHbdxahby8Y81qZ4k6zmiFwV0nvGKykTOn2nTNB+zayt80UmyJ8UrcOM7amNtinXh+vQCutOGqBkwd+XtLvOljs4L1CJy4MME6xjDGXxsD52+sZ/mYLz3e9HNzLpWMv0vHzoOMHuc7eNhCibTK/ozJ/Dy06goyt9WaE3jRactlkwcA/JskZUh2uJIQD4VVxXi1lQ34IAlQy5Rq33cJ020EUh+cOXj85CMJ6ekBh8jNlbyvwhtUHStduoWjcgJxPQMbWegOoNwOz4mWFZdjAN1zYy+OVeO+R9I3BbYiTBzH7zlmI9O6o5pOEys+iPONxZGbfTvHDXOfM8m1B38rwQ+m1czZC2tYJAo4I7k3fnmH7eaNzWn1L0i8XQg55EcQ03np2Zd56LDhrIZrJpwYrkR2R5XGS/AyemfscXet7qo7kzN98GDgdA2U6An6Q7MR+3nC6k6QnTuDZ4yU5Vt5dBgPC+mxOnQ4q3wZHYDVJXk3qlcXm7aSx0YLjGY8TarIAoWG3/D+P3Qd2WWGVVwAAAABJRU5ErkJggg==;connectable=0;allowArrows=0;rotation=90;" vertex="1" parent="1">
          <mxGeometry x="356.84000000000003" y="-113.14" width="76.32" height="56.28" as="geometry" />
        </mxCell>
        <mxCell id="h-0-y1XXke3g4Fu3jNhB-77" value="" style="html=1;verticalLabelPosition=bottom;align=center;labelBackgroundColor=#ffffff;verticalAlign=top;strokeWidth=2;strokeColor=#000000;shadow=1;dashed=0;shape=mxgraph.ios7.icons.lightbulb;fillColor=#fff200;rotation=90;" vertex="1" parent="1">
          <mxGeometry x="372.59999999999997" y="152.57999999999998" width="44.8" height="64.85" as="geometry" />
        </mxCell>
        <mxCell id="h-0-y1XXke3g4Fu3jNhB-78" value="ELECTRIC&lt;br&gt;COMPANY" style="text;html=1;align=center;verticalAlign=top;whiteSpace=wrap;rounded=0;allowArrows=0;connectable=0;fontSize=11;rotation=90;textShadow=1;" vertex="1" parent="1">
          <mxGeometry x="400" y="160" width="90" height="50" as="geometry" />
        </mxCell>
        <mxCell id="h-0-y1XXke3g4Fu3jNhB-95" value="&lt;span style=&quot;font-family: &amp;quot;Google Sans&amp;quot;, Roboto, Arial, sans-serif; text-align: left;&quot;&gt;&lt;font style=&quot;font-size: 60px;&quot;&gt;💰&lt;/font&gt;&lt;/span&gt;" style="text;html=1;align=center;verticalAlign=top;whiteSpace=wrap;rounded=0;allowArrows=0;connectable=0;fontSize=11;textShadow=1;" vertex="1" parent="1">
          <mxGeometry x="1100" y="360" width="90" height="100" as="geometry" />
        </mxCell>
        <mxCell id="h-0-y1XXke3g4Fu3jNhB-96" value="&lt;span style=&quot;font-family: &amp;quot;Google Sans&amp;quot;, Roboto, Arial, sans-serif; text-align: left;&quot;&gt;&lt;font style=&quot;font-size: 60px;&quot;&gt;💰&lt;/font&gt;&lt;/span&gt;" style="text;html=1;align=center;verticalAlign=top;whiteSpace=wrap;rounded=0;allowArrows=0;connectable=0;fontSize=11;textShadow=1;rotation=-90;" vertex="1" parent="1">
          <mxGeometry x="1324" y="-315" width="90" height="100" as="geometry" />
        </mxCell>
        <mxCell id="h-0-y1XXke3g4Fu3jNhB-97" value="&lt;span style=&quot;font-family: &amp;quot;Google Sans&amp;quot;, Roboto, Arial, sans-serif; text-align: left;&quot;&gt;&lt;font style=&quot;font-size: 60px;&quot;&gt;💰&lt;/font&gt;&lt;/span&gt;" style="text;html=1;align=center;verticalAlign=top;whiteSpace=wrap;rounded=0;allowArrows=0;connectable=0;fontSize=11;textShadow=1;rotation=90;" vertex="1" parent="1">
          <mxGeometry x="335" y="-315" width="90" height="100" as="geometry" />
        </mxCell>
        <mxCell id="J2YDZOPqugOFEzBfIfHy-2" value="" style="shape=image;verticalLabelPosition=bottom;labelBackgroundColor=default;verticalAlign=top;aspect=fixed;imageAspect=0;image=https://logos-world.net/wp-content/uploads/2023/03/Monopoly-Logo-2013.png;rotation=-45;textShadow=1;" vertex="1" parent="1">
          <mxGeometry x="549.41" y="-268.01" width="650.68" height="366.02" as="geometry" />
        </mxCell>
        <mxCell id="J2YDZOPqugOFEzBfIfHy-4" value="⟐ Fast-Dealing Property Trading Game ⟐" style="text;html=1;align=center;verticalAlign=top;whiteSpace=wrap;rounded=0;allowArrows=0;connectable=0;fontSize=11;rotation=-45;textShadow=1;" vertex="1" parent="1">
          <mxGeometry x="610" y="20" width="240" height="20" as="geometry" />
        </mxCell>
        <mxCell id="h-0-y1XXke3g4Fu3jNhB-72" value="" style="sketch=0;points=[[0,0,0],[0.25,0,0],[0.5,0,0],[0.75,0,0],[1,0,0],[0,1,0],[0.25,1,0],[0.5,1,0],[0.75,1,0],[1,1,0],[0,0.25,0],[0,0.5,0],[0,0.75,0],[1,0.25,0],[1,0.5,0],[1,0.75,0]];outlineConnect=0;fontColor=#232F3E;fillColor=none;strokeColor=#0072c0;dashed=0;verticalLabelPosition=bottom;verticalAlign=top;align=center;html=1;fontSize=12;fontStyle=0;aspect=fixed;shape=mxgraph.aws4.resourceIcon;resIcon=mxgraph.aws4.detective;rotation=-135;shadow=1;" vertex="1" parent="1">
          <mxGeometry x="1310" y="-590" width="70" height="70" as="geometry" />
        </mxCell>
        <mxCell id="h-0-y1XXke3g4Fu3jNhB-73" value="GO TO" style="text;html=1;align=center;verticalAlign=top;whiteSpace=wrap;rounded=0;allowArrows=0;connectable=0;fontSize=11;textShadow=1;rotation=-135;" vertex="1" parent="1">
          <mxGeometry x="1278" y="-533" width="70" height="20" as="geometry" />
        </mxCell>
        <mxCell id="h-0-y1XXke3g4Fu3jNhB-74" value="JAIL" style="text;html=1;align=center;verticalAlign=bottom;whiteSpace=wrap;rounded=0;allowArrows=0;connectable=0;fontSize=11;textShadow=1;rotation=-135;" vertex="1" parent="1">
          <mxGeometry x="1338" y="-598" width="70" height="30" as="geometry" />
        </mxCell>
        <mxCell id="J2YDZOPqugOFEzBfIfHy-5" value="" style="rounded=0;whiteSpace=wrap;html=1;gradientColor=#4ec6f0;fillColor=#e1f6fe;rotation=-225;textShadow=1;" vertex="1" parent="1">
          <mxGeometry x="530" y="-380" width="220" height="110" as="geometry" />
        </mxCell>
        <mxCell id="J2YDZOPqugOFEzBfIfHy-6" value="&lt;span style=&quot;font-family: &amp;quot;Google Sans&amp;quot;, Roboto, Arial, sans-serif; text-align: left;&quot;&gt;&lt;font style=&quot;font-size: 60px;&quot;&gt;💰&lt;/font&gt;&lt;/span&gt;" style="text;html=1;align=center;verticalAlign=middle;whiteSpace=wrap;rounded=0;allowArrows=0;connectable=0;fontSize=11;textShadow=1;rotation=-225;" vertex="1" parent="1">
          <mxGeometry x="530" y="-380" width="220" height="110" as="geometry" />
        </mxCell>
        <mxCell id="J2YDZOPqugOFEzBfIfHy-7" value="? • ? • ? • ? • ? • ? • ? • ? • ? • ? • ? • ? • ? • ? • ? • ? • ? • ? • ?" style="text;html=1;align=center;verticalAlign=middle;whiteSpace=wrap;rounded=0;allowArrows=0;connectable=0;fontSize=8;rotation=-225;textShadow=1;" vertex="1" parent="1">
          <mxGeometry x="572" y="-288" width="220" height="10" as="geometry" />
        </mxCell>
        <mxCell id="J2YDZOPqugOFEzBfIfHy-8" value="? • ? • ? • ? • ? • ? • ? • ? • ? • ? • ? • ? • ? • ? • ? • ? • ? • ? • ?" style="text;html=1;align=center;verticalAlign=middle;whiteSpace=wrap;rounded=0;allowArrows=0;connectable=0;fontSize=8;rotation=-45;textShadow=1;" vertex="1" parent="1">
          <mxGeometry x="488" y="-372" width="220" height="10" as="geometry" />
        </mxCell>
        <mxCell id="J2YDZOPqugOFEzBfIfHy-11" value="? • ? • ? • ? • ? • ? • ? • ? • ? • ?" style="text;html=1;align=center;verticalAlign=middle;whiteSpace=wrap;rounded=0;allowArrows=0;connectable=0;fontSize=8;rotation=-135;textShadow=1;" vertex="1" parent="1">
          <mxGeometry x="503" y="-249" width="112" height="10" as="geometry" />
        </mxCell>
        <mxCell id="J2YDZOPqugOFEzBfIfHy-12" value="? • ? • ? • ? • ? • ? • ? • ? • ? • ?" style="text;html=1;align=center;verticalAlign=middle;whiteSpace=wrap;rounded=0;allowArrows=0;connectable=0;fontSize=8;rotation=-315;textShadow=1;" vertex="1" parent="1">
          <mxGeometry x="665" y="-411" width="112" height="10" as="geometry" />
        </mxCell>
        <mxCell id="J2YDZOPqugOFEzBfIfHy-14" value="" style="ellipse;whiteSpace=wrap;html=1;aspect=fixed;strokeColor=none;fillColor=#000000;rotation=-225;textShadow=1;" vertex="1" parent="1">
          <mxGeometry x="599" y="-204" width="5" height="5" as="geometry" />
        </mxCell>
        <mxCell id="J2YDZOPqugOFEzBfIfHy-15" value="" style="ellipse;whiteSpace=wrap;html=1;aspect=fixed;strokeColor=none;fillColor=#000000;rotation=-225;textShadow=1;" vertex="1" parent="1">
          <mxGeometry x="514" y="-289" width="5" height="5" as="geometry" />
        </mxCell>
        <mxCell id="J2YDZOPqugOFEzBfIfHy-16" value="" style="ellipse;whiteSpace=wrap;html=1;aspect=fixed;strokeColor=none;fillColor=#000000;rotation=-225;textShadow=1;" vertex="1" parent="1">
          <mxGeometry x="761" y="-366" width="5" height="5" as="geometry" />
        </mxCell>
        <mxCell id="J2YDZOPqugOFEzBfIfHy-17" value="" style="ellipse;whiteSpace=wrap;html=1;aspect=fixed;strokeColor=none;fillColor=#000000;rotation=-225;textShadow=1;" vertex="1" parent="1">
          <mxGeometry x="676" y="-451" width="5" height="5" as="geometry" />
        </mxCell>
        <mxCell id="J2YDZOPqugOFEzBfIfHy-18" value="" style="rounded=0;whiteSpace=wrap;html=1;gradientColor=#e77515;fillColor=#F9DBCF;rotation=-45;textShadow=1;" vertex="1" parent="1">
          <mxGeometry x="1000" y="90" width="220" height="110" as="geometry" />
        </mxCell>
        <mxCell id="J2YDZOPqugOFEzBfIfHy-19" value="&lt;b style=&quot;font-family: &amp;quot;Times New Roman&amp;quot;; font-size: 90px; text-wrap: nowrap;&quot;&gt;&lt;font color=&quot;#ffffff&quot;&gt;?&lt;/font&gt;&lt;/b&gt;" style="text;html=1;align=center;verticalAlign=middle;whiteSpace=wrap;rounded=0;allowArrows=0;connectable=0;fontSize=11;textShadow=1;rotation=-45;" vertex="1" parent="1">
          <mxGeometry x="1000" y="90" width="220" height="110" as="geometry" />
        </mxCell>
        <mxCell id="J2YDZOPqugOFEzBfIfHy-20" value="? • ? • ? • ? • ? • ? • ? • ? • ? • ? • ? • ? • ? • ? • ? • ? • ? • ? • ?" style="text;html=1;align=center;verticalAlign=middle;whiteSpace=wrap;rounded=0;allowArrows=0;connectable=0;fontSize=8;rotation=-45;textShadow=1;" vertex="1" parent="1">
          <mxGeometry x="958" y="98" width="220" height="10" as="geometry" />
        </mxCell>
        <mxCell id="J2YDZOPqugOFEzBfIfHy-21" value="? • ? • ? • ? • ? • ? • ? • ? • ? • ? • ? • ? • ? • ? • ? • ? • ? • ? • ?" style="text;html=1;align=center;verticalAlign=middle;whiteSpace=wrap;rounded=0;allowArrows=0;connectable=0;fontSize=8;rotation=-225;textShadow=1;" vertex="1" parent="1">
          <mxGeometry x="1042" y="182" width="220" height="10" as="geometry" />
        </mxCell>
        <mxCell id="J2YDZOPqugOFEzBfIfHy-22" value="? • ? • ? • ? • ? • ? • ? • ? • ? • ?" style="text;html=1;align=center;verticalAlign=middle;whiteSpace=wrap;rounded=0;allowArrows=0;connectable=0;fontSize=8;rotation=45;textShadow=1;" vertex="1" parent="1">
          <mxGeometry x="1135" y="59" width="112" height="10" as="geometry" />
        </mxCell>
        <mxCell id="J2YDZOPqugOFEzBfIfHy-23" value="? • ? • ? • ? • ? • ? • ? • ? • ? • ?" style="text;html=1;align=center;verticalAlign=middle;whiteSpace=wrap;rounded=0;allowArrows=0;connectable=0;fontSize=8;rotation=-135;textShadow=1;" vertex="1" parent="1">
          <mxGeometry x="973" y="221" width="112" height="10" as="geometry" />
        </mxCell>
        <mxCell id="J2YDZOPqugOFEzBfIfHy-24" value="" style="ellipse;whiteSpace=wrap;html=1;aspect=fixed;strokeColor=none;fillColor=#000000;rotation=-45;textShadow=1;" vertex="1" parent="1">
          <mxGeometry x="1146" y="19" width="5" height="5" as="geometry" />
        </mxCell>
        <mxCell id="J2YDZOPqugOFEzBfIfHy-25" value="" style="ellipse;whiteSpace=wrap;html=1;aspect=fixed;strokeColor=none;fillColor=#000000;rotation=-45;textShadow=1;" vertex="1" parent="1">
          <mxGeometry x="1231" y="104" width="5" height="5" as="geometry" />
        </mxCell>
        <mxCell id="J2YDZOPqugOFEzBfIfHy-26" value="" style="ellipse;whiteSpace=wrap;html=1;aspect=fixed;strokeColor=none;fillColor=#000000;rotation=-45;textShadow=1;" vertex="1" parent="1">
          <mxGeometry x="984" y="181" width="5" height="5" as="geometry" />
        </mxCell>
        <mxCell id="J2YDZOPqugOFEzBfIfHy-27" value="" style="ellipse;whiteSpace=wrap;html=1;aspect=fixed;strokeColor=none;fillColor=#000000;rotation=-45;textShadow=1;" vertex="1" parent="1">
          <mxGeometry x="1069" y="266" width="5" height="5" as="geometry" />
        </mxCell>
      </root>
    </mxGraphModel>
  </diagram>
  <diagram id="uCKsPOYsSglfNNvICCeX" name="Train">
    <mxGraphModel dx="3354" dy="1898" grid="1" gridSize="10" guides="1" tooltips="1" connect="1" arrows="1" fold="1" page="1" pageScale="1" pageWidth="1100" pageHeight="850" math="0" shadow="0">
      <root>
        <mxCell id="0" />
        <mxCell id="1" parent="0" />
        <mxCell id="sALEVSYehv-Wioddx9PX-1" value="" style="ellipse;whiteSpace=wrap;html=1;aspect=fixed;strokeColor=none;fillColor=#000000;connectable=0;allowArrows=0;perimeterSpacing=1;textShadow=0;" vertex="1" parent="1">
          <mxGeometry x="316.41547169811304" y="573.0769230769229" width="236.92307692307665" height="236.92307692307665" as="geometry" />
        </mxCell>
        <mxCell id="sALEVSYehv-Wioddx9PX-2" value="" style="ellipse;whiteSpace=wrap;html=1;aspect=fixed;strokeColor=none;fillColor=#000000;connectable=0;allowArrows=0;perimeterSpacing=1;textShadow=0;" vertex="1" parent="1">
          <mxGeometry x="750.7826415094348" y="573.0769230769229" width="236.92307692307665" height="236.92307692307665" as="geometry" />
        </mxCell>
        <mxCell id="sALEVSYehv-Wioddx9PX-3" value="" style="rounded=0;whiteSpace=wrap;html=1;fillColor=#000000;strokeColor=none;connectable=0;allowArrows=0;perimeterSpacing=1;textShadow=0;" vertex="1" parent="1">
          <mxGeometry x="177.22053773584878" y="336.15384615384573" width="790.7456886792462" height="276.4102564102562" as="geometry" />
        </mxCell>
        <mxCell id="sALEVSYehv-Wioddx9PX-4" value="" style="verticalLabelPosition=bottom;verticalAlign=top;html=1;shape=mxgraph.basic.obtuse_triangle;dx=0.29;fillColor=#000000;strokeColor=none;flipH=1;connectable=0;allowArrows=0;perimeterSpacing=1;textShadow=0;" vertex="1" parent="1">
          <mxGeometry x="40" y="454.6153846153839" width="276.4154716981135" height="355.384615384615" as="geometry" />
        </mxCell>
        <mxCell id="sALEVSYehv-Wioddx9PX-5" value="" style="verticalLabelPosition=bottom;verticalAlign=top;html=1;shape=mxgraph.basic.obtuse_triangle;dx=0.43;fillColor=#000000;strokeColor=none;flipH=1;connectable=0;allowArrows=0;perimeterSpacing=1;textShadow=0;" vertex="1" parent="1">
          <mxGeometry x="40" y="474.3589743589743" width="335.6473584905664" height="335.64102564102535" as="geometry" />
        </mxCell>
        <mxCell id="sALEVSYehv-Wioddx9PX-6" value="" style="ellipse;whiteSpace=wrap;html=1;strokeColor=none;fillColor=#000000;connectable=0;allowArrows=0;perimeterSpacing=1;textShadow=0;" vertex="1" parent="1">
          <mxGeometry x="99.23188679245217" y="336.15384615384573" width="157.9516981132077" height="276.4102564102562" as="geometry" />
        </mxCell>
        <mxCell id="sALEVSYehv-Wioddx9PX-7" value="" style="verticalLabelPosition=bottom;verticalAlign=top;html=1;shape=mxgraph.basic.obtuse_triangle;dx=0.43;fillColor=#000000;strokeColor=none;flipH=1;connectable=0;allowArrows=0;perimeterSpacing=1;textShadow=0;" vertex="1" parent="1">
          <mxGeometry x="257.1835849056609" y="79.48717948717908" width="157.9516981132077" height="256.6666666666664" as="geometry" />
        </mxCell>
        <mxCell id="sALEVSYehv-Wioddx9PX-8" value="" style="verticalLabelPosition=bottom;verticalAlign=top;html=1;shape=mxgraph.basic.obtuse_triangle;dx=0.43;fillColor=#000000;strokeColor=none;flipH=0;connectable=0;allowArrows=0;perimeterSpacing=1;textShadow=0;" vertex="1" parent="1">
          <mxGeometry x="177.22053773584878" y="79.48717948717908" width="157.9516981132077" height="256.6666666666664" as="geometry" />
        </mxCell>
        <mxCell id="sALEVSYehv-Wioddx9PX-9" value="" style="verticalLabelPosition=bottom;verticalAlign=top;html=1;shape=mxgraph.basic.obtuse_triangle;dx=0;fillColor=#000000;strokeColor=none;flipH=0;connectable=0;allowArrows=0;perimeterSpacing=1;textShadow=0;" vertex="1" parent="1">
          <mxGeometry x="375.647358490567" y="40" width="39.487924528301924" height="39.487179487179446" as="geometry" />
        </mxCell>
        <mxCell id="sALEVSYehv-Wioddx9PX-10" value="" style="verticalLabelPosition=bottom;verticalAlign=top;html=1;shape=mxgraph.basic.obtuse_triangle;dx=0;fillColor=#000000;strokeColor=none;flipH=1;connectable=0;allowArrows=0;perimeterSpacing=1;textShadow=0;" vertex="1" parent="1">
          <mxGeometry x="177.22053773584878" y="40" width="39.487924528301924" height="39.487179487179446" as="geometry" />
        </mxCell>
        <mxCell id="sALEVSYehv-Wioddx9PX-11" value="" style="rounded=0;whiteSpace=wrap;html=1;fillColor=#000000;strokeColor=none;connectable=0;allowArrows=0;perimeterSpacing=1;textShadow=0;" vertex="1" parent="1">
          <mxGeometry x="216.7084622641514" y="40" width="158.93889622641527" height="39.487179487179446" as="geometry" />
        </mxCell>
        <mxCell id="sALEVSYehv-Wioddx9PX-12" value="" style="verticalLabelPosition=bottom;verticalAlign=top;html=1;shape=mxgraph.basic.obtuse_triangle;dx=0.43;fillColor=#000000;strokeColor=none;flipH=1;rotation=-180;connectable=0;allowArrows=0;perimeterSpacing=1;textShadow=0;" vertex="1" parent="1">
          <mxGeometry x="257.1835849056609" y="79.48717948717908" width="157.9516981132077" height="276.4102564102562" as="geometry" />
        </mxCell>
        <mxCell id="sALEVSYehv-Wioddx9PX-13" value="" style="verticalLabelPosition=bottom;verticalAlign=top;html=1;shape=mxgraph.basic.obtuse_triangle;dx=0.43;fillColor=#000000;strokeColor=none;flipH=0;rotation=-180;connectable=0;allowArrows=0;perimeterSpacing=1;textShadow=0;" vertex="1" parent="1">
          <mxGeometry x="177.22053773584878" y="79.48717948717908" width="157.9516981132077" height="276.4102564102562" as="geometry" />
        </mxCell>
        <mxCell id="sALEVSYehv-Wioddx9PX-14" value="" style="rounded=0;whiteSpace=wrap;html=1;fillColor=#000000;strokeColor=none;connectable=0;allowArrows=0;perimeterSpacing=1;textShadow=0;" vertex="1" parent="1">
          <mxGeometry x="256.6899858490566" y="59.74358974358954" width="79.46944811320763" height="138.2051282051281" as="geometry" />
        </mxCell>
        <mxCell id="sALEVSYehv-Wioddx9PX-15" value="" style="ellipse;whiteSpace=wrap;html=1;strokeColor=none;fillColor=#000000;connectable=0;allowArrows=0;perimeterSpacing=1;textShadow=0;" vertex="1" parent="1">
          <mxGeometry x="750.7826415094348" y="79.48717948717908" width="118.46377358490578" height="236.92307692307668" as="geometry" />
        </mxCell>
        <mxCell id="sALEVSYehv-Wioddx9PX-16" value="" style="rounded=0;whiteSpace=wrap;html=1;fillColor=#000000;strokeColor=none;connectable=0;allowArrows=0;perimeterSpacing=1;textShadow=0;" vertex="1" parent="1">
          <mxGeometry x="810.014528301887" y="79.48717948717908" width="157.9516981132077" height="276.4102564102562" as="geometry" />
        </mxCell>
        <mxCell id="sALEVSYehv-Wioddx9PX-17" value="" style="rounded=0;whiteSpace=wrap;html=1;fillColor=#000000;strokeColor=none;connectable=0;allowArrows=0;perimeterSpacing=1;textShadow=0;" vertex="1" parent="1">
          <mxGeometry x="928.4783018867931" y="79.48717948717908" width="157.9516981132077" height="59.23076923076917" as="geometry" />
        </mxCell>
        <mxCell id="sALEVSYehv-Wioddx9PX-18" value="" style="verticalLabelPosition=bottom;verticalAlign=top;html=1;shape=mxgraph.basic.obtuse_triangle;dx=0.01;fillColor=#000000;strokeColor=none;flipH=1;rotation=-180;connectable=0;allowArrows=0;perimeterSpacing=1;textShadow=0;" vertex="1" parent="1">
          <mxGeometry x="928.4783018867931" y="138.7179487179486" width="157.9516981132077" height="256.6666666666664" as="geometry" />
        </mxCell>
        <mxCell id="sALEVSYehv-Wioddx9PX-19" value="" style="verticalLabelPosition=bottom;verticalAlign=top;html=1;shape=mxgraph.basic.obtuse_triangle;dx=0.43;fillColor=#000000;strokeColor=none;flipH=0;connectable=0;allowArrows=0;perimeterSpacing=1;textShadow=0;" vertex="1" parent="1">
          <mxGeometry x="888.0031792452836" y="355.8974358974353" width="157.9516981132077" height="256.6666666666664" as="geometry" />
        </mxCell>
      </root>
    </mxGraphModel>
  </diagram>
</mxfile>
